<svg xmlns="http://www.w3.org/2000/svg" width="600.75" height="600" viewBox="0 0 600.75 600">
    <defs>
        <clipPath id="clip-path">
            <rect id="Rectangle_77" data-name="Rectangle 77" class="cls-1" width="188" height="242.07" rx="8.26"/>
        </clipPath>
        <clipPath id="clip-path-2">
            <path id="Rectangle_82" data-name="Rectangle 82" class="cls-1" d="M0 0h86v67.08H0z"/>
        </clipPath>
        <clipPath id="clip-path-3">
            <path id="Path_2825" data-name="Path 2825" class="cls-2" d="m380.93 284.11 18 68s.25 7.5 3.75 13.25l4.91 57.28s3.75 5.75 17.25 0c0 0 .59-41-4.41-66.53l-4.25-48.58a73.071 73.071 0 0 0-.75-22.92z" transform="translate(-380.93 -284.11)"/>
        </clipPath>
        <clipPath id="clip-path-4">
            <path id="Path_2837" data-name="Path 2837" class="cls-3" d="M384.63 192.13v-3.79s-6.49 1-7.38-.67.56-8.61.56-8.61-3.12.11-3.12-1.34 3.68-7.59 3.68-7.59-.44-4.92 0-6.48 5-10.39 5-10.39 6.7 3.68 6.48 5.69-2.12 3.91-.56 5.59 3.69 6.2 3 8.35l1 .7s.56-4 2.8-4.69 4 3.79 2.45 6.92-3.35 2.57-3.35 2.57.9 5.37 3.24 7.15l.71 5.59z" transform="translate(-374.69 -153.26)"/>
        </clipPath>
        <clipPath id="clip-path-5">
            <path id="Path_2844" data-name="Path 2844" class="cls-1" d="M421.81 213.93s18.88 38.87 14.88 44.89-21.25 25.76-21.25 25.76l-7-8 14-23.76-7.25-14.74s-3.25-11.56 6.62-24.15z" transform="translate(-408.44 -213.93)"/>
        </clipPath>
        <clipPath id="clip-path-6">
            <path id="Path_2850" data-name="Path 2850" class="cls-1" d="m362.19 283.67 3.73-30.67-1.51-46a9 9 0 0 1 6.52-9c12.7-3.68 39.89-8.2 50.88 15.94a11 11 0 0 1 .85 6.45l-7.47 42.95 2 23.43s-24.34 17.9-55-3.1z" transform="translate(-362.19 -195.059)"/>
        </clipPath>
        <clipPath id="clip-path-7">
            <rect id="Rectangle_90" data-name="Rectangle 90" class="cls-4" width="45.55" height="34.89" rx="8.32"/>
        </clipPath>
        <clipPath id="clip-path-8">
            <path id="Path_2865" data-name="Path 2865" class="cls-3" d="M189.36 330.15s62.09-4.16 64.92 4.61 4.16 36.84 4.3 48-.74 25.25-.74 25.25a19.72 19.72 0 0 1-11.44 0s-2.73-16.19-4.7-24.06-4.06-18.37-2.87-35c0 0-59.5 9-59.83-1.44s10.36-17.36 10.36-17.36z" transform="translate(-178.993 -329.164)"/>
        </clipPath>
        <clipPath id="clip-path-9">
            <path id="Path_2870" data-name="Path 2870" class="cls-5" d="m259.28 404.44-.43 4.2s-7.1 3.81-13.35.29l-1.3-4.13s4.23 2.9 15.08-.36z" transform="translate(-244.2 -404.44)"/>
        </clipPath>
        <clipPath id="clip-path-10">
            <path id="Path_2876" data-name="Path 2876" class="cls-3" d="M168 332.49s-8.81 17.6 2.45 19.16 45.68-.44 45.68-.44a174.549 174.549 0 0 0-11.44 21.58c-4.46 10.54-8.91 21.39-8.91 21.39s1.93 5.2 9.8 6.24c0 0 6.39-10 20.35-25.55s17.83-31.2 14.86-36.55-18.42-8.24-43.38-9.39z" transform="translate(-164.721 -328.93)"/>
        </clipPath>
        <clipPath id="clip-path-11">
            <path id="Path_2880" data-name="Path 2880" class="cls-5" d="m208.22 398.93-2.67 3.27s-8-.74-11.29-7.13l1.19-4.16s1.93 4.75 12.77 8.02z" transform="translate(-194.26 -390.91)"/>
        </clipPath>
        <clipPath id="clip-path-12">
            <path id="Path_2886" data-name="Path 2886" class="cls-3" d="m193.54 258.45 1.33-7.8-10.06-8.67-2.84 13.06z" transform="translate(-181.97 -241.98)"/>
        </clipPath>
        <clipPath id="clip-path-13">
            <path id="Path_2907" data-name="Path 2907" class="cls-1" d="m201.65 261.24 20.14.42 7.56-21L236 243s-3.41 26.59-6.82 28.17S205 275 205 275s-6.46-7.13-3.35-13.76z" transform="translate(-200.803 -240.66)"/>
        </clipPath>
        <clipPath id="clip-path-14">
            <path id="Rectangle_94" data-name="Rectangle 94" class="cls-6" transform="rotate(-12.84 7.152 .802)" d="M0 0h7.24v5.16H0z"/>
        </clipPath>
        <clipPath id="clip-path-18">
            <path id="Path_2914" data-name="Path 2914" class="cls-1" d="m164.16 261.68 6.29 56.24-4 16.91s4.21.95 15.88-2.72 24.16-2.57 24.16-2.57 5.17-37.44 3.1-49.14a46.85 46.85 0 0 0-7.92-19.16s-22.41-9.8-36.1-2.31a2.77 2.77 0 0 0-1.41 2.75z" transform="translate(-164.141 -256.11)"/>
        </clipPath>
        <clipPath id="clip-path-19">
            <path id="Rectangle_107" data-name="Rectangle 107" class="cls-6" transform="rotate(79.1 2.028 2.456)" d="M0 0h5.8v4.13H0z"/>
        </clipPath>
        <clipPath id="clip-path-21">
            <path id="Rectangle_114" data-name="Rectangle 114" class="cls-6" transform="rotate(79.1 2.028 2.456)" d="M0 0h5.79v4.13H0z"/>
        </clipPath>
        <clipPath id="clip-path-23">
            <path id="Rectangle_120" data-name="Rectangle 120" class="cls-6" transform="rotate(49.1 1.56 3.417)" d="M0 0h5.79v4.13H0z"/>
        </clipPath>
        <clipPath id="clip-path-24">
            <path id="Rectangle_123" data-name="Rectangle 123" class="cls-6" transform="rotate(49.1 1.56 3.417)" d="M0 0h5.8v4.13H0z"/>
        </clipPath>
        <clipPath id="clip-path-27">
            <path id="Rectangle_133" data-name="Rectangle 133" class="cls-6" transform="rotate(19.1 .676 4.02)" d="M0 0h5.8v4.13H0z"/>
        </clipPath>
        <clipPath id="clip-path-28">
            <path id="Rectangle_136" data-name="Rectangle 136" class="cls-6" transform="rotate(19.1 .676 4.02)" d="M0 0h5.79v4.13H0z"/>
        </clipPath>
        <clipPath id="clip-path-31">
            <path id="Path_2928" data-name="Path 2928" class="cls-7" d="M97.94 179.18c.09 2.68.37 10.72.37 10.72l15.94 9.56 1-18.22.55-25 2.62-3.64s3.92-6-2.62-8.33-4.72 2-11.22 2.73-21.74 11-14.84 19.93 8.04 7.77 8.2 12.25z" transform="translate(-87.986 -143.588)"/>
        </clipPath>
        <clipPath id="clip-path-32">
            <path id="Path_2933" data-name="Path 2933" class="cls-7" d="M104.18 165.89s-6.42.17-3 5 7 3.91 7 3.91l3.91 7.45s13.61 1.92 16.82 1-2.34-12.14-2.34-12.14l2.13-2.44a1.31 1.31 0 0 0-.17-1.9l-5.08-4.08c.43-2.51-5.12-10.06-5.12-10.06s-8.24-.09-9 2.69a47.552 47.552 0 0 0-1.13 5l-4.68 1.91z" transform="translate(-100.177 -152.63)"/>
        </clipPath>
        <clipPath id="clip-path-33">
            <path id="Path_2943" data-name="Path 2943" class="cls-5" d="m187.14 174.86 8.46-19.73 14.7 15.64z" transform="translate(-187.14 -155.13)"/>
        </clipPath>
        <clipPath id="clip-path-34">
            <path id="Path_2948" data-name="Path 2948" class="cls-5" d="M207.11 153.1a3 3 0 1 1-3.47-2.43 3 3 0 0 1 3.47 2.43z" transform="translate(-201.156 -150.625)"/>
        </clipPath>
        <clipPath id="clip-path-35">
            <path id="Path_2954" data-name="Path 2954" class="cls-1" d="M127.15 290.94S116.47 320.61 102.8 349c0 0-2.65 12.48-8.62 21l-15 47.89s-6.58 2.71-14.38-2c0 0 3.72-30.64 13.23-52.87l5.61-17.61 7-35.46s-5.93-10.26-4.35-25.32l26.33-.36z" transform="translate(-64.8 -284.27)"/>
        </clipPath>
        <clipPath id="clip-path-36">
            <path id="Path_2964" data-name="Path 2964" class="cls-5" d="m110.48 292.93 11.74-17.98L134 292.89z" transform="translate(-110.48 -274.95)"/>
        </clipPath>
        <clipPath id="clip-path-37">
            <path id="Path_2969" data-name="Path 2969" class="cls-5" d="M133.91 274.93a3 3 0 1 1-3-3 3 3 0 0 1 3 3z" transform="translate(-127.91 -271.93)"/>
        </clipPath>
        <clipPath id="clip-path-38">
            <path id="Path_2973" data-name="Path 2973" class="cls-5" d="m111.96 295 9.33-19.34 14 16.27z" transform="translate(-111.96 -275.66)"/>
        </clipPath>
        <clipPath id="clip-path-39">
            <path id="Path_2978" data-name="Path 2978" class="cls-5" d="M132.88 274.13a3 3 0 1 1-3.37-2.58 3 3 0 0 1 3.37 2.58z" transform="translate(-126.906 -271.523)"/>
        </clipPath>
        <style>
            .cls-1,.cls-39,.cls-5,.cls-6{fill:#92e3a9}.cls-1,.cls-10,.cls-12,.cls-16,.cls-2,.cls-20,.cls-21,.cls-23,.cls-3,.cls-30,.cls-34,.cls-39,.cls-4,.cls-5,.cls-51,.cls-61,.cls-7{stroke:#263238}.cls-1,.cls-10,.cls-12,.cls-16,.cls-2,.cls-20,.cls-21,.cls-23,.cls-27,.cls-3,.cls-30,.cls-34,.cls-4,.cls-40,.cls-5,.cls-51,.cls-61,.cls-7{stroke-linecap:round;stroke-linejoin:round}.cls-2,.cls-24,.cls-30,.cls-4{fill:#263238}.cls-10,.cls-2,.cls-23,.cls-27,.cls-39,.cls-5,.cls-61{stroke-width:.75px}.cls-18,.cls-23,.cls-28,.cls-3,.cls-47,.cls-8{fill:#fff}.cls-58,.cls-61,.cls-7{fill:#999}.cls-8{opacity:.7}.cls-21,.cls-9{fill:#217d68}.cls-10,.cls-12,.cls-16,.cls-27,.cls-40{fill:none}.cls-39,.cls-47,.cls-48{opacity:.3}.cls-12,.cls-30{stroke-width:.5px}.cls-13,.cls-34{fill:#ff725e}.cls-18,.cls-26{opacity:.5}.cls-20{fill:#c4a937}.cls-27,.cls-40{stroke:#7f7f7f}.cls-33{opacity:.2}.cls-39{stroke-miterlimit:10}.cls-44,.cls-51{fill:#4ab19a}.cls-46{clip-path:url(#clip-path-14)}.cls-52{clip-path:url(#clip-path-19)}.cls-53{clip-path:url(#clip-path-21)}.cls-54{clip-path:url(#clip-path-23)}.cls-55{clip-path:url(#clip-path-24)}.cls-56{clip-path:url(#clip-path-27)}.cls-57{clip-path:url(#clip-path-28)}
        </style>
    </defs>
    <g id="Design_team-bro" data-name="Design team-bro" transform="translate(-27.195 -53.027)">
        <g id="freepik--background-simple--inject-2" transform="translate(42.179 53.027)">
            <path id="Path_2799" data-name="Path 2799" class="cls-6" d="M483.165 185.258C436.9 96.079 364.121 46.32 276.414 53.757s-91.769 79.343-91.769 159.962c0 79.686-103.651 42.519-136.7 138.635-25.745 74.895 41.228 211.731 72.07 268.534H557.53c16.977-64.375 47.819-191.069 51.165-273.068 6.017-147.432-88.616-91.371-125.53-162.562z" transform="translate(-42.179 -53.027)"/>
            <path id="Path_2800" data-name="Path 2800" class="cls-8" d="M483.165 185.258C436.9 96.079 364.121 46.32 276.414 53.757s-91.769 79.343-91.769 159.962c0 79.686-103.651 42.519-136.7 138.635-25.745 74.895 41.228 211.731 72.07 268.534H557.53c16.977-64.375 47.819-191.069 51.165-273.068 6.017-147.432-88.616-91.371-125.53-162.562z" transform="translate(-42.179 -53.027)"/>
        </g>
        <g id="freepik--Plant--inject-2" transform="translate(375.083 523.797)">
            <path id="Path_2801" data-name="Path 2801" class="cls-9" d="M336.18 360.48s20.5-61.65-5.24-4.71c0 0-9.08-49.56-6.71 4.52 0 0-26.54-41.5-4.16 9 0 0-34.44-36.73 1.12 11.13 0 0 69.46-3.49 15.49-5.86 0 0 62.83-26.62 2.94-7.48 0 .02 53.55-53.01-3.44-6.6z" transform="translate(-267.738 -331.629)"/>
            <path id="Path_2802" data-name="Path 2802" class="cls-10" d="M331.81 361.85S318 381.32 313 401.5" transform="translate(-267.738 -331.629)"/>
            <path id="Path_2803" data-name="Path 2803" class="cls-9" d="M294 362.46s-48.34-38.08-5.89 3.15c0 0-47.06-7.83 1.87 7.43 0 0-45.5 10.31 6.7 6.6 0 0-43.79 18.88 10.28 2.58 0 0 19.21-63-.25-15.68 0 0-3.52-64.53-5.71-5 0-.02-30.08-64.76-7 .92z" transform="translate(-267.738 -331.629)"/>
            <path id="Path_2804" data-name="Path 2804" d="M294 362.46s-48.34-38.08-5.89 3.15c0 0-47.06-7.83 1.87 7.43 0 0-45.5 10.31 6.7 6.6 0 0-43.79 18.88 10.28 2.58 0 0 19.21-63-.25-15.68 0 0-3.52-64.53-5.71-5 0-.02-30.08-64.76-7 .92z" transform="translate(-267.738 -331.629)" style="opacity:.3;fill:#217d68"/>
            <path id="Path_2805" data-name="Path 2805" class="cls-10" d="M316.76 403.35c-8.69-29-24-36.08-24-36.08" transform="translate(-267.738 -331.629)"/>
            <path id="Path_2806" data-name="Path 2806" class="cls-12" d="M313.56 365.83s6.2 5.82 7.85 13.73a48 48 0 0 1 18.51-2.49" transform="translate(-267.738 -331.629)"/>
            <path id="Path_2807" data-name="Path 2807" class="cls-12" d="M320.11 359.56s4.26 5.17 1.3 20l16.3-11.43" transform="translate(-267.738 -331.629)"/>
            <path id="Path_2808" data-name="Path 2808" class="cls-12" d="M308.77 366.56a35.38 35.38 0 0 0-2.54 13.88s-7 .78-11.74 3" transform="translate(-267.738 -331.629)"/>
            <path id="Path_2809" data-name="Path 2809" class="cls-12" d="M301.22 364.72a47.421 47.421 0 0 0 5 15.72s-4.46-4-16.26-4.66" transform="translate(-267.738 -331.629)"/>
            <path id="Path_2810" data-name="Path 2810" class="cls-2" d="M300.24 399.29h28.84l-4.43 27h-1.4v1.08a1.4 1.4 0 0 1-1.4 1.41h-1.34a1.4 1.4 0 0 1-1.4-1.41v-1.08h-8.9v1.08a1.41 1.41 0 0 1-1.41 1.41h-1.34a1.41 1.41 0 0 1-1.4-1.41v-1.08h-1.4z" transform="translate(-267.738 -331.629)"/>
        </g>
        <g id="freepik--Shadow--inject-2" transform="translate(57.379 620.888)">
            <path id="Path_2811" data-name="Path 2811" class="cls-13" d="M574.943 428.72H102.88c-28.492 3.12-51.346 7.16-44.171 11.76 16.784 10.77 137.66-1.81 134.108 10.66s87.1 9.38 136.415 9.38 103.154-3.31 85.824-12.88 97.713-2.58 147.158-2.58c36.086 0 60.816-7.2 12.729-16.34z" transform="translate(-57.379 -428.72)"/>
        </g>
        <g id="freepik--Floor--inject-2" transform="translate(27.57 620.888)">
            <path id="Line_2" data-name="Line 2" class="cls-10" d="M0 0h600"/>
        </g>
        <g id="freepik--Layout--inject-2" transform="translate(248.761 73.47)">
            <rect id="Rectangle_74" data-name="Rectangle 74" class="cls-4" width="188" height="242.07" rx="8.26" transform="translate(3 3.55)"/>
            <rect id="Rectangle_75" data-name="Rectangle 75" class="cls-6" width="188" height="242.07" rx="8.26"/>
            <g id="Group_32" data-name="Group 32" style="clip-path:url(#clip-path)">
                <rect id="Rectangle_76" data-name="Rectangle 76" width="188" height="242.07" rx="8.26" style="opacity:.8;fill:#fff"/>
            </g>
            <rect id="Rectangle_78" data-name="Rectangle 78" class="cls-16" width="188" height="242.07" rx="8.26"/>
            <path id="Rectangle_79" data-name="Rectangle 79" class="cls-3" transform="translate(8 34.59)" d="M0 0h172v67.08H0z"/>
            <path id="Line_3" data-name="Line 3" class="cls-10" transform="translate(8 34.59)" d="M172 67.08 0 0"/>
            <path id="Line_4" data-name="Line 4" class="cls-10" transform="translate(8 34.59)" d="M0 67.08 172 0"/>
            <path id="Rectangle_80" data-name="Rectangle 80" class="cls-6" transform="translate(8 115.26)" d="M0 0h86v67.08H0z"/>
            <g id="Group_33" data-name="Group 33" transform="translate(8 115.26)" style="clip-path:url(#clip-path-2)">
                <path id="Rectangle_81" data-name="Rectangle 81" class="cls-18" d="M0 0h86v67.08H0z"/>
            </g>
            <path id="Rectangle_83" data-name="Rectangle 83" class="cls-16" transform="translate(8 115.26)" d="M0 0h86v67.08H0z"/>
            <rect id="Rectangle_84" data-name="Rectangle 84" class="cls-2" width="77.5" height="3" rx="1.5" transform="translate(55.25 11.57)"/>
            <path id="Path_2812" data-name="Path 2812" class="cls-2" d="M343.36 191.73h-74.5a1.5 1.5 0 0 1-1.5-1.5h0a1.5 1.5 0 0 1 1.5-1.5h74.5a1.5 1.5 0 0 1 1.5 1.5h0a1.5 1.5 0 0 1-1.5 1.5z" transform="translate(-164.86 -73.47)"/>
            <path id="Path_2813" data-name="Path 2813" class="cls-2" d="M327.36 208.31h-58.5a1.5 1.5 0 0 1-1.5-1.5h0a1.5 1.5 0 0 1 1.5-1.5h58.5a1.5 1.5 0 0 1 1.5 1.5h0a1.5 1.5 0 0 1-1.5 1.5z" transform="translate(-164.86 -73.47)"/>
            <rect id="Rectangle_85" data-name="Rectangle 85" class="cls-2" width="53.75" height="3" rx="1.5" transform="translate(102.5 143.57)"/>
            <path id="Path_2814" data-name="Path 2814" class="cls-2" d="M334.36 231.76h-65.5a1.5 1.5 0 0 1-1.5-1.5h0a1.5 1.5 0 0 1 1.5-1.5h65.5a1.5 1.5 0 0 1 1.5 1.5h0a1.5 1.5 0 0 1-1.5 1.5z" transform="translate(-164.86 -73.47)"/>
            <path id="Path_2815" data-name="Path 2815" class="cls-2" d="M328.11 243.48h-59.25a1.5 1.5 0 0 1-1.5-1.5h0a1.5 1.5 0 0 1 1.5-1.5h59.25a1.5 1.5 0 0 1 1.5 1.5h0a1.5 1.5 0 0 1-1.5 1.5z" transform="translate(-164.86 -73.47)"/>
            <path id="Path_2816" data-name="Path 2816" class="cls-2" d="M319.61 255.21h-50.75a1.5 1.5 0 0 1-1.5-1.5h0a1.5 1.5 0 0 1 1.5-1.5h50.75a1.5 1.5 0 0 1 1.5 1.5h0a1.5 1.5 0 0 1-1.5 1.5z" transform="translate(-164.86 -73.47)"/>
            <path id="Path_2817" data-name="Path 2817" class="cls-2" d="M307.36 98.2h-97a1.5 1.5 0 0 1-1.5-1.5h0a1.5 1.5 0 0 1 1.5-1.5h97a1.5 1.5 0 0 1 1.5 1.5h0a1.5 1.5 0 0 1-1.5 1.5z" transform="translate(-164.86 -73.47)"/>
            <circle id="Ellipse_29" data-name="Ellipse 29" cx="16" cy="16" r="16" transform="translate(78 199.73)" style="fill:#ff725e;stroke-width:.75px;stroke-linecap:round;stroke-linejoin:round;stroke:#263238"/>
            <circle id="Ellipse_30" data-name="Ellipse 30" class="cls-20" cx="16" cy="16" r="16" transform="translate(30 199.73)"/>
            <circle id="Ellipse_31" data-name="Ellipse 31" class="cls-21" cx="16" cy="16" r="16" transform="translate(126 199.73)"/>
        </g>
        <g id="freepik--character-3--inject-2" transform="translate(429.28 341.129)">
            <path id="Path_2818" data-name="Path 2818" class="cls-3" d="M300.98 217.64h-26.84v-36.95h19.55l7.29 7.28z" transform="translate(-274.14 -148.962)"/>
            <path id="Path_2819" data-name="Path 2819" class="cls-2" d="M293.69 180.69h0v8.29h7.29v-1.01z" transform="translate(-274.14 -148.962)"/>
            <path id="Path_2820" data-name="Path 2820" class="cls-3" d="M293.69 187.98h7.29l-7.29-7.29z" transform="translate(-274.14 -148.962)"/>
            <path id="Path_2821" data-name="Path 2821" d="M286.48 190h4.34l3.32 20.38h-3.21l-.58-4.05v.06h-3.64l-.58 4h-3zm3.52 13.6-1.42-10.07h-.06l-1.4 10.07z" transform="translate(-274.14 -148.962)" style="stroke:#92e3a9;stroke-width:.5px;stroke-linecap:round;stroke-linejoin:round;fill:#92e3a9"/>
            <path id="Path_2822" data-name="Path 2822" class="cls-23" d="M284.48 189h4.34l3.32 20.38h-3.21l-.58-4.05v.06h-3.64l-.58 4h-3zm3.52 13.6-1.42-10.07h-.06l-1.4 10.07z" transform="translate(-274.14 -148.962)"/>
            <path id="Path_2823" data-name="Path 2823" class="cls-24" d="m380.93 284.11 18 68s.25 7.5 3.75 13.25l4.91 57.28s3.75 5.75 17.25 0c0 0 .59-41-4.41-66.53l-4.25-48.58a73.071 73.071 0 0 0-.75-22.92z" transform="translate(-274.14 -148.962)"/>
            <g id="Group_34" data-name="Group 34" transform="translate(106.79 135.148)" style="clip-path:url(#clip-path-3)">
                <path id="Path_2824" data-name="Path 2824" class="cls-26" d="M410.42 290.66c-2.45.86-5.14 1.38-7.53 2a3.616 3.616 0 0 1-.45.1c-2.06 5-4.12 10-6.43 14.94-2.72 5.8-6.2 13.1-6.32 20a4.25 4.25 0 0 1 3.7 3.53 46.994 46.994 0 0 0 1 4.8c.6 1.85 1.33 3.58 1.79 5.5.12.5.24 1 .35 1.49-.26-10.84-.92-21.39 6.35-30.88 5.29-6.84 7.02-15.41 7.54-21.48z" transform="translate(-380.93 -284.11)"/>
            </g>
            <path id="Path_2826" data-name="Path 2826" class="cls-10" d="m380.93 284.11 18 68s.25 7.5 3.75 13.25l4.91 57.28s3.75 5.75 17.25 0c0 0 .59-41-4.41-66.53l-4.25-48.58a73.071 73.071 0 0 0-.75-22.92z" transform="translate(-274.14 -148.962)"/>
            <path id="Path_2827" data-name="Path 2827" class="cls-21" d="M408.63 422.61s-8.67 4-11.78 4c-2.13 0-6.11-2.15-8 2.84 0 0-2.26 4.41 11.44 6a143.856 143.856 0 0 0 26.2.19 1.9 1.9 0 0 0 1.72-2.25l-.17-.89s-.34-6.56-4.42-9.85z" transform="translate(-274.14 -148.962)"/>
            <path id="Path_2828" data-name="Path 2828" class="cls-23" d="M397.8 432.92c-8.91-1.74-8.68-4.19-8.68-4.19h0c-.11.22-.21.44-.31.69 0 0-2.26 4.41 11.44 6a143.861 143.861 0 0 0 26.2.19 1.9 1.9 0 0 0 1.72-2.25l-.07-.33-8.13.73s-13.27.89-22.17-.84z" transform="translate(-274.14 -148.962)"/>
            <path id="Path_2829" data-name="Path 2829" class="cls-27" d="M408.44 354a11.56 11.56 0 0 0 9.87 3.59" transform="translate(-274.14 -148.962)"/>
            <path id="Path_2830" data-name="Path 2830" class="cls-2" d="M363.69 281.33s-4.5 11.75 3.75 62c0 0-1.5 4.75 1.5 14.25l4 32.25v32s2.75 6.75 19 0c0 0 .5-56.75-1.25-68.75l3.83-36.62a12.3 12.3 0 0 1 5-8.61c3.57-2.63 8.15-8.14 8.9-19.31z" transform="translate(-274.14 -148.962)"/>
            <path id="Path_2831" data-name="Path 2831" class="cls-21" d="M374.06 421.21s-9.57 4.4-13 4.37c-2.35 0-6.75-2.37-8.87 3.13 0 0-2.5 4.87 12.62 6.62a159.6 159.6 0 0 0 28.93.22 2.09 2.09 0 0 0 1.88-2.49l-.18-1s-.38-7.25-4.88-10.87z" transform="translate(-274.14 -148.962)"/>
            <path id="Path_2832" data-name="Path 2832" class="cls-23" d="M362.1 432.58c-9.83-1.91-9.57-4.61-9.57-4.61h0a6.684 6.684 0 0 0-.34.76s-2.5 4.87 12.62 6.62a159.6 159.6 0 0 0 28.93.22 2.09 2.09 0 0 0 1.88-2.49l-.07-.36-9 .8s-14.61.98-24.45-.94z" transform="translate(-274.14 -148.962)"/>
            <path id="Path_2833" data-name="Path 2833" class="cls-27" d="M376.19 350.58s3.92 4.7 11.75 4.06" transform="translate(-274.14 -148.962)"/>
            <path id="Path_2834" data-name="Path 2834" class="cls-2" d="M383.4 154.83s-8.09 3.63-8.71 0a11.07 11.07 0 0 0 4.91-3.75c2-2.75 12-2 12-2s17.63-1.65 15.38 7.37c0 0 7 6.61 1 16.24s-9.46 12.85-9.46 12.85l-6-1-8.34-25.37z" transform="translate(-274.14 -148.962)"/>
            <path id="Path_2835" data-name="Path 2835" class="cls-28" d="M384.63 192.13v-3.79s-6.49 1-7.38-.67.56-8.61.56-8.61-3.12.11-3.12-1.34 3.68-7.59 3.68-7.59-.44-4.92 0-6.48 5-10.39 5-10.39 6.7 3.68 6.48 5.69-2.12 3.91-.56 5.59 3.69 6.2 3 8.35l1 .7s.56-4 2.8-4.69 4 3.79 2.45 6.92-3.35 2.57-3.35 2.57.9 5.37 3.24 7.15l.71 5.59z" transform="translate(-274.14 -148.962)"/>
            <g id="Group_35" data-name="Group 35" transform="translate(100.55 4.298)" style="clip-path:url(#clip-path-4)">
                <path id="Path_2836" data-name="Path 2836" class="cls-30" d="M377.25 187.67s3.31.83 10.56-2.13 7.43-7.15 7.43-7.15l.32.57s-.62 6.58-10.93 9.38c-8.32 2.25-8.32.62-8.32.62z" transform="translate(-374.69 -153.26)"/>
            </g>
            <path id="Path_2838" data-name="Path 2838" class="cls-16" d="M384.63 192.13v-3.79s-6.49 1-7.38-.67.56-8.61.56-8.61-3.12.11-3.12-1.34 3.68-7.59 3.68-7.59-.44-4.92 0-6.48 5-10.39 5-10.39 6.7 3.68 6.48 5.69-2.12 3.91-.56 5.59 3.69 6.2 3 8.35l1 .7s.56-4 2.8-4.69 4 3.79 2.45 6.92-3.35 2.57-3.35 2.57.9 5.37 3.24 7.15l.71 5.59z" transform="translate(-274.14 -148.962)"/>
            <path id="Path_2839" data-name="Path 2839" class="cls-10" d="M384.3 179.06s-1.13 3.61-4.73 1.67" transform="translate(-274.14 -148.962)"/>
            <path id="Path_2840" data-name="Path 2840" class="cls-10" d="M380.33 165.1a2.84 2.84 0 0 1 3.07 2" transform="translate(-274.14 -148.962)"/>
            <path id="Path_2841" data-name="Path 2841" d="M379.6 168.9c0 .74.33 1.34.73 1.34s.72-.6.72-1.34-.32-1.34-.72-1.34-.73.6-.73 1.34z" transform="translate(-274.14 -148.962)" style="fill:#2e353a"/>
            <path id="Path_2842" data-name="Path 2842" class="cls-6" d="M421.81 213.93s18.88 38.87 14.88 44.89-21.25 25.76-21.25 25.76l-7-8 14-23.76-7.25-14.74s-3.25-11.56 6.62-24.15z" transform="translate(-274.14 -148.962)"/>
            <g id="Group_36" data-name="Group 36" transform="translate(134.3 64.968)" style="clip-path:url(#clip-path-5)">
                <path id="Path_2843" data-name="Path 2843" class="cls-33" d="M422.66 240.33c1.08-6 .24-17 0-19.44a192.2 192.2 0 0 1-4.45 22 5.374 5.374 0 0 1-.35 1c1.8 2.82 3.93 5.49 3.62 9.06s-3.79 8.22-5.82 11.22a5.657 5.657 0 0 1-.8.94 5.084 5.084 0 0 1 .39.93c.84 2.85.71 5.78.73 8.71 2.44-14.86 11.32-19.5 12.09-22.86.93-4.08-6.63-4.81-5.41-11.56z" transform="translate(-408.44 -213.93)"/>
            </g>
            <path id="Path_2845" data-name="Path 2845" class="cls-34" d="M421.81 213.93s18.88 38.87 14.88 44.89-21.25 25.76-21.25 25.76l-7-8 14-23.76-7.25-14.74s-3.25-11.56 6.62-24.15z" transform="translate(-274.14 -148.962)"/>
            <path id="Path_2846" data-name="Path 2846" class="cls-10" d="M424.87 252.27a12.26 12.26 0 0 1 6.48 0" transform="translate(-274.14 -148.962)"/>
            <path id="Path_2847" data-name="Path 2847" class="cls-34" d="m380.19 197.83 4.5-7.36s12.5-5.11 18.75 0l3.5 9.86z" transform="translate(-274.14 -148.962)"/>
            <path id="Path_2848" data-name="Path 2848" class="cls-13" d="m362.19 283.67 3.73-30.67-1.51-46a9 9 0 0 1 6.52-9c12.7-3.68 39.89-8.2 50.88 15.94a11 11 0 0 1 .85 6.45l-7.47 42.95 2 23.43s-24.34 17.9-55-3.1z" transform="translate(-274.14 -148.962)"/>
            <g id="Group_37" data-name="Group 37" transform="translate(88.05 46.098)" style="clip-path:url(#clip-path-6)">
                <path id="Path_2849" data-name="Path 2849" class="cls-33" d="M393.56 281.33c-.62-9 15.63-12.5 14.88-16.21s-12.25-1.79-12.25-5.45-30.43-11.56-23.47-28.59a37.5 37.5 0 0 0 3.09-14.23 78.361 78.361 0 0 1-11 11.51 5.15 5.15 0 0 1 .25 2.28c0 .11.09.22.12.33a19 19 0 0 1 .16 7.79 5.779 5.779 0 0 1-.09 1.55 55.486 55.486 0 0 1 .44 8.88 3.585 3.585 0 0 0 .11.72 5.459 5.459 0 0 1-.08 2.29 4.67 4.67 0 0 1 .08 3.13c-.18.57-.37 1.14-.56 1.71a4.051 4.051 0 0 1 .12.85c.18 4.53-.79 9-1.56 13.41-.72 4.11-.86 8.32-1.62 12.42a4.89 4.89 0 0 1 1.41 1c2.62 2.64 7.39 4.36 10.83 5.68a64.55 64.55 0 0 0 12.39 3.24 38.17 38.17 0 0 0 25.1-4.2c-3.09.09-17.79-.04-18.35-8.11z" transform="translate(-362.19 -195.059)"/>
            </g>
            <path id="Path_2851" data-name="Path 2851" class="cls-16" d="m362.19 283.67 3.73-30.67-1.51-46a9 9 0 0 1 6.52-9c12.7-3.68 39.89-8.2 50.88 15.94a11 11 0 0 1 .85 6.45l-7.47 42.95 2 23.43s-24.34 17.9-55-3.1z" transform="translate(-274.14 -148.962)"/>
            <path id="Path_2852" data-name="Path 2852" class="cls-10" d="M412.44 264.33s-37.5 8-39.5 0 10.5-3 20.62-4.25" transform="translate(-274.14 -148.962)"/>
            <path id="Path_2853" data-name="Path 2853" class="cls-3" d="m319.6 217-12-4.35s-3.15-8.22-5.41-9.92-5-5-5.74-3.74c-.53.89.85 3.26 2.77 4.91a3.967 3.967 0 0 1 .75 5c-.43.94-3.77 2.48-6.47 3.43s-9-1.4-10.61.23 2.53 2.18 2.53 2.18-3.08.22-3.36 2c-.16 1.07 2.91.4 4.44.24s4.67-.36 4.67-.36-5.32 1.85-4.93 3.33 4.11-.77 7.2-1.3c0 0-4.15 2.06-3.6 3.44s2.54-.61 6.1-2l7.46-1.71 12.13 6.62z" transform="translate(-274.14 -148.962)"/>
            <path id="Path_2854" data-name="Path 2854" class="cls-10" d="M286.56 214.72a19.24 19.24 0 0 0 5.16.46" transform="translate(-274.14 -148.962)"/>
            <path id="Path_2855" data-name="Path 2855" class="cls-34" d="M369.65 199a2.11 2.11 0 0 0-2.31.52l-21.45 22.84-35.17-9.71-3.89 9.8s26.68 14.93 40.24 14.11c10.29-.63 22.87-11.7 28.34-17a7.77 7.77 0 0 0 2.22-6.91" transform="translate(-274.14 -148.962)"/>
            <path id="Path_2856" data-name="Path 2856" class="cls-23" d="M314.27 221.41a1.18 1.18 0 1 1-.473-.79 1.19 1.19 0 0 1 .473.79z" transform="translate(-274.14 -148.962)"/>
            <path id="Path_2857" data-name="Path 2857" class="cls-10" d="M345.54 229.13c1.14-2.95-.42-5.38 1.18-5.66s1.72 4.78 4.37 4.71" transform="translate(-274.14 -148.962)"/>
        </g>
        <g id="freepik--character-2--inject-2" transform="translate(197.644 384.218)">
            <path id="Path_2858" data-name="Path 2858" class="cls-23" d="m222 429.57-25.24-2.84v-57.1l12.95-7.78V359H175v2.83l13 7.76v57.14l-25.24 2.84a4.64 4.64 0 0 0-4.12 4.61v2.34h67.55v-2.34a4.64 4.64 0 0 0-4.19-4.61z" transform="translate(-141.24 -192.05)"/>
            <path id="Rectangle_86" data-name="Rectangle 86" class="cls-23" transform="translate(19.32 133.49)" d="M0 0h6.9v31.34H0z"/>
            <rect id="Rectangle_87" data-name="Rectangle 87" class="cls-4" width="81.99" height="12.98" rx="4.33" transform="translate(10.13 158.34)"/>
            <rect id="Rectangle_88" data-name="Rectangle 88" class="cls-24" width="45.55" height="34.89" rx="8.32" transform="translate(0 101.46)"/>
            <g id="Group_38" data-name="Group 38" transform="translate(0 101.46)" style="clip-path:url(#clip-path-7)">
                <rect id="Rectangle_89" data-name="Rectangle 89" class="cls-26" width="45.55" height="34.89" rx="8.32" transform="translate(7.6)"/>
            </g>
            <rect id="Rectangle_91" data-name="Rectangle 91" class="cls-16" width="45.55" height="34.89" rx="8.32" transform="translate(0 101.46)"/>
            <path id="Path_2859" data-name="Path 2859" class="cls-10" d="M218.79 348.43a28.76 28.76 0 0 1 7.11-4.17" transform="translate(-141.24 -192.05)"/>
            <path id="Path_2860" data-name="Path 2860" class="cls-10" d="M223.08 341.89s-7.25 5.94-5.78 6.83" transform="translate(-141.24 -192.05)"/>
            <path id="Path_2861" data-name="Path 2861" class="cls-2" d="m246 397.42 2.25 15.85s-4.21 3.44-4.42 12.8l7.42 2.64 2-2.64 6.62 6.9s11.73 5.28 13.33 1.75-4.87-6.14-10.34-13.9c-1.42-2-6.17-7.72-6.17-7.72l.47-16.54z" transform="translate(-141.24 -192.05)"/>
            <path id="Path_2862" data-name="Path 2862" class="cls-28" d="M189.36 330.15s62.09-4.16 64.92 4.61 4.16 36.84 4.3 48-.74 25.25-.74 25.25a19.72 19.72 0 0 1-11.44 0s-2.73-16.19-4.7-24.06-4.06-18.37-2.87-35c0 0-59.5 9-59.83-1.44s10.36-17.36 10.36-17.36z" transform="translate(-141.24 -192.05)"/>
            <g id="Group_39" data-name="Group 39" transform="translate(37.753 137.114)" style="clip-path:url(#clip-path-8)">
                <path id="Path_2863" data-name="Path 2863" class="cls-26" d="M189.36 330.15s62.09-4.16 64.92 4.61 4.16 36.84 4.3 48-.74 25.25-.74 25.25a19.72 19.72 0 0 1-11.44 0s-2.73-16.19-4.7-24.06-4.06-18.37-2.87-35c0 0-59.5 9-59.83-1.44s10.36-17.36 10.36-17.36z" transform="translate(-178.993 -329.164)"/>
                <path id="Path_2864" data-name="Path 2864" class="cls-33" d="m233.1 333.09 1.08.48.43.17.26.12a6.91 6.91 0 0 1 1.31.73c4.45 2.17 6.55 6.13 5 11.18a6.263 6.263 0 0 1-.08.84 61.73 61.73 0 0 1-3 10.41 3.68 3.68 0 0 1 .47 2.28c-.16 1.27-.29 2.53-.39 3.8a6.3 6.3 0 0 1 .42 3.47 14.738 14.738 0 0 0-.16 2.3c.37 2.78.73 5.56 1.25 8.31l.6 2.3c0-.54 0-1.12-.06-1.77-1.16-22.81 2.36-13.54 3.91-29.28 1.23-11.84-6.92-14.67-11.04-15.34z" transform="translate(-178.993 -329.164)"/>
            </g>
            <path id="Path_2866" data-name="Path 2866" class="cls-16" d="M189.36 330.15s62.09-4.16 64.92 4.61 4.16 36.84 4.3 48-.74 25.25-.74 25.25a19.72 19.72 0 0 1-11.44 0s-2.73-16.19-4.7-24.06-4.06-18.37-2.87-35c0 0-59.5 9-59.83-1.44s10.36-17.36 10.36-17.36z" transform="translate(-141.24 -192.05)"/>
            <path id="Path_2867" data-name="Path 2867" class="cls-10" d="M245.5 343.3s-.64 2.88-4.66 5.67" transform="translate(-141.24 -192.05)"/>
            <path id="Path_2868" data-name="Path 2868" class="cls-6" d="m259.28 404.44-.43 4.2s-7.1 3.81-13.35.29l-1.3-4.13s4.23 2.9 15.08-.36z" transform="translate(-141.24 -192.05)"/>
            <g id="Group_40" data-name="Group 40" transform="translate(102.96 212.39)" style="clip-path:url(#clip-path-9)">
                <path id="Path_2869" data-name="Path 2869" class="cls-39" d="m259.28 404.44-.43 4.2s-7.1 3.81-13.35.29l-1.3-4.13s4.23 2.9 15.08-.36z" transform="translate(-244.2 -404.44)"/>
            </g>
            <path id="Path_2871" data-name="Path 2871" class="cls-10" d="m259.28 404.44-.43 4.2s-7.1 3.81-13.35.29l-1.3-4.13s4.23 2.9 15.08-.36z" transform="translate(-141.24 -192.05)"/>
            <path id="Path_2872" data-name="Path 2872" class="cls-40" d="M256.3 414.52a53.463 53.463 0 0 1 7.48 9.39" transform="translate(-141.24 -192.05)"/>
            <path id="Path_2873" data-name="Path 2873" class="cls-2" d="m200.87 386.35-6.93 14.43s-5.41.52-10.78 8.19l4.71 6.31 3.13-1.08 1.68 9.42s6.82 10.9 10.11 8.85-.63-7.81-.87-17.3c-.07-2.47-.85-9.85-.85-9.85l9.58-13.49z" transform="translate(-141.24 -192.05)"/>
            <path id="Path_2874" data-name="Path 2874" class="cls-28" d="M168 332.49s-8.81 17.6 2.45 19.16 45.68-.44 45.68-.44a174.549 174.549 0 0 0-11.44 21.58c-4.46 10.54-8.91 21.39-8.91 21.39s1.93 5.2 9.8 6.24c0 0 6.39-10 20.35-25.55s17.83-31.2 14.86-36.55-18.42-8.24-43.38-9.39z" transform="translate(-141.24 -192.05)"/>
            <g id="Group_41" data-name="Group 41" transform="translate(23.481 136.88)" style="clip-path:url(#clip-path-10)">
                <path id="Path_2875" data-name="Path 2875" class="cls-26" d="M168 332.49s-8.81 17.6 2.45 19.16 45.68-.44 45.68-.44a174.549 174.549 0 0 0-11.44 21.58c-4.46 10.54-8.91 21.39-8.91 21.39s1.93 5.2 9.8 6.24c0 0 6.39-10 20.35-25.55s17.83-31.2 14.86-36.55-18.42-8.24-43.38-9.39z" transform="translate(-164.721 -328.93)"/>
            </g>
            <path id="Path_2877" data-name="Path 2877" class="cls-16" d="M168 332.49s-8.81 17.6 2.45 19.16 45.68-.44 45.68-.44a174.549 174.549 0 0 0-11.44 21.58c-4.46 10.54-8.91 21.39-8.91 21.39s1.93 5.2 9.8 6.24c0 0 6.39-10 20.35-25.55s17.83-31.2 14.86-36.55-18.42-8.24-43.38-9.39z" transform="translate(-141.24 -192.05)"/>
            <path id="Path_2878" data-name="Path 2878" class="cls-6" d="m208.22 398.93-2.67 3.27s-8-.74-11.29-7.13l1.19-4.16s1.93 4.75 12.77 8.02z" transform="translate(-141.24 -192.05)"/>
            <g id="Group_42" data-name="Group 42" transform="translate(53.02 198.86)" style="clip-path:url(#clip-path-11)">
                <path id="Path_2879" data-name="Path 2879" class="cls-39" d="m208.22 398.93-2.67 3.27s-8-.74-11.29-7.13l1.19-4.16s1.93 4.75 12.77 8.02z" transform="translate(-194.26 -390.91)"/>
            </g>
            <path id="Path_2881" data-name="Path 2881" class="cls-10" d="m208.22 398.93-2.67 3.27s-8-.74-11.29-7.13l1.19-4.16s1.93 4.75 12.77 8.02z" transform="translate(-141.24 -192.05)"/>
            <path id="Path_2882" data-name="Path 2882" class="cls-40" d="M199.7 406.68c.4 2.18 1.15 6.62 1.54 11.41" transform="translate(-141.24 -192.05)"/>
            <path id="Path_2883" data-name="Path 2883" class="cls-4" d="M196.49 227.22s7.65-3.8-.41-8.87-22.15 8.87-22.15 8.87l-1.37 6.51s.59 5.19 2.46 8.2c1.5 2.43 4.17 2.44 5.43 4.85 1.93 3.66 1.29 6.26 3.28 4.66 4.92-4 6.51-19.81 6.51-19.81z" transform="translate(-141.24 -192.05)"/>
            <path id="Path_2884" data-name="Path 2884" class="cls-28" d="m193.54 258.45 1.33-7.8-10.06-8.67-2.84 13.06z" transform="translate(-141.24 -192.05)"/>
            <g id="Group_43" data-name="Group 43" transform="translate(40.73 49.93)" style="clip-path:url(#clip-path-12)">
                <path id="Path_2885" data-name="Path 2885" class="cls-30" d="M183.83 242.89s.82 4.5 3.27 7.33 8.84 6.19 8.84 6.19l.55-5.36-10-7.62-1.68-1.43z" transform="translate(-181.97 -241.98)"/>
            </g>
            <path id="Path_2887" data-name="Path 2887" class="cls-16" d="m193.54 258.45 1.33-7.8-10.06-8.67-2.84 13.06z" transform="translate(-141.24 -192.05)"/>
            <path id="Path_2888" data-name="Path 2888" class="cls-28" d="M196.74 224.47s4.57 8 4.47 10.31c0 0 6 15.75 0 18.34-4.66 2-10.51-1.9-12.8-3.68a6.23 6.23 0 0 1-1.55-1.8l-1.95-3.43s-2.4.69-4.59-2.43.06-6.08 2.47-4.24c0 0 1.82-3.77 1.25-5.85s2.16-2.11 2.28-4.32c.03 0 6.52-.23 10.42-2.9z" transform="translate(-141.24 -192.05)"/>
            <path id="Path_2889" data-name="Path 2889" class="cls-16" d="M196.74 224.47s4.57 8 4.47 10.31c0 0 6 15.75 0 18.34-4.66 2-10.51-1.9-12.8-3.68a6.23 6.23 0 0 1-1.55-1.8l-1.95-3.43s-2.4.69-4.59-2.43.06-6.08 2.47-4.24c0 0 1.82-3.77 1.25-5.85s2.16-2.11 2.28-4.32c.03 0 6.52-.23 10.42-2.9z" transform="translate(-141.24 -192.05)"/>
            <path id="Path_2890" data-name="Path 2890" class="cls-10" d="M195.9 246.06s1.48 2 4.49-.67" transform="translate(-141.24 -192.05)"/>
            <path id="Path_2891" data-name="Path 2891" class="cls-10" d="M198.39 236.73c.55 2.16-.09 4.18-1.43 4.52s-2.87-1.12-3.42-3.27.33-3 1.67-3.33 2.63-.07 3.18 2.08z" transform="translate(-141.24 -192.05)"/>
            <path id="Path_2892" data-name="Path 2892" class="cls-23" d="M204.51 235c.55 2.16.11 4.13-1 4.41s-2.43-1.24-3-3.39.15-2.94 1.24-3.22 2.25 0 2.76 2.2z" transform="translate(-141.24 -192.05)"/>
            <path id="Path_2893" data-name="Path 2893" class="cls-10" d="M192.83 234.59a3 3 0 0 1 4.07-1.36" transform="translate(-141.24 -192.05)"/>
            <path id="Path_2894" data-name="Path 2894" class="cls-10" d="M199.45 232.36a2 2 0 0 1 1.27-1.46" transform="translate(-141.24 -192.05)"/>
            <path id="Path_2895" data-name="Path 2895" class="cls-10" d="m193.54 237.98-2.55 1.03-8.17-1.47" transform="translate(-141.24 -192.05)"/>
            <path id="Line_5" data-name="Line 5" class="cls-10" transform="translate(57.19 43.56)" d="M2.04 0 0 .83"/>
            <path id="Path_2896" data-name="Path 2896" class="cls-24" d="M197.26 237.25c.07.68-.2 1.27-.63 1.32s-.83-.47-.91-1.15.2-1.27.62-1.32.84.46.92 1.15z" transform="translate(-141.24 -192.05)"/>
            <path id="Path_2897" data-name="Path 2897" class="cls-24" d="M202.25 235.44c.08.67-.1 1.23-.41 1.27s-.61-.48-.68-1.14.1-1.23.4-1.26.61.47.69 1.13z" transform="translate(-141.24 -192.05)"/>
            <path id="Path_2898" data-name="Path 2898" class="cls-23" d="m199.94 235.84 4.2 3.69a.86.86 0 0 1-.11 1.37l-2.16 1.35" transform="translate(-141.24 -192.05)"/>
            <path id="Path_2899" data-name="Path 2899" class="cls-4" d="M176.15 227.49s-.74-13.3-11.06-8-.46 20.9-3.55 24.34 2.82 1.9 3.55-.59.13 4.15 1.56 4.39 1.66-5.7 3-5.7-.35 3.7.72 4.11 3.56-7.26 4.27-11.5a66.472 66.472 0 0 1 1.51-7.05z" transform="translate(-141.24 -192.05)"/>
            <path id="Path_2900" data-name="Path 2900" class="cls-1" d="M176.15 225.68s-3.61 4-2.2 14c.05-.02-6.95-10.15 2.2-14z" transform="translate(-141.24 -192.05)"/>
            <path id="Path_2901" data-name="Path 2901" class="cls-2" d="M184.7 227.22s4 1.11 4.55 4.41 2.41-7.58-4.55-4.41z" transform="translate(-141.24 -192.05)"/>
            <path id="Path_2902" data-name="Path 2902" class="cls-2" d="M198 226.51s4.35-1.31 5.65 1.54c-.03 0-.65-6.87-5.65-1.54z" transform="translate(-141.24 -192.05)"/>
            <path id="Path_2903" data-name="Path 2903" class="cls-3" d="M232.34 223.65c.88-.24 1.79.9 1.79.9.94-1.6 2.44 1.06 2.44 1.06 1.26-1.54 1.9 1.83 1.9 1.83s1.33-.31 1.17 1.38c-.21 2.22-2.79 7.3-2.79 7.3l-1.68 8.6-6.29-.74 2-8.25-1.88-3.62a10.37 10.37 0 0 1-1-4.66c.3-2.05 3.46-3.57 4.34-3.8z" transform="translate(-141.24 -192.05)"/>
            <path id="Path_2904" data-name="Path 2904" class="cls-23" d="M232.35 225.71s1.88 3.93 1.65 0c0 0 1.37 4.87 2.24.91 0 0-.53 4.55 1.32 2 0 0-.78 1.36-.43 2s1.34-.41 1.34-.41" transform="translate(-141.24 -192.05)"/>
            <path id="Path_2905" data-name="Path 2905" class="cls-44" d="m201.65 261.24 20.14.42 7.56-21L236 243s-3.41 26.59-6.82 28.17S205 275 205 275s-6.46-7.13-3.35-13.76z" transform="translate(-141.24 -192.05)"/>
            <g id="Group_44" data-name="Group 44" transform="translate(59.563 48.61)" style="clip-path:url(#clip-path-13)">
                <path id="Path_2906" data-name="Path 2906" class="cls-33" d="M208.8 267.27a13.62 13.62 0 0 0-8.52-6.64c3.09 2 4.93 6 6.14 9.27a24.308 24.308 0 0 1 1.11 4.08 66.247 66.247 0 0 0 13-1.32c-3.14-.17-9.21-1.05-11.73-5.39z" transform="translate(-200.803 -240.66)"/>
            </g>
            <path id="Path_2908" data-name="Path 2908" class="cls-16" d="m201.65 261.24 20.14.42 7.56-21L236 243s-3.41 26.59-6.82 28.17S205 275 205 275s-6.46-7.13-3.35-13.76z" transform="translate(-141.24 -192.05)"/>
            <path id="Path_2909" data-name="Path 2909" class="cls-1" d="m228.16 242.28 7.84 2.67.53-3.57-7.42-2.36z" transform="translate(-141.24 -192.05)"/>
            <path id="Path_2910" data-name="Path 2910" class="cls-23" d="M239.16 232.73h0a5.61 5.61 0 0 1-6.73-4.22l-7.77-33.95 11-2.51 7.73 33.95a5.62 5.62 0 0 1-4.23 6.73z" transform="translate(-141.24 -192.05)"/>
            <path id="Rectangle_92" data-name="Rectangle 92" class="cls-6" transform="rotate(-12.84 59.008 -377.636)" d="M0 0h7.24v5.16H0z"/>
            <g id="Group_45" data-name="Group 45" class="cls-46" transform="translate(85.688 2.103)">
                <path id="Rectangle_93" data-name="Rectangle 93" class="cls-8" transform="rotate(-12.84 7.152 .802)" d="M0 0h7.24v5.16H0z"/>
            </g>
            <path id="Rectangle_95" data-name="Rectangle 95" class="cls-6" transform="rotate(-12.84 87.284 -380.892)" d="M0 0h7.24v5.16H0z"/>
            <g id="Group_46" data-name="Group 46" class="cls-46" transform="translate(87.121 8.327)">
                <path id="Rectangle_96" data-name="Rectangle 96" class="cls-47" transform="rotate(-12.84 7.152 .802)" d="M0 0h7.24v5.16H0z"/>
            </g>
            <path id="Rectangle_98" data-name="Rectangle 98" class="cls-6" transform="rotate(-12.84 115.608 -384.102)" d="M0 0h7.24v5.16H0z"/>
            <path id="Rectangle_99" data-name="Rectangle 99" class="cls-6" transform="rotate(-12.84 143.833 -387.315)" d="M0 0h7.24v5.16H0z"/>
            <g id="Group_47" data-name="Group 47" class="cls-46" transform="translate(89.967 20.777)">
                <path id="Rectangle_100" data-name="Rectangle 100" class="cls-33" transform="rotate(-12.84 7.152 .802)" d="M0 0h7.24v5.16H0z"/>
            </g>
            <path id="Rectangle_102" data-name="Rectangle 102" class="cls-6" transform="rotate(-12.84 172.162 -390.524)" d="M0 0h7.24v5.16H0z"/>
            <g id="Group_48" data-name="Group 48" class="cls-46" transform="translate(91.391 27.014)">
                <path id="Rectangle_103" data-name="Rectangle 103" class="cls-48" transform="rotate(-12.84 7.152 .802)" d="M0 0h7.24v5.16H0z"/>
            </g>
            <path id="Path_2911" data-name="Path 2911" class="cls-23" d="M229.66 226.73a1.19 1.19 0 0 1 2.06-.65c1.62 1.19 4 1.58 3.73 2.32s-.89 1.19-3.21.25c0 0-.41.25.17 1a6 6 0 0 1 1.54 2.94" transform="translate(-141.24 -192.05)"/>
            <path id="Path_2912" data-name="Path 2912" class="cls-44" d="m164.16 261.68 6.29 56.24-4 16.91s4.21.95 15.88-2.72 24.16-2.57 24.16-2.57 5.17-37.44 3.1-49.14a46.85 46.85 0 0 0-7.92-19.16s-22.41-9.8-36.1-2.31a2.77 2.77 0 0 0-1.41 2.75z" transform="translate(-141.24 -192.05)"/>
            <g id="Group_49" data-name="Group 49" transform="translate(22.901 64.06)" style="clip-path:url(#clip-path-18)">
                <path id="Path_2913" data-name="Path 2913" d="M176.15 294.19c.47-7-2.65-18.51-2.65-18.51l-2.33.31a131.514 131.514 0 0 0 .18 20.34c.24 2.71 1.67 5.53 1.58 8.22-.08 2.39-1.45 4-2.61 6-.2.34-.38.68-.58 1a4.3 4.3 0 0 1 .63 3c-.13 1.27-.34 2.52-.57 3.76a5.26 5.26 0 0 1-.12 1.87c-.7 2.94-1.32 5.85-1.86 8.82a52 52 0 0 0-1.23 6 63.424 63.424 0 0 0 13.06-1.76 25.079 25.079 0 0 0 5.09-1.83c-16.19 2.39-10.64-8.08-10.15-12.43s16.12-9.66 16.9-14.41-15.82-3.41-15.34-10.38z" transform="translate(-164.141 -256.11)" style="opacity:.12"/>
            </g>
            <path id="Path_2915" data-name="Path 2915" class="cls-16" d="m164.16 261.68 6.29 56.24-4 16.91s4.21.95 15.88-2.72 24.16-2.57 24.16-2.57 5.17-37.44 3.1-49.14a46.85 46.85 0 0 0-7.92-19.16s-22.41-9.8-36.1-2.31a2.77 2.77 0 0 0-1.41 2.75z" transform="translate(-141.24 -192.05)"/>
            <path id="Path_2916" data-name="Path 2916" class="cls-51" d="m178.34 256.41 2.95-5.76a99 99 0 0 0 10.35 2.88c5.67 1.24 4.3 2.88 4.3 2.88l-1.45 4.37s-2.23 2.22-16.15-4.37z" transform="translate(-141.24 -192.05)"/>
            <path id="Path_2917" data-name="Path 2917" class="cls-16" d="M167.38 300s3.21-2.53 4-1.45-.9.72-2.17 4.4" transform="translate(-141.24 -192.05)"/>
            <path id="Path_2918" data-name="Path 2918" class="cls-23" d="M196.16 326.66h0a4.51 4.51 0 0 1 3.57-5.27l27.36-5.26 1.7 8.83-27.36 5.26a4.5 4.5 0 0 1-5.27-3.56z" transform="translate(-141.24 -192.05)"/>
            <path id="Rectangle_105" data-name="Rectangle 105" class="cls-6" transform="rotate(79.1 -33.783 114.27)" d="M0 0h5.8v4.13H0z"/>
            <g id="Group_50" data-name="Group 50" class="cls-52" transform="translate(80.761 125.848)">
                <path id="Rectangle_106" data-name="Rectangle 106" class="cls-8" transform="rotate(79.1 2.028 2.456)" d="M0 0h5.8v4.13H0z"/>
            </g>
            <path id="Rectangle_108" data-name="Rectangle 108" class="cls-6" transform="rotate(79.1 -36.882 111.717)" d="M0 0h5.8v4.13H0z"/>
            <g id="Group_51" data-name="Group 51" class="cls-52" transform="translate(75.74 126.82)">
                <path id="Rectangle_109" data-name="Rectangle 109" class="cls-47" transform="rotate(79.1 2.028 2.456)" d="M0 0h5.8v4.13H0z"/>
            </g>
            <path id="Rectangle_111" data-name="Rectangle 111" class="cls-6" transform="rotate(79.1 -39.976 109.16)" d="M0 0h5.79v4.13H0z"/>
            <path id="Rectangle_112" data-name="Rectangle 112" class="cls-6" transform="rotate(79.1 -43.069 106.601)" d="M0 0h5.79v4.13H0z"/>
            <g id="Group_52" data-name="Group 52" class="cls-53" transform="translate(65.698 128.747)">
                <path id="Rectangle_113" data-name="Rectangle 113" class="cls-33" transform="rotate(79.1 2.028 2.456)" d="M0 0h5.79v4.13H0z"/>
            </g>
            <path id="Rectangle_115" data-name="Rectangle 115" class="cls-6" transform="rotate(79.1 -46.162 104.042)" d="M0 0h5.79v4.13H0z"/>
            <g id="Group_53" data-name="Group 53" class="cls-53" transform="translate(60.677 129.709)">
                <path id="Rectangle_116" data-name="Rectangle 116" class="cls-48" transform="rotate(79.1 2.028 2.456)" d="M0 0h5.79v4.13H0z"/>
            </g>
            <path id="Path_2919" data-name="Path 2919" class="cls-23" d="M197.25 327.84h0a4.5 4.5 0 0 1 .45-6.35l21.06-18.24 5.89 6.8-21.06 18.24a4.49 4.49 0 0 1-6.34-.45z" transform="translate(-141.24 -192.05)"/>
            <path id="Rectangle_118" data-name="Rectangle 118" class="cls-6" transform="rotate(49.1 -85.211 141.448)" d="M0 0h5.79v4.13H0z"/>
            <g id="Group_54" data-name="Group 54" class="cls-54" transform="translate(74.39 113.259)">
                <path id="Rectangle_119" data-name="Rectangle 119" class="cls-8" transform="rotate(49.1 1.56 3.417)" d="M0 0h5.79v4.13H0z"/>
            </g>
            <path id="Rectangle_121" data-name="Rectangle 121" class="cls-6" transform="rotate(49.1 -90.796 138.894)" d="M0 0h5.8v4.13H0z"/>
            <g id="Group_55" data-name="Group 55" class="cls-55" transform="translate(70.532 116.599)">
                <path id="Rectangle_122" data-name="Rectangle 122" class="cls-47" transform="rotate(49.1 1.56 3.417)" d="M0 0h5.8v4.13H0z"/>
            </g>
            <path id="Rectangle_124" data-name="Rectangle 124" class="cls-6" transform="rotate(49.1 -96.402 136.337)" d="M0 0h5.79v4.13H0z"/>
            <path id="Rectangle_125" data-name="Rectangle 125" class="cls-6" transform="rotate(49.1 -102.002 133.79)" d="M0 0h5.79v4.13H0z"/>
            <g id="Group_56" data-name="Group 56" class="cls-54" transform="translate(62.804 123.309)">
                <path id="Rectangle_126" data-name="Rectangle 126" class="cls-33" transform="rotate(49.1 1.56 3.417)" d="M0 0h5.79v4.13H0z"/>
            </g>
            <path id="Rectangle_128" data-name="Rectangle 128" class="cls-6" transform="rotate(49.1 -107.582 131.22)" d="M0 0h5.8v4.13H0z"/>
            <g id="Group_57" data-name="Group 57" class="cls-55" transform="translate(58.935 126.64)">
                <path id="Rectangle_129" data-name="Rectangle 129" class="cls-48" transform="rotate(49.1 1.56 3.417)" d="M0 0h5.8v4.13H0z"/>
            </g>
            <path id="Path_2920" data-name="Path 2920" class="cls-23" d="M198.1 328h0a4.5 4.5 0 0 1-2.77-5.72l9.12-26.28 8.49 2.94-9.12 26.33a4.49 4.49 0 0 1-5.72 2.73z" transform="translate(-141.24 -192.05)"/>
            <path id="Rectangle_131" data-name="Rectangle 131" class="cls-6" transform="rotate(19.1 -282.196 243.874)" d="M0 0h5.8v4.13H0z"/>
            <g id="Group_58" data-name="Group 58" class="cls-56" transform="translate(62.874 105.691)">
                <path id="Rectangle_132" data-name="Rectangle 132" class="cls-8" transform="rotate(19.1 .676 4.02)" d="M0 0h5.8v4.13H0z"/>
            </g>
            <path id="Rectangle_134" data-name="Rectangle 134" class="cls-6" transform="rotate(19.1 -297.381 241.297)" d="M0 0h5.79v4.13H0z"/>
            <g id="Group_59" data-name="Group 59" class="cls-57" transform="translate(61.196 110.515)">
                <path id="Rectangle_135" data-name="Rectangle 135" class="cls-47" transform="rotate(19.1 .676 4.02)" d="M0 0h5.79v4.13H0z"/>
            </g>
            <path id="Rectangle_137" data-name="Rectangle 137" class="cls-6" transform="rotate(19.1 -312.572 238.748)" d="M0 0h5.79v4.13H0z"/>
            <path id="Rectangle_138" data-name="Rectangle 138" class="cls-6" transform="rotate(19.1 -327.792 236.2)" d="M0 0h5.8v4.13H0z"/>
            <g id="Group_60" data-name="Group 60" class="cls-56" transform="translate(57.857 120.179)">
                <path id="Rectangle_139" data-name="Rectangle 139" class="cls-33" transform="rotate(19.1 .676 4.02)" d="M0 0h5.8v4.13H0z"/>
            </g>
            <path id="Rectangle_141" data-name="Rectangle 141" class="cls-6" transform="rotate(19.1 -342.978 233.623)" d="M0 0h5.79v4.13H0z"/>
            <g id="Group_61" data-name="Group 61" class="cls-57" transform="translate(56.179 125.003)">
                <path id="Rectangle_142" data-name="Rectangle 142" class="cls-48" transform="rotate(19.1 .676 4.02)" d="M0 0h5.79v4.13H0z"/>
            </g>
            <path id="Path_2921" data-name="Path 2921" class="cls-3" d="m187.59 311.53 7.58 5.53s8.6 0 10.16 2.35 2 5 .6 5.95.73-2.54-3.16-4.31c0 0 2 9.07-1.47 7.13 0 0-.45 1.54-1.76.13a5 5 0 0 0-.48-3.32 2.37 2.37 0 0 0-1.83-1.44s2.44 3.33.83 4.24c-1.3.73-2-4.06-3.74-4.6a5.34 5.34 0 0 1-4.45-3L184 317z" transform="translate(-141.24 -192.05)"/>
            <path id="Path_2922" data-name="Path 2922" class="cls-10" d="M201.6 326.77a6.52 6.52 0 0 0-1.32-4.73" transform="translate(-141.24 -192.05)"/>
            <path id="Path_2923" data-name="Path 2923" class="cls-10" d="M203.48 319.49s-.16.69-1.72.54c-1.15-.11-2.84 2.21-4.6 1.86" transform="translate(-141.24 -192.05)"/>
            <path id="Path_2924" data-name="Path 2924" class="cls-51" d="M165.8 260.13a.85.85 0 0 0-1.48.2c-1.65 4.24-6.07 18.41-3.69 43.53 0 0 1.91 5.13 24.35 14.93l4.27-6.6-16.59-13.47s2.17-18 .53-24.72" transform="translate(-141.24 -192.05)"/>
            <path id="Path_2925" data-name="Path 2925" class="cls-1" d="m188.26 310.67-5.15 8.34 4.04 1.45 4.34-7.29z" transform="translate(-141.24 -192.05)"/>
        </g>
        <g id="freepik--character-1--inject-2" transform="translate(61.161 331.404)">
            <path id="Path_2926" data-name="Path 2926" class="cls-58" d="M97.94 179.18c.09 2.68.37 10.72.37 10.72l15.94 9.56 1-18.22.55-25 2.62-3.64s3.92-6-2.62-8.33-4.72 2-11.22 2.73-21.74 11-14.84 19.93 8.04 7.77 8.2 12.25z" transform="translate(-61.161 -139.237)"/>
            <g id="Group_62" data-name="Group 62" transform="translate(26.824 4.352)" style="clip-path:url(#clip-path-31)">
                <path id="Path_2927" data-name="Path 2927" class="cls-4" d="M104.05 174.41a7.4 7.4 0 0 0 3.26 1.63s2.47 7 3.71 7.94 5.66 1.69 5.66 1.69l1.3-9.23-9.18-6-5-1.5z" transform="translate(-87.986 -143.588)"/>
            </g>
            <path id="Path_2929" data-name="Path 2929" class="cls-16" d="M97.94 179.18c.09 2.68.37 10.72.37 10.72l15.94 9.56 1-18.22.55-25 2.62-3.64s3.92-6-2.62-8.33-4.72 2-11.22 2.73-21.74 11-14.84 19.93 8.04 7.77 8.2 12.25z" transform="translate(-61.161 -139.237)"/>
            <path id="Path_2930" data-name="Path 2930" class="cls-4" d="m115.79 156.26 2.62-3.64s3.92-6-2.62-8.33-4.72 2-11.22 2.73S82.84 158 89.74 166.93c4.48 5.84 6.54 7.37 7.47 9a3.78 3.78 0 0 1 4.76.55c2.6 2.59 5.25-11.88 5.25-11.88l8.52-6.05z" transform="translate(-61.161 -139.237)"/>
            <path id="Path_2931" data-name="Path 2931" class="cls-58" d="M104.18 165.89s-6.42.17-3 5 7 3.91 7 3.91l3.91 7.45s13.61 1.92 16.82 1-2.34-12.14-2.34-12.14l2.13-2.44a1.31 1.31 0 0 0-.17-1.9l-5.08-4.08c.43-2.51-5.12-10.06-5.12-10.06s-8.24-.09-9 2.69a47.552 47.552 0 0 0-1.13 5l-4.68 1.91z" transform="translate(-61.161 -139.237)"/>
            <g id="Group_63" data-name="Group 63" transform="translate(39.015 13.393)" style="clip-path:url(#clip-path-32)">
                <path id="Path_2932" data-name="Path 2932" class="cls-48" d="m107.31 158.34 1 2s4.12 2.82 4.34 4.34c.28 2-1.85 3.38 2.5 7.63s8.52-.69 11.55-1.21 5.55 7.2 5.55 7.2l-.34 7-16.76.52-3.63-2.25-4.75-8s5.15-.46 2.58-5c-3.56-6.27-7.72-5.38-7.72-5.38l-2.87-2.55 7.38-5.31z" transform="translate(-100.177 -152.63)"/>
            </g>
            <path id="Path_2934" data-name="Path 2934" class="cls-16" d="M104.18 165.89s-6.42.17-3 5 7 3.91 7 3.91l3.91 7.45s13.61 1.92 16.82 1-2.34-12.14-2.34-12.14l2.13-2.44a1.31 1.31 0 0 0-.17-1.9l-5.08-4.08c.43-2.51-5.12-10.06-5.12-10.06s-8.24-.09-9 2.69a47.552 47.552 0 0 0-1.13 5l-4.68 1.91z" transform="translate(-61.161 -139.237)"/>
            <path id="Path_2935" data-name="Path 2935" class="cls-24" d="M122.28 163.35c.26.77.22 1.49-.1 1.6s-.79-.43-1.05-1.21-.21-1.48.1-1.59.77.43 1.05 1.2z" transform="translate(-61.161 -139.237)"/>
            <path id="Path_2936" data-name="Path 2936" class="cls-16" d="M121 159.73s-2.34-.52-3 2.69" transform="translate(-61.161 -139.237)"/>
            <path id="Path_2937" data-name="Path 2937" class="cls-16" d="M125.65 172.67s-.81 2.26-3.9 1.12" transform="translate(-61.161 -139.237)"/>
            <path id="Path_2938" data-name="Path 2938" class="cls-7" d="M182.09 172.24c1 .43 1.08 2.24 1.08 2.24 2.14-.87 1.62 2.87 1.62 2.87 2.39-.57.5 3.24.5 3.24s1.55.7.12 2.24c-1.88 2-8.24 5.1-8.24 5.1l-8.12 7.24-5.65-5.46 8.14-6.67.9-5s.75-3.48 2.55-5.31 6.01-.92 7.1-.49z" transform="translate(-61.161 -139.237)"/>
            <path id="Path_2939" data-name="Path 2939" class="cls-7" d="M180.56 174.28s-1.11 5.3 1.63 1.22c0 0-2.3 5.84 1.53 2.59 0 0-3.95 4.09-.19 2.93 0 0-1.78.76-1.92 1.64s1.63.6 1.63.6" transform="translate(-61.161 -139.237)"/>
            <path id="Path_2940" data-name="Path 2940" class="cls-4" d="M97.54 217s14.47 3.37 45.47-1.2c0 0 23.81-12.44 29.89-23.89l-5.65-6.49L138 201.84s-30.46-4.7-36.1-4z" transform="translate(-61.161 -139.237)"/>
            <path id="Rectangle_144" data-name="Rectangle 144" class="cls-61" transform="rotate(-10.01 105.757 -640.997)" d="M0 0h49.62v36.87H0z"/>
            <path id="Rectangle_145" data-name="Rectangle 145" class="cls-4" transform="rotate(-10.01 117.75 -660.48)" d="M0 0h5.2v3.86H0z"/>
            <path id="Path_2941" data-name="Path 2941" class="cls-6" d="m187.14 174.86 8.46-19.73 14.7 15.64z" transform="translate(-61.161 -139.237)"/>
            <g id="Group_64" data-name="Group 64" transform="translate(125.979 15.893)" style="clip-path:url(#clip-path-33)">
                <path id="Path_2942" data-name="Path 2942" class="cls-18" d="m187.14 174.86 8.46-19.73 14.7 15.64z" transform="translate(-187.14 -155.13)"/>
            </g>
            <path id="Path_2944" data-name="Path 2944" class="cls-10" d="m187.14 174.86 8.46-19.73 14.7 15.64z" transform="translate(-61.161 -139.237)"/>
            <path id="Path_2945" data-name="Path 2945" class="cls-5" d="m202.44 172.16 6.46-15.06 11.23 11.94z" transform="translate(-61.161 -139.237)"/>
            <path id="Path_2946" data-name="Path 2946" class="cls-6" d="M207.11 153.1a3 3 0 1 1-3.47-2.43 3 3 0 0 1 3.47 2.43z" transform="translate(-61.161 -139.237)"/>
            <g id="Group_65" data-name="Group 65" transform="translate(139.995 11.388)" style="clip-path:url(#clip-path-34)">
                <path id="Path_2947" data-name="Path 2947" class="cls-8" d="M207.11 153.1a3 3 0 1 1-3.47-2.43 3 3 0 0 1 3.47 2.43z" transform="translate(-201.156 -150.625)"/>
            </g>
            <path id="Path_2949" data-name="Path 2949" class="cls-10" d="M207.11 153.1a3 3 0 1 1-3.47-2.43 3 3 0 0 1 3.47 2.43z" transform="translate(-61.161 -139.237)"/>
            <path id="Path_2950" data-name="Path 2950" class="cls-7" d="M177.12 172.26a1.48 1.48 0 0 1 2.52.92c.71 2.38 3.78 3.57 2.94 4.08s-2.77 1.51-4.36-1.16c0 0-.59-.06-.55 1.09.05 1.4 0 3.15-.69 4.05" transform="translate(-61.161 -139.237)"/>
            <path id="Path_2951" data-name="Path 2951" class="cls-4" d="M66.62 415.83a28.78 28.78 0 0 0-5.38 11.39A3.14 3.14 0 0 0 63.7 431l20.3 4.14c4.46.92 11.29.73 14.74.56a2.8 2.8 0 0 0 2.66-3.26 5.2 5.2 0 0 0-2.93-3.51c-4.8-2.66-16.21-4.45-20.91-11.66z" transform="translate(-61.161 -139.237)"/>
            <path id="Path_2952" data-name="Path 2952" class="cls-6" d="M127.15 290.94S116.47 320.61 102.8 349c0 0-2.65 12.48-8.62 21l-15 47.89s-6.58 2.71-14.38-2c0 0 3.72-30.64 13.23-52.87l5.61-17.61 7-35.46s-5.93-10.26-4.35-25.32l26.33-.36z" transform="translate(-61.161 -139.237)"/>
            <g id="Group_66" data-name="Group 66" transform="translate(3.639 145.033)" style="clip-path:url(#clip-path-35)">
                <path id="Path_2953" data-name="Path 2953" class="cls-33" d="M93.34 286.3c-1.77 1-3.45 2.13-5.25 3.07a23.275 23.275 0 0 0-2.71 1.53c.06 0-.06.09-.18.2a2.221 2.221 0 0 1 0 .49 3.719 3.719 0 0 1-.26.88 4.34 4.34 0 0 1 1.29 3.53 7.991 7.991 0 0 1-.08 1.38l.13.2a14.9 14.9 0 0 1 1.17 4.08 24.6 24.6 0 0 0 2.07 6.05 6.442 6.442 0 0 1 .45 1.39l.67.85s6.48 43.36 11.31 42.39 8-24.07 8-24.07z" transform="translate(-64.8 -284.27)"/>
            </g>
            <path id="Path_2955" data-name="Path 2955" class="cls-20" d="M127.15 290.94S116.47 320.61 102.8 349c0 0-2.65 12.48-8.62 21l-15 47.89s-6.58 2.71-14.38-2c0 0 3.72-30.64 13.23-52.87l5.61-17.61 7-35.46s-5.93-10.26-4.35-25.32l26.33-.36z" transform="translate(-61.161 -139.237)"/>
            <path id="Path_2956" data-name="Path 2956" class="cls-4" d="M112 420.59s-3.2 4.27-3.37 11.89a3.34 3.34 0 0 0 3.35 3.37h22c4.83 0 11.88-1.65 15.43-2.56a3 3 0 0 0 2.07-4 5.58 5.58 0 0 0-3.79-3c-5.56-1.73-17.79-1.16-24.21-7.65z" transform="translate(-61.161 -139.237)"/>
            <path id="Path_2957" data-name="Path 2957" class="cls-20" d="M125.25 281.8s4.41 31.91 0 63.14c0 0 .27 13-2.85 22.9l2.49 51.27s-5.35 4.16-14.2 2.08c0 0-9.11-32.27-7-55.43l-1-18.48L95.6 309s-8.13-6-11.19-20.82l25-8.33z" transform="translate(-61.161 -139.237)"/>
            <path id="Path_2958" data-name="Path 2958" class="cls-4" d="M95.86 189.05s-10.93 8.33-12.5 29.15-4.94 64.28 1.83 75.73c0 0 6.5-11.69 41.64-7 0 0 3.64-17.44-1.83-51.53s-11.71-42.7-29.14-46.35z" transform="translate(-61.161 -139.237)"/>
            <path id="Path_2959" data-name="Path 2959" class="cls-4" d="m95.86 190.09 1-6.5a24.37 24.37 0 0 1 14.31 5.59c4.65 3.92 6.12 7.68 2.73 12.1l-18.04-10.41z" transform="translate(-61.161 -139.237)"/>
            <path id="Path_2960" data-name="Path 2960" class="cls-27" d="M113.66 198.84c-3.81-4.93-8.68-7.56-15.28-9.23" transform="translate(-61.161 -139.237)"/>
            <path id="Path_2961" data-name="Path 2961" class="cls-27" d="M122.1 219.58c-1.85-7.82-3.93-13.62-6.55-18" transform="translate(-61.161 -139.237)"/>
            <path id="Rectangle_146" data-name="Rectangle 146" class="cls-61" transform="rotate(-.08 89437.825 -29464.95)" d="M0 0h49.62v36.87H0z"/>
            <path id="Rectangle_147" data-name="Rectangle 147" class="cls-4" transform="rotate(-.08 91141.117 -31765.62)" d="M0 0h5.2v3.86H0z"/>
            <path id="Path_2962" data-name="Path 2962" class="cls-6" d="m110.48 292.93 11.74-17.98L134 292.89z" transform="translate(-61.161 -139.237)"/>
            <g id="Group_67" data-name="Group 67" transform="translate(49.319 135.713)" style="clip-path:url(#clip-path-36)">
                <path id="Path_2963" data-name="Path 2963" class="cls-18" d="m110.48 292.93 11.74-17.98L134 292.89z" transform="translate(-110.48 -274.95)"/>
            </g>
            <path id="Path_2965" data-name="Path 2965" class="cls-10" d="m110.48 292.93 11.74-17.98L134 292.89z" transform="translate(-61.161 -139.237)"/>
            <path id="Path_2966" data-name="Path 2966" class="cls-5" d="m126.02 292.91 8.96-13.73 9 13.7z" transform="translate(-61.161 -139.237)"/>
            <path id="Path_2967" data-name="Path 2967" class="cls-6" d="M133.91 274.93a3 3 0 1 1-3-3 3 3 0 0 1 3 3z" transform="translate(-61.161 -139.237)"/>
            <g id="Group_68" data-name="Group 68" transform="translate(66.749 132.693)" style="clip-path:url(#clip-path-37)">
                <path id="Path_2968" data-name="Path 2968" class="cls-8" d="M133.91 274.93a3 3 0 1 1-3-3 3 3 0 0 1 3 3z" transform="translate(-127.91 -271.93)"/>
            </g>
            <path id="Path_2970" data-name="Path 2970" class="cls-10" d="M133.91 274.93a3 3 0 1 1-3-3 3 3 0 0 1 3 3z" transform="translate(-61.161 -139.237)"/>
            <path id="Rectangle_148" data-name="Rectangle 148" class="cls-23" transform="rotate(-7.48 1000.243 -234.531)" d="M0 0h49.62v36.87H0z"/>
            <path id="Rectangle_149" data-name="Rectangle 149" class="cls-4" transform="rotate(-7.48 1016.888 -260.367)" d="M0 0h5.2v3.86H0z"/>
            <path id="Path_2971" data-name="Path 2971" class="cls-6" d="m111.96 295 9.33-19.34 14 16.27z" transform="translate(-61.161 -139.237)"/>
            <g id="Group_69" data-name="Group 69" transform="translate(50.799 136.423)" style="clip-path:url(#clip-path-38)">
                <path id="Path_2972" data-name="Path 2972" class="cls-18" d="m111.96 295 9.33-19.34 14 16.27z" transform="translate(-111.96 -275.66)"/>
            </g>
            <path id="Path_2974" data-name="Path 2974" class="cls-10" d="m111.96 295 9.33-19.34 14 16.27z" transform="translate(-61.161 -139.237)"/>
            <path id="Path_2975" data-name="Path 2975" class="cls-5" d="m127.37 292.97 7.12-14.76 10.69 12.42z" transform="translate(-61.161 -139.237)"/>
            <path id="Path_2976" data-name="Path 2976" class="cls-6" d="M132.88 274.13a3 3 0 1 1-3.37-2.58 3 3 0 0 1 3.37 2.58z" transform="translate(-61.161 -139.237)"/>
            <g id="Group_70" data-name="Group 70" transform="translate(65.744 132.287)" style="clip-path:url(#clip-path-39)">
                <path id="Path_2977" data-name="Path 2977" class="cls-8" d="M132.88 274.13a3 3 0 1 1-3.37-2.58 3 3 0 0 1 3.37 2.58z" transform="translate(-126.906 -271.523)"/>
            </g>
            <path id="Path_2979" data-name="Path 2979" class="cls-10" d="M132.88 274.13a3 3 0 1 1-3.37-2.58 3 3 0 0 1 3.37 2.58z" transform="translate(-61.161 -139.237)"/>
            <path id="Path_2980" data-name="Path 2980" class="cls-7" d="m120.51 281.8 5.25 7.48 6 1.39c2.46.57 3.76 1.11 4.7 3.47.67 1.69.22 2.21-1 2.65 0 0 3.58 6.87-.15 6.2 0 0 .31 3.15-3.41 2 0 0-1.19 2.13-3.77.4 0 0-2 1.53-4.78-3.64l-4-7.36-5.89-6.64z" transform="translate(-61.161 -139.237)"/>
            <path id="Path_2981" data-name="Path 2981" class="cls-7" d="M135 300.77s.5 2.08-1.55 2-1.68 2-6.47 1.27" transform="translate(-61.161 -139.237)"/>
            <path id="Path_2982" data-name="Path 2982" class="cls-4" d="M92.21 207s-5.2 15.61-2.34 50c0 0 12.81 27.06 25.92 34.61l8.17-6.77-15.87-32.27s8.12-33.05 7.7-39.29" transform="translate(-61.161 -139.237)"/>
            <path id="Path_2983" data-name="Path 2983" class="cls-27" d="M113.93 226.7c1.19-6 2-11.3 1.91-13.44" transform="translate(-61.161 -139.237)"/>
            <path id="Path_2984" data-name="Path 2984" class="cls-27" d="m109 254.28-.85-1.73s3-12.23 5.26-23.22" transform="translate(-61.161 -139.237)"/>
            <path id="Line_6" data-name="Line 6" class="cls-27" transform="translate(48.879 117.183)" d="M3.36 6.84 0 0"/>
            <path id="Path_2985" data-name="Path 2985" class="cls-27" d="M89.64 253.29c.08 1.21.17 2.43.28 3.69a155.328 155.328 0 0 0 10.63 18.44" transform="translate(-61.161 -139.237)"/>
            <path id="Path_2986" data-name="Path 2986" class="cls-27" d="M92.26 207s-4.53 13.61-2.81 43.36" transform="translate(-61.161 -139.237)"/>
        </g>
        <g id="freepik--Tool--inject-2" transform="translate(518.295 68.072)">
            <path id="Path_2987" data-name="Path 2987" class="cls-16" d="M424.84 150.6a107.08 107.08 0 0 0-6-25.76" transform="translate(-363.155 -68.072)"/>
            <path id="Path_2988" data-name="Path 2988" class="cls-16" d="M394.07 86.12a.861.861 0 0 1 .13.14" transform="translate(-363.155 -68.072)"/>
            <path id="Path_2989" data-name="Path 2989" class="cls-16" d="M391.25 83.48c-.45-.41-.9-.8-1.35-1.18h0c-11.14-9.57-19.84-11.7-23.49-12.18" transform="translate(-363.155 -68.072)"/>
            <path id="Rectangle_150" data-name="Rectangle 150" class="cls-16" transform="rotate(-26.03 2.373 .548)" d="M0 0h2.5v2.5H0z"/>
            <path id="Rectangle_151" data-name="Rectangle 151" class="cls-16" transform="rotate(-26.03 210.248 -88.388)" d="M0 0h2.5v2.5H0z"/>
            <path id="Path_2990" data-name="Path 2990" class="cls-4" d="m406 97.81 1.33 1.34a.91.91 0 0 1-.26.44.93.93 0 0 1-.42.26l-1.35-1.36-11.81-11.77.68-.7z" transform="translate(-363.155 -68.072)"/>
            <path id="Path_2991" data-name="Path 2991" class="cls-4" d="M407.59 98.08a1.41 1.41 0 0 1 .35 1.44 1.3 1.3 0 0 1-.34.6 1.52 1.52 0 0 1-.57.34 1.436 1.436 0 0 1-1.82-1.82 1.42 1.42 0 0 1 .35-.57 1.28 1.28 0 0 1 .59-.35 1.42 1.42 0 0 1 1.44.36z" transform="translate(-363.155 -68.072)"/>
            <path id="Line_7" data-name="Line 7" class="cls-16" transform="translate(16.345 3.918)" d="M11.59 11.49 0 0"/>
            <path id="Path_2992" data-name="Path 2992" class="cls-16" d="M379.72 70.72a1.12 1.12 0 1 1-.637-.584 1.12 1.12 0 0 1 .637.584z" transform="translate(-363.155 -68.072)"/>
            <path id="Path_2993" data-name="Path 2993" class="cls-16" d="m394.22 83.48-.02 2.5-.13.14-.15.16-.53.54-2.51-.02.01-3.32z" transform="translate(-363.155 -68.072)"/>
            <path id="Path_2994" data-name="Path 2994" d="M394.2 85.98v.84h-.81l.53-.54.15-.16z" transform="translate(-363.155 -68.072)" style="stroke:#5c5c5c;stroke-miterlimit:10;fill:none"/>
            <path id="Path_2995" data-name="Path 2995" class="cls-16" d="m416.84 92.3 4.2 11.06-9.76 9.78-11.06-4.16-7.82-21.17 1.52-1.53.15-.16 1.57-1.57z" transform="translate(-363.155 -68.072)"/>
            <path id="Path_2996" data-name="Path 2996" class="cls-16" d="m434.06 110.38-14.9 14.93-7.88-12.16 9.76-9.79z" transform="translate(-363.155 -68.072)"/>
            <path id="Path_2997" data-name="Path 2997" class="cls-16" d="m416.14 112.03 6.01-6.03 5.6 2.99" transform="translate(-363.155 -68.072)"/>
            <path id="Line_8" data-name="Line 8" class="cls-16" transform="translate(51.115 45.228)" d="M0 .61.6 0"/>
        </g>
        <g id="freepik--light-bulb--inject-2" transform="translate(74.3 63.65)">
            <path id="Path_2998" data-name="Path 2998" class="cls-16" d="M125.89 96a15.429 15.429 0 1 0-28.662 11.431c2.292 5.739 8.412 7.8 13.112 11.189 1.46 1.06 3.46 6.36 3.46 6.36l12.2-4.84s-2.2-5.22-1.86-7c1.02-5.68 4.04-11.39 1.75-17.14z" transform="translate(-74.3 -63.65)"/>
            <path id="Path_2999" data-name="Path 2999" class="cls-16" d="M.03 0h13.09v.34a3.41 3.41 0 0 1-3.44 3.41H3.41A3.41 3.41 0 0 1 0 .34V0z" transform="rotate(-21.72 181.913 -72.66)"/>
            <path id="Path_3000" data-name="Path 3000" d="M.03 0h13.09v.34a3.41 3.41 0 0 1-3.44 3.41H3.41A3.41 3.41 0 0 1 0 .34V0z" transform="rotate(-21.72 181.913 -72.66)" style="opacity:.5;fill:none;stroke-linecap:round;stroke-linejoin:round;stroke:#263238"/>
            <path id="Path_3001" data-name="Path 3001" class="cls-16" d="M0 0h6.12v.28a2.78 2.78 0 0 1-2.78 2.78h-.55A2.78 2.78 0 0 1 .01.28V0z" transform="rotate(-21.73 192.136 -84.057)"/>
            <path id="Path_3002" data-name="Path 3002" d="M0 0h6.12v.28a2.78 2.78 0 0 1-2.78 2.78h-.55A2.78 2.78 0 0 1 .01.28V0z" transform="rotate(-21.73 192.136 -84.057)" style="opacity:.2;fill:none;stroke-linecap:round;stroke-linejoin:round;stroke:#263238"/>
            <path id="Line_9" data-name="Line 9" class="cls-16" transform="translate(28.82 5.33)" d="m0 0 3.53 13.2"/>
            <path id="Line_10" data-name="Line 10" class="cls-16" transform="translate(27.39)" d="m0 0 .72 2.69"/>
            <path id="Line_11" data-name="Line 11" class="cls-16" transform="translate(0 43.82)" d="M13.51 0 0 3.62"/>
            <path id="Line_12" data-name="Line 12" class="cls-16" transform="translate(16.24 42.48)" d="M2.29 0 0 .61"/>
            <path id="Line_13" data-name="Line 13" class="cls-16" transform="translate(56.3 28.56)" d="M14.14 0 0 3.79"/>
            <path id="Line_14" data-name="Line 14" class="cls-16" transform="translate(72.81 27.39)" d="M2.01 0 0 .54"/>
            <path id="Line_15" data-name="Line 15" class="cls-16" transform="translate(18.05 54.35)" d="M9.59 0 0 16.61"/>
            <path id="Line_16" data-name="Line 16" class="cls-16" transform="translate(47.19 3.87)" d="M9.59 0 0 16.61"/>
            <path id="Line_17" data-name="Line 17" class="cls-16" transform="translate(3.87 18.05)" d="M16.6 9.59 0 0"/>
            <path id="Line_18" data-name="Line 18" class="cls-16" transform="translate(54.35 47.19)" d="M2.52 1.46 0 0"/>
            <path id="Line_19" data-name="Line 19" class="cls-16" transform="translate(59.17 49.98)" d="M11.79 6.8 0 0"/>
        </g>
    </g>
</svg>
