<svg id="Development-pana" xmlns="http://www.w3.org/2000/svg" width="1912.71" height="732.919" viewBox="0 0 1912.71 732.919">
    <defs>
        <style>
            .cls-1{fill:#f5f5f5}.cls-2{fill:#e0e0e0}.cls-3{fill:#fff}.cls-5{fill:#4ab19a}.cls-6{fill:#fafafa}.cls-7{fill:#217d68}.cls-8{fill:#263238}.cls-9{fill:#455a64}.cls-10{fill:#ff725e}.cls-11{fill:#ebebeb}.cls-12{opacity:.4}.cls-13{opacity:.3}.cls-14{fill:#ffbe9d}.cls-15{fill:#eb996e}.cls-19{fill:#f6d546;stroke:#707070}
        </style>
    </defs>
    <g id="freepik--background-complete--inject-104" transform="translate(30.37)">
        <path id="Path_2525" data-name="Path 2525" class="cls-1" d="M255.46 275.21H92.48l12.05-116.1h164.36z" transform="translate(96.295 -159.11)"/>
        <path id="Path_2526" data-name="Path 2526" class="cls-2" d="M110.4 255.73c-.15 0 1.54-17.48 3.76-39s4.14-39 4.28-39-1.54 17.47-3.76 39-4.14 39.01-4.28 39z" transform="translate(-103.37 202.763)"/>
        <path id="Path_2527" data-name="Path 2527" class="cls-2" d="M140.07 181.68a65.35 65.35 0 0 1-8.18.26 65.347 65.347 0 0 1-8.18-.26 63.125 63.125 0 0 1 8.18-.26 63.128 63.128 0 0 1 8.18.26z" transform="translate(-103.37 191.375)"/>
        <path id="Path_2528" data-name="Path 2528" class="cls-2" d="M209.68 181.68c0 .14-14.59.26-32.58.26s-32.59-.12-32.59-.26 14.59-.26 32.59-.26 32.58.11 32.58.26z" transform="translate(-103.37 191.375)"/>
        <path id="Path_2529" data-name="Path 2529" class="cls-2" d="M138.14 222.93a63.128 63.128 0 0 1-8.18.26 63.128 63.128 0 0 1-8.18-.26 65.35 65.35 0 0 1 8.18-.26 65.35 65.35 0 0 1 8.18.26z" transform="translate(-103.37 202.16)"/>
        <path id="Path_2530" data-name="Path 2530" class="cls-2" d="M207.75 222.93c0 .15-14.59.26-32.58.26s-32.59-.11-32.59-.26 14.59-.26 32.59-.26 32.58.12 32.58.26z" transform="translate(-103.37 202.157)"/>
        <path id="Path_2531" data-name="Path 2531" class="cls-2" d="M185.55 242c0 .15-14.59.26-32.58.26s-32.59-.11-32.59-.26 14.59-.26 32.59-.26 32.58.07 32.58.26z" transform="translate(-103.37 207.142)"/>
        <path id="Path_2532" data-name="Path 2532" class="cls-2" d="M147.28 193.33c0 .14-5.15.26-11.51.26s-11.51-.12-11.51-.26 5.16-.27 11.51-.27 11.51.12 11.51.27z" transform="translate(-103.37 194.419)"/>
        <path id="Path_2533" data-name="Path 2533" class="cls-2" d="M146.7 210.4c0 .15-5.16.26-11.51.26s-11.51-.11-11.51-.26 5.15-.26 11.51-.26 11.51.12 11.51.26z" transform="translate(-103.37 198.882)"/>
        <path id="Path_2534" data-name="Path 2534" class="cls-2" d="M166.16 234.81c0 .14-5.16.26-11.51.26s-11.51-.12-11.51-.26 5.15-.26 11.51-.26 11.51.11 11.51.26z" transform="translate(-103.37 205.263)"/>
        <path id="Path_2535" data-name="Path 2535" class="cls-2" d="M231 193.33c0 .14-13.16.26-29.4.26s-29.41-.12-29.41-.26 13.17-.27 29.41-.27 29.4.12 29.4.27z" transform="translate(-103.37 194.419)"/>
        <path id="Path_2536" data-name="Path 2536" class="cls-2" d="M212.87 211.39c0 .15-13.16.26-29.4.26s-29.4-.11-29.4-.26 13.16-.26 29.4-.26 29.4.12 29.4.26z" transform="translate(-103.37 199.141)"/>
        <path id="Path_2537" data-name="Path 2537" class="cls-2" d="M233.11 234.81c0 .14-13.17.26-29.4.26s-29.41-.12-29.41-.26 13.17-.26 29.41-.26 29.4.11 29.4.26z" transform="translate(-103.37 205.263)"/>
        <path id="Path_2538" data-name="Path 2538" class="cls-2" d="M179.42 255.73c0 .14-13.17.26-29.41.26s-29.4-.12-29.4-.26 13.16-.26 29.4-.26 29.41.11 29.41.26z" transform="translate(-103.37 210.731)"/>
        <path id="Path_2539" data-name="Path 2539" class="cls-2" d="M244.45 255.73c0 .14-13.17.26-29.4.26s-29.41-.12-29.41-.26 13.16-.26 29.41-.26 29.4.11 29.4.26z" transform="translate(120.735 210.731)"/>
        <path id="Path_2540" data-name="Path 2540" class="cls-2" d="M179.41 262.53c0 .15-13.16.26-29.4.26s-29.41-.11-29.41-.26 13.17-.26 29.41-.26 29.4.12 29.4.26z" transform="translate(-103.37 212.509)"/>
        <path id="Path_2541" data-name="Path 2541" class="cls-2" d="M182.27 198.23c0 .14-13.16.26-29.4.26s-29.41-.12-29.41-.26 13.17-.26 29.41-.26 29.4.11 29.4.26z" transform="translate(-103.37 195.701)"/>
        <path id="Path_2542" data-name="Path 2542" class="cls-2" d="M166.59 193.39a56 56 0 0 1-7.57.26 56.133 56.133 0 0 1-7.58-.26 54.23 54.23 0 0 1 7.58-.26 54.134 54.134 0 0 1 7.57.26z" transform="translate(-103.37 194.436)"/>
        <path id="Path_2543" data-name="Path 2543" class="cls-2" d="M136.22 228.54a56.131 56.131 0 0 1-7.58.26 56 56 0 0 1-7.57-.26 56.005 56.005 0 0 1 7.57-.26 56.13 56.13 0 0 1 7.58.26z" transform="translate(-103.37 203.626)"/>
        <path id="Path_2544" data-name="Path 2544" class="cls-2" d="M135.86 234.81a56 56 0 0 1-7.57.26 56.129 56.129 0 0 1-7.58-.26 54.23 54.23 0 0 1 7.58-.26 54.129 54.129 0 0 1 7.57.26z" transform="translate(-103.37 205.265)"/>
        <path id="Path_2545" data-name="Path 2545" class="cls-2" d="M267.09 171.39c0 .15-36.65.26-81.85.26s-81.87-.11-81.87-.26 36.65-.26 81.87-.26 81.85.12 81.85.26z" transform="translate(-103.37 188.685)"/>
        <circle id="Ellipse_17" data-name="Ellipse 17" class="cls-3" cx="1.94" cy="1.94" r="1.94" transform="translate(9.11 351.172)"/>
        <circle id="Ellipse_18" data-name="Ellipse 18" class="cls-3" cx="1.94" cy="1.94" r="1.94" transform="translate(17.44 351.172)"/>
        <circle id="Ellipse_19" data-name="Ellipse 19" class="cls-3" cx="1.94" cy="1.94" r="1.94" transform="translate(25.77 351.172)"/>
        <path id="Path_2546" data-name="Path 2546" class="cls-1" d="M678.65 217.16H515.67l12.05-116.09h164.36z" transform="translate(879.959 -8.897)"/>
        <path id="Path_2547" data-name="Path 2547" class="cls-2" d="M533.59 197.68c-.14 0 1.54-17.48 3.76-39s4.14-39 4.28-38.94-1.54 17.47-3.76 39-4.14 38.95-4.28 38.94z" transform="translate(862.602 185.419)"/>
        <path id="Path_2548" data-name="Path 2548" class="cls-2" d="M563.26 123.63a128.806 128.806 0 0 1-16.36 0 128.808 128.808 0 0 1 16.36 0z" transform="translate(905.934 176.201)"/>
        <path id="Path_2549" data-name="Path 2549" class="cls-2" d="M632.88 123.63c0 .14-14.59.26-32.59.26s-32.59-.12-32.59-.26 14.59-.26 32.59-.26 32.59.12 32.59.26z" transform="translate(1192.05 176.201)"/>
        <path id="Path_2550" data-name="Path 2550" class="cls-2" d="M561.34 164.89a129 129 0 0 1-16.37 0 129 129 0 0 1 16.37 0z" transform="translate(901.665 186.986)"/>
        <path id="Path_2551" data-name="Path 2551" class="cls-2" d="M631 164.89c0 .14-14.59.26-32.59.26s-32.59-.12-32.59-.26 14.59-.26 32.59-.26 32.59.11 32.59.26z" transform="translate(1192.05 186.986)"/>
        <path id="Path_2552" data-name="Path 2552" class="cls-2" d="M608.75 183.91c0 .14-14.59.26-32.59.26s-32.59-.12-32.59-.26 14.59-.26 32.59-.26 32.59.11 32.59.26z" transform="translate(1192.05 191.958)"/>
        <path id="Path_2553" data-name="Path 2553" class="cls-2" d="M570.48 135.28c0 .14-5.16.26-11.51.26s-11.51-.12-11.51-.26 5.15-.28 11.54-.28 11.48.13 11.48.28z" transform="translate(918.85 179.244)"/>
        <path id="Path_2554" data-name="Path 2554" class="cls-2" d="M569.89 152.35c0 .15-5.15.26-11.51.26s-11.51-.11-11.51-.26 5.15-.26 11.51-.26 11.51.12 11.51.26z" transform="translate(917.525 183.708)"/>
        <path id="Path_2555" data-name="Path 2555" class="cls-2" d="M589.35 176.76c0 .14-5.15.26-11.51.26s-11.51-.12-11.51-.26 5.15-.26 11.51-.26 11.51.12 11.51.26z" transform="translate(1140.298 190.089)"/>
        <path id="Path_2556" data-name="Path 2556" class="cls-2" d="M654.22 135.28c0 .14-13.17.26-29.41.26s-29.4-.12-29.4-.26 13.16-.26 29.4-.26 29.41.11 29.41.26z" transform="translate(1192.05 179.246)"/>
        <path id="Path_2557" data-name="Path 2557" class="cls-2" d="M636.07 153.34c0 .15-13.17.26-29.41.26s-29.4-.11-29.4-.26 13.16-.26 29.4-.26 29.41.12 29.41.26z" transform="translate(1192.05 183.967)"/>
        <path id="Path_2558" data-name="Path 2558" class="cls-2" d="M656.3 176.76c0 .14-13.16.26-29.4.26s-29.4-.12-29.4-.26 13.16-.26 29.4-.26 29.4.12 29.4.26z" transform="translate(1192.05 190.089)"/>
        <path id="Path_2559" data-name="Path 2559" class="cls-2" d="M602.61 197.68c0 .14-13.17.26-29.4.26s-29.41-.12-29.41-.26 13.16-.26 29.41-.26 29.4.11 29.4.26z" transform="translate(1192.05 195.557)"/>
        <path id="Path_2560" data-name="Path 2560" class="cls-2" d="M667.64 197.68c0 .14-13.16.26-29.4.26s-29.41-.12-29.41-.26 13.17-.26 29.41-.26 29.4.11 29.4.26z" transform="translate(1192.05 195.557)"/>
        <path id="Path_2561" data-name="Path 2561" class="cls-2" d="M602.6 204.48c0 .15-13.16.26-29.4.26s-29.4-.11-29.4-.26 13.16-.26 29.4-.26 29.4.12 29.4.26z" transform="translate(1192.05 197.335)"/>
        <path id="Path_2562" data-name="Path 2562" class="cls-2" d="M605.47 140.18c0 .14-13.17.26-29.41.26s-29.4-.12-29.4-.26 13.16-.26 29.4-.26 29.41.08 29.41.26z" transform="translate(1192.05 180.527)"/>
        <path id="Path_2563" data-name="Path 2563" class="cls-2" d="M589.78 135.34a110.329 110.329 0 0 1-15.14 0 110.329 110.329 0 0 1 15.14 0z" transform="translate(1192.05 179.262)"/>
        <path id="Path_2564" data-name="Path 2564" class="cls-2" d="M559.41 170.49a110.483 110.483 0 0 1-15.15 0 110.476 110.476 0 0 1 15.15 0z" transform="translate(897.993 188.45)"/>
        <path id="Path_2565" data-name="Path 2565" class="cls-2" d="M559.05 176.76a110.332 110.332 0 0 1-15.14 0 110.34 110.34 0 0 1 15.14 0z" transform="translate(897.2 190.089)"/>
        <path id="Path_2566" data-name="Path 2566" class="cls-2" d="M690.29 113.34c0 .15-36.66.26-81.86.26s-81.86-.11-81.86-.26 36.64-.26 81.86-.26 81.86.12 81.86.26z" transform="translate(1192.05 173.511)"/>
        <circle id="Ellipse_20" data-name="Ellipse 20" class="cls-3" cx="1.94" cy="1.94" r="1.94" transform="translate(1396.041 277.865)"/>
        <circle id="Ellipse_21" data-name="Ellipse 21" class="cls-3" cx="1.94" cy="1.94" r="1.94" transform="translate(1422.484 277.865)"/>
        <circle id="Ellipse_22" data-name="Ellipse 22" class="cls-3" cx="1.94" cy="1.94" r="1.94" transform="translate(1448.928 277.865)"/>
        <path id="Path_2567" data-name="Path 2567" class="cls-1" d="M336.82 141.36H235.31l7.5-72.31h102.37z" transform="translate(334.277 117.755)"/>
        <path id="Path_2568" data-name="Path 2568" class="cls-2" d="M246.47 129.22c-.14 0 .86-10.89 2.24-24.29s2.62-24.26 2.77-24.25-.86 10.9-2.25 24.3-2.62 24.26-2.76 24.24z" transform="translate(232.134 170.16)"/>
        <path id="Path_2569" data-name="Path 2569" class="cls-2" d="M265 83.1a50.05 50.05 0 0 1-10.19 0 50.049 50.049 0 0 1 10.19 0z" transform="translate(253.425 165.607)"/>
        <path id="Path_2570" data-name="Path 2570" class="cls-2" d="M308.31 83.1c0 .15-9.09.26-20.3.26s-20.3-.11-20.3-.26 9.09-.26 20.3-.26 20.3.16 20.3.26z" transform="translate(302.727 165.607)"/>
        <path id="Path_2571" data-name="Path 2571" class="cls-2" d="M263.75 108.8a50.05 50.05 0 0 1-10.19 0 50.05 50.05 0 0 1 10.19 0z" transform="translate(250.677 172.325)"/>
        <path id="Path_2572" data-name="Path 2572" class="cls-2" d="M307.11 108.8c0 .14-9.09.26-20.3.26s-20.3-.12-20.3-.26 9.09-.26 20.3-.26 20.3.12 20.3.26z" transform="translate(299.946 172.325)"/>
        <path id="Path_2573" data-name="Path 2573" class="cls-2" d="M293.28 120.64c0 .15-9.09.26-20.3.26s-20.29-.11-20.29-.26 9.08-.26 20.29-.26 20.3.12 20.3.26z" transform="translate(267.914 175.42)"/>
        <path id="Path_2574" data-name="Path 2574" class="cls-2" d="M269.44 90.36a50.281 50.281 0 0 1-7.17.26 50.082 50.082 0 0 1-7.16-.26 48.379 48.379 0 0 1 7.16-.26 48.581 48.581 0 0 1 7.17.26z" transform="translate(256.612 167.502)"/>
        <path id="Path_2575" data-name="Path 2575" class="cls-2" d="M269.08 101a48.58 48.58 0 0 1-7.17.26 48.58 48.58 0 0 1-7.17-.26 50.282 50.282 0 0 1 7.17-.26 50.281 50.281 0 0 1 7.17.26z" transform="translate(255.799 170.285)"/>
        <path id="Path_2576" data-name="Path 2576" class="cls-2" d="M281.2 116.19a48.579 48.579 0 0 1-7.17.26 48.58 48.58 0 0 1-7.17-.26 50.281 50.281 0 0 1 7.17-.26 50.28 50.28 0 0 1 7.17.26z" transform="translate(282.625 174.256)"/>
        <path id="Path_2577" data-name="Path 2577" class="cls-2" d="M321.6 90.36c0 .14-8.2.26-18.31.26S285 90.5 285 90.36s8.2-.26 18.32-.26 18.28.11 18.28.26z" transform="translate(339.623 167.505)"/>
        <path id="Path_2578" data-name="Path 2578" class="cls-2" d="M310.29 101.61c0 .14-8.2.26-18.31.26s-18.31-.12-18.31-.26 8.2-.26 18.31-.26 18.31.12 18.31.26z" transform="translate(313.569 170.445)"/>
        <path id="Path_2579" data-name="Path 2579" class="cls-2" d="M322.9 116.19c0 .15-8.2.26-18.31.26s-18.32-.11-18.32-.26 8.2-.26 18.32-.26 18.31.12 18.31.26z" transform="translate(342.569 174.256)"/>
        <path id="Path_2580" data-name="Path 2580" class="cls-2" d="M289.46 129.22c0 .15-8.2.26-18.32.26s-18.31-.11-18.31-.26 8.2-.26 18.31-.26 18.32.12 18.32.26z" transform="translate(265.624 177.662)"/>
        <path id="Path_2581" data-name="Path 2581" class="cls-2" d="M330 129.22c0 .15-8.2.26-18.31.26s-18.32-.11-18.32-.26 8.2-.26 18.32-.26 18.31.12 18.31.26z" transform="translate(358.906 177.662)"/>
        <path id="Path_2582" data-name="Path 2582" class="cls-2" d="M289.45 133.46c0 .15-8.2.26-18.31.26s-18.31-.11-18.31-.26 8.19-.26 18.31-.26 18.31.12 18.31.26z" transform="translate(265.618 178.771)"/>
        <path id="Path_2583" data-name="Path 2583" class="cls-2" d="M291.23 93.41c0 .15-8.2.26-18.31.26s-18.31-.11-18.31-.26 8.2-.26 18.31-.26 18.31.12 18.31.26z" transform="translate(269.714 168.302)"/>
        <path id="Path_2584" data-name="Path 2584" class="cls-2" d="M281.47 90.4a43 43 0 0 1-9.44 0 43 43 0 0 1 9.44 0z" transform="translate(290.769 167.515)"/>
        <path id="Path_2585" data-name="Path 2585" class="cls-2" d="M262.55 112.29a42.88 42.88 0 0 1-9.43 0 42.879 42.879 0 0 1 9.43 0z" transform="translate(249.256 173.237)"/>
        <path id="Path_2586" data-name="Path 2586" class="cls-2" d="M262.33 116.19a43 43 0 0 1-9.44 0 43 43 0 0 1 9.44 0z" transform="translate(248.757 174.256)"/>
        <path id="Path_2587" data-name="Path 2587" class="cls-2" d="M344.06 76.7c0 .14-22.82.26-51 .26s-51-.12-51-.26 22.82-.26 51-.26 51 .11 51 .26z" transform="translate(286.059 163.934)"/>
        <path id="Path_2588" data-name="Path 2588" class="cls-3" d="M250.18 73.25a1.21 1.21 0 1 1-.329-.871 1.21 1.21 0 0 1 .329.871z" transform="translate(233.491 162.954)"/>
        <path id="Path_2589" data-name="Path 2589" class="cls-3" d="M255.37 73.25a1.21 1.21 0 1 1-.34-.882 1.21 1.21 0 0 1 .34.882z" transform="translate(244.749 162.954)"/>
        <path id="Path_2590" data-name="Path 2590" class="cls-3" d="M260.56 73.25a1.21 1.21 0 1 1-.34-.882 1.21 1.21 0 0 1 .34.882z" transform="translate(256.007 162.954)"/>
        <path id="Rectangle_52" data-name="Rectangle 52" transform="translate(1753.63 533.229)" style="stroke:#4ab19a;fill:#f5f5f5" d="M0 0h51.12v165.46H0z"/>
        <path id="Rectangle_53" data-name="Rectangle 53" class="cls-5" transform="translate(1804.75 533.259)" d="M0 0h43.4v165.4H0z"/>
        <path id="Rectangle_56" data-name="Rectangle 56" class="cls-5" transform="translate(1757.62 619.289)" d="M0 0h41.01v35.64H0z"/>
        <path id="Rectangle_71" data-name="Rectangle 71" class="cls-5" transform="translate(1757.62 579.289)" d="M0 0h41.01v35.64H0z"/>
        <path id="Rectangle_72" data-name="Rectangle 72" class="cls-5" transform="translate(1757.62 539.289)" d="M0 0h41.01v35.64H0z"/>
        <path id="Rectangle_57" data-name="Rectangle 57" class="cls-5" transform="translate(1757.62 658.979)" d="M0 0h41.01v35.64H0z"/>
        <path id="Path_2593" data-name="Path 2593" class="cls-6" d="M586.08 361.12a1.43 1.43 0 1 1-1.43-1.43 1.43 1.43 0 0 1 1.43 1.43z" transform="translate(1192.05 265.679)"/>
        <path id="Path_2797" data-name="Path 2797" class="cls-6" d="M586.08 361.12a1.43 1.43 0 1 1-1.43-1.43 1.43 1.43 0 0 1 1.43 1.43z" transform="translate(1192.05 225.679)"/>
        <path id="Path_2798" data-name="Path 2798" class="cls-6" d="M586.08 361.12a1.43 1.43 0 1 1-1.43-1.43 1.43 1.43 0 0 1 1.43 1.43z" transform="translate(1192.05 185.679)"/>
        <path id="Path_2594" data-name="Path 2594" class="cls-6" d="M586.08 401.26a1.43 1.43 0 1 1-1.43-1.42 1.43 1.43 0 0 1 1.43 1.42z" transform="translate(1192.05 265.679)"/>
        <path id="Rectangle_58" data-name="Rectangle 58" class="cls-5" transform="translate(1760.623 698.689)" d="M0 0h5.91v33.19H0z"/>
        <path id="Rectangle_59" data-name="Rectangle 59" class="cls-5" transform="translate(1798.63 698.689)" d="M0 0h5.91v33.19H0z"/>
        <path id="Rectangle_60" data-name="Rectangle 60" class="cls-5" transform="translate(1841.6 698.689)" d="M0 0h5.91v33.19H0z"/>
        <path id="Path_2595" data-name="Path 2595" class="cls-1" d="M132.14 456.83c-1.51-1.29-4.89-5.39-2.29-10.16 1-1.74 3-2.61 4.83-3.38a19.86 19.86 0 0 0 5.28-2.72c2.87-2.43 3.66-6.47 5.56-9.71 2.19-3.71 6.27-6.5 10.58-6.3 4.93.22 9 4.23 10.91 8.8s1.93 9.65 2 14.59c0 2.73-.1 5.81-2.12 7.66-1.85 1.7-4.65 1.72-7.17 1.64l-27-.82" transform="translate(-103.37 265.679)"/>
        <path id="Path_2596" data-name="Path 2596" class="cls-7" d="M183.71 383H112.8l12.78 75.81a8.45 8.45 0 0 0 6 6.75l.25.07a6.451 6.451 0 0 0 .63.16 8.578 8.578 0 0 0 1.54.21v.07l.35-.05h31.6a9 9 0 0 0 1.74-.18 8.5 8.5 0 0 0 7.17-7.41l6.14-52.24.28-2.08 2.43-20.69zm-13.38 48.36h-7.27l.73-22h8.43zm2.6-22h7l-2.6 22H171zm-20.79 46.39-.44-19.11h10.48l-.64 19.11zm-11.33-19.11H151l.45 19.11h-9.15zm.79 19.11h-8.54c-.81-5.16-1.87-11.87-3-19.11h10.06zm-1.2-24.39-1.72-22h11.68l.51 22zm11.18 0-.51-22h12l-.74 22zm-.64-27.28-.47-20.38h13.47l-.68 20.38zm-.7 0h-12l-1.59-20.38h13.09zm-12.68 0H124.9c-.45-2.81-.88-5.48-1.26-7.87-1.32-8.24-1.82-11.34-2.09-12.51H136zm.42 5.28 1.71 22h-10.47c-.35-2.23-.71-4.49-1.07-6.75-.82-5.19-1.64-10.39-2.41-15.25zm-9.47 22h-6.85l-3.7-22H125zm.83 5.28c1 6.61 2.07 13.13 3 19.11h-6.58l-3.22-19.11zm32.9 19.11.64-19.11h7l-1.64 19.11zm1.76-51.64.68-20.38h9.77l-1.74 20.38zm-43.09-20.38c.28 1.48 1.57 9.5 3.31 20.38h-7.12l-3.44-20.38zm53.55 72H169l1.64-19.11h6.09zm6.09-51.67h-7.14l1.75-20.38h7.79z" transform="translate(-103.37 265.679)"/>
    </g>
    <g id="freepik--Floor--inject-104" transform="translate(0 731.609)">
        <path id="Path_2597" data-name="Path 2597" class="cls-8" d="M1946.42 466.19c0 .15-419.477.26-936.71.26S73 466.34 73 466.19s419.38-.26 936.872-.26 936.548.12 936.548.26z" transform="translate(-73 -465.93)"/>
    </g>
    <g id="freepik--Screens--inject-104" transform="translate(952.049 205.883)">
        <path id="Path_2598" data-name="Path 2598" class="cls-8" d="M396.18 249.88h-110.9l8.2-79h111.84z" transform="translate(-279.63 -74.54)"/>
        <path id="Path_2599" data-name="Path 2599" class="cls-9" d="M390.54 249.88H279.63l8.2-79h111.84z" transform="translate(-279.63 -74.54)"/>
        <path id="Path_2600" data-name="Path 2600" class="cls-1" d="M386.42 246.3H283.51l7.61-73.3H394.9z" transform="translate(-279.63 -74.54)"/>
        <path id="Path_2601" data-name="Path 2601" class="cls-8" d="M294.67 234.08c-.15 0 .87-11.05 2.28-24.63s2.65-24.6 2.79-24.58-.87 11-2.28 24.63-2.65 24.59-2.79 24.58z" transform="translate(-279.63 -74.54)"/>
        <path id="Path_2602" data-name="Path 2602" class="cls-8" d="M313.4 187.32a51.429 51.429 0 0 1-10.33 0 51.431 51.431 0 0 1 10.33 0z" transform="translate(-279.63 -74.54)"/>
        <path id="Path_2603" data-name="Path 2603" class="cls-10" d="M357.36 187.32c0 .14-9.21.26-20.58.26s-20.57-.12-20.57-.26 9.21-.26 20.57-.26 20.58.12 20.58.26z" transform="translate(-279.63 -74.54)"/>
        <path id="Path_2604" data-name="Path 2604" class="cls-8" d="M312.19 213.37a51.53 51.53 0 0 1-10.34 0 51.53 51.53 0 0 1 10.34 0z" transform="translate(-279.63 -74.54)"/>
        <path id="Path_2605" data-name="Path 2605" class="cls-10" d="M356.14 213.37c0 .15-9.21.26-20.57.26s-20.58-.11-20.58-.26 9.21-.26 20.58-.26 20.57.12 20.57.26z" transform="translate(-279.63 -74.54)"/>
        <path id="Path_2606" data-name="Path 2606" class="cls-10" d="M342.12 225.38c0 .14-9.21.26-20.57.26s-20.58-.12-20.58-.26 9.21-.26 20.58-.26 20.57.12 20.57.26z" transform="translate(-279.63 -74.54)"/>
        <path id="Path_2607" data-name="Path 2607" class="cls-10" d="M318 194.67a49.089 49.089 0 0 1-7.27.27 49.089 49.089 0 0 1-7.27-.27 51.75 51.75 0 0 1 7.27-.26 51.75 51.75 0 0 1 7.27.26z" transform="translate(-279.63 -74.54)"/>
        <path id="Path_2608" data-name="Path 2608" class="cls-10" d="M317.59 205.46a51.754 51.754 0 0 1-7.27.26 51.75 51.75 0 0 1-7.27-.26 50 50 0 0 1 7.27-.26 50 50 0 0 1 7.27.26z" transform="translate(-279.63 -74.54)"/>
        <path id="Path_2609" data-name="Path 2609" class="cls-10" d="M329.88 220.87a51.752 51.752 0 0 1-7.27.26 51.632 51.632 0 0 1-7.27-.26 49.878 49.878 0 0 1 7.27-.26 50 50 0 0 1 7.27.26z" transform="translate(-279.63 -74.54)"/>
        <path id="Path_2610" data-name="Path 2610" class="cls-8" d="M370.83 194.67c0 .15-8.31.27-18.56.27s-18.57-.12-18.57-.27 8.31-.26 18.57-.26 18.56.12 18.56.26z" transform="translate(-279.63 -74.54)"/>
        <path id="Path_2611" data-name="Path 2611" class="cls-8" d="M359.37 206.08c0 .15-8.31.26-18.56.26s-18.57-.11-18.57-.26 8.31-.26 18.57-.26 18.56.12 18.56.26z" transform="translate(-279.63 -74.54)"/>
        <path id="Path_2612" data-name="Path 2612" class="cls-8" d="M372.15 220.87c0 .14-8.31.26-18.56.26S335 221 335 220.87s8.31-.26 18.57-.26 18.58.11 18.58.26z" transform="translate(-279.63 -74.54)"/>
        <path id="Path_2613" data-name="Path 2613" class="cls-8" d="M338.25 234.08c0 .14-8.32.26-18.57.26s-18.57-.12-18.57-.26 8.32-.26 18.57-.26 18.57.11 18.57.26z" transform="translate(-279.63 -74.54)"/>
        <path id="Path_2614" data-name="Path 2614" class="cls-8" d="M379.31 234.08c0 .14-8.31.26-18.56.26s-18.57-.12-18.57-.26 8.31-.26 18.57-.26 18.56.11 18.56.26z" transform="translate(-279.63 -74.54)"/>
        <path id="Path_2615" data-name="Path 2615" class="cls-8" d="M338.24 238.37c0 .15-8.31.26-18.56.26s-18.57-.11-18.57-.26 8.31-.26 18.57-.26 18.56.12 18.56.26z" transform="translate(-279.63 -74.54)"/>
        <path id="Path_2616" data-name="Path 2616" class="cls-8" d="M340.05 197.77c0 .14-8.31.26-18.56.26s-18.57-.12-18.57-.26 8.31-.26 18.57-.26 18.56.12 18.56.26z" transform="translate(-279.63 -74.54)"/>
        <path id="Path_2617" data-name="Path 2617" class="cls-9" d="M330.15 194.72a44.159 44.159 0 0 1-9.57 0 42.541 42.541 0 0 1 9.57 0z" transform="translate(-279.63 -74.54)"/>
        <path id="Path_2618" data-name="Path 2618" class="cls-9" d="M311 216.91a44.069 44.069 0 0 1-9.56 0 44.071 44.071 0 0 1 9.56 0z" transform="translate(-279.63 -74.54)"/>
        <path id="Path_2619" data-name="Path 2619" class="cls-9" d="M310.74 220.87a44.071 44.071 0 0 1-9.56 0 44.069 44.069 0 0 1 9.56 0z" transform="translate(-279.63 -74.54)"/>
        <path id="Path_2620" data-name="Path 2620" class="cls-8" d="M393.61 180.83c0 .14-23.14.26-51.69.26s-51.69-.12-51.69-.26 23.14-.27 51.69-.27 51.69.12 51.69.27z" transform="translate(-279.63 -74.54)"/>
        <path id="Path_2621" data-name="Path 2621" class="cls-3" d="M298.43 177.33a1.22 1.22 0 1 1-.354-.869 1.23 1.23 0 0 1 .354.869z" transform="translate(-279.63 -74.54)"/>
        <path id="Path_2622" data-name="Path 2622" class="cls-3" d="M303.69 177.33a1.22 1.22 0 1 1-.354-.869 1.23 1.23 0 0 1 .354.869z" transform="translate(-279.63 -74.54)"/>
        <path id="Path_2623" data-name="Path 2623" class="cls-3" d="M309 177.33a1.22 1.22 0 1 1-.354-.869 1.23 1.23 0 0 1 .354.869z" transform="translate(-279.63 -74.54)"/>
        <path id="Path_2624" data-name="Path 2624" class="cls-8" d="M541.87 252.28H425.21l8.62-83.11h117.66z" transform="translate(-279.63 -74.54)"/>
        <path id="Path_2625" data-name="Path 2625" class="cls-9" d="M535.93 252.28H419.27l8.63-83.11h117.65z" transform="translate(-279.63 -74.54)"/>
        <path id="Path_2626" data-name="Path 2626" class="cls-11" d="M531.61 248.51H423.36l8-77.11h109.17z" transform="translate(-279.63 -74.54)"/>
        <path id="Path_2627" data-name="Path 2627" class="cls-8" d="M435.15 234.49c-.14 0 .94-11.62 2.41-25.91s2.79-25.87 2.93-25.85-.94 11.61-2.41 25.91-2.79 25.86-2.93 25.85z" transform="translate(-279.63 -74.54)"/>
        <path id="Path_2628" data-name="Path 2628" class="cls-8" d="M454.86 185.31a56.94 56.94 0 0 1-10.87 0 54.839 54.839 0 0 1 10.87 0z" transform="translate(-279.63 -74.54)"/>
        <path id="Path_2629" data-name="Path 2629" class="cls-10" d="M501.1 185.31c0 .14-9.69.26-21.65.26s-21.64-.12-21.64-.26 9.69-.27 21.64-.27 21.65.12 21.65.27z" transform="translate(-279.63 -74.54)"/>
        <path id="Path_2630" data-name="Path 2630" class="cls-8" d="M453.58 212.71a56.942 56.942 0 0 1-10.87 0 56.94 56.94 0 0 1 10.87 0z" transform="translate(-279.63 -74.54)"/>
        <path id="Path_2631" data-name="Path 2631" class="cls-10" d="M499.82 212.71c0 .14-9.7.26-21.65.26s-21.64-.12-21.64-.26 9.69-.26 21.64-.26 21.65.12 21.65.26z" transform="translate(-279.63 -74.54)"/>
        <path id="Path_2632" data-name="Path 2632" class="cls-10" d="M485.07 225.34c0 .15-9.69.26-21.64.26s-21.65-.11-21.65-.26 9.69-.26 21.65-.26 21.64.12 21.64.26z" transform="translate(-279.63 -74.54)"/>
        <path id="Path_2633" data-name="Path 2633" class="cls-10" d="M459.65 193a112.532 112.532 0 0 1-15.29 0 112.53 112.53 0 0 1 15.29 0z" transform="translate(-279.63 -74.54)"/>
        <path id="Path_2634" data-name="Path 2634" class="cls-10" d="M459.26 204.38a108.373 108.373 0 0 1-15.29 0 112.529 112.529 0 0 1 15.29 0z" transform="translate(-279.63 -74.54)"/>
        <path id="Path_2635" data-name="Path 2635" class="cls-10" d="M472.19 220.6a112.532 112.532 0 0 1-15.29 0 112.53 112.53 0 0 1 15.29 0z" transform="translate(-279.63 -74.54)"/>
        <path id="Path_2636" data-name="Path 2636" class="cls-8" d="M515.27 193c0 .15-8.74.26-19.53.26s-19.53-.11-19.53-.26 8.74-.26 19.53-.26 19.53.16 19.53.26z" transform="translate(-279.63 -74.54)"/>
        <path id="Path_2637" data-name="Path 2637" class="cls-8" d="M503.22 205c0 .15-8.75.26-19.53.26s-19.53-.11-19.53-.26 8.74-.26 19.53-.26 19.53.16 19.53.26z" transform="translate(-279.63 -74.54)"/>
        <path id="Path_2638" data-name="Path 2638" class="cls-8" d="M516.66 220.6c0 .14-8.75.26-19.53.26s-19.53-.12-19.53-.26 8.74-.26 19.53-.26 19.53.11 19.53.26z" transform="translate(-279.63 -74.54)"/>
        <path id="Path_2639" data-name="Path 2639" class="cls-8" d="M481 234.49c0 .14-8.74.26-19.53.26s-19.53-.12-19.53-.26 8.75-.26 19.53-.26 19.53.12 19.53.26z" transform="translate(-279.63 -74.54)"/>
        <path id="Path_2640" data-name="Path 2640" class="cls-8" d="M524.19 234.49c0 .14-8.75.26-19.53.26s-19.53-.12-19.53-.26 8.74-.26 19.53-.26 19.53.12 19.53.26z" transform="translate(-279.63 -74.54)"/>
        <path id="Path_2641" data-name="Path 2641" class="cls-8" d="M481 239c0 .14-8.74.26-19.53.26s-19.53-.12-19.53-.26 8.74-.26 19.53-.26 19.53.13 19.53.26z" transform="translate(-279.63 -74.54)"/>
        <path id="Path_2642" data-name="Path 2642" class="cls-8" d="M482.89 196.3c0 .14-8.74.26-19.53.26s-19.53-.12-19.53-.26 8.74-.26 19.53-.26 19.53.12 19.53.26z" transform="translate(-279.63 -74.54)"/>
        <path id="Path_2643" data-name="Path 2643" class="cls-9" d="M472.47 193.08a48.79 48.79 0 0 1-10.06 0 48.79 48.79 0 0 1 10.06 0z" transform="translate(-279.63 -74.54)"/>
        <path id="Path_2644" data-name="Path 2644" class="cls-9" d="M452.3 216.43a48.792 48.792 0 0 1-10.06 0 48.791 48.791 0 0 1 10.06 0z" transform="translate(-279.63 -74.54)"/>
        <path id="Path_2645" data-name="Path 2645" class="cls-9" d="M452.06 220.6a48.789 48.789 0 0 1-10.06 0 48.793 48.793 0 0 1 10.06 0z" transform="translate(-279.63 -74.54)"/>
        <path id="Path_2646" data-name="Path 2646" class="cls-8" d="M539.23 178.47c0 .15-24.34.26-54.37.26s-54.37-.11-54.37-.26 24.34-.26 54.37-.26 54.37.12 54.37.26z" transform="translate(-279.63 -74.54)"/>
        <path id="Path_2647" data-name="Path 2647" class="cls-3" d="M439.11 174.8a1.28 1.28 0 1 1-.375-.915 1.29 1.29 0 0 1 .375.915z" transform="translate(-279.63 -74.54)"/>
        <path id="Path_2648" data-name="Path 2648" class="cls-3" d="M444.64 174.8a1.28 1.28 0 1 1-.375-.915 1.29 1.29 0 0 1 .375.915z" transform="translate(-279.63 -74.54)"/>
        <path id="Path_2649" data-name="Path 2649" class="cls-3" d="M450.18 174.8a1.28 1.28 0 1 1-.375-.915 1.29 1.29 0 0 1 .375.915z" transform="translate(-279.63 -74.54)"/>
        <path id="Path_2650" data-name="Path 2650" class="cls-8" d="M475.31 153.9H363.9l8.24-79.36h112.35z" transform="translate(-279.63 -74.54)"/>
        <path id="Path_2651" data-name="Path 2651" class="cls-9" d="M469.64 153.9H358.23l8.24-79.36h112.35z" transform="translate(-279.63 -74.54)"/>
        <path id="Path_2652" data-name="Path 2652" class="cls-6" d="M465.5 150.31H362.13l7.64-73.64h104.25z" transform="translate(-279.63 -74.54)"/>
        <path id="Path_2653" data-name="Path 2653" class="cls-8" d="M373.49 138c-.14 0 .89-11.1 2.3-24.74s2.66-24.71 2.81-24.69-.89 11.09-2.3 24.74-2.66 24.69-2.81 24.69z" transform="translate(-279.63 -74.54)"/>
        <path id="Path_2654" data-name="Path 2654" class="cls-8" d="M392.32 91a51.93 51.93 0 0 1-10.38 0 51.932 51.932 0 0 1 10.38 0z" transform="translate(-279.63 -74.54)"/>
        <path id="Path_2655" data-name="Path 2655" class="cls-10" d="M436.47 91c0 .14-9.25.26-20.67.26s-20.67-.12-20.67-.26 9.25-.26 20.67-.26 20.67.09 20.67.26z" transform="translate(-279.63 -74.54)"/>
        <path id="Path_2656" data-name="Path 2656" class="cls-8" d="M391.09 117.15a51.93 51.93 0 0 1-10.38 0 51.932 51.932 0 0 1 10.38 0z" transform="translate(-279.63 -74.54)"/>
        <path id="Path_2657" data-name="Path 2657" class="cls-10" d="M435.25 117.15c0 .14-9.26.26-20.67.26s-20.67-.12-20.67-.26 9.25-.26 20.67-.26 20.67.11 20.67.26z" transform="translate(-279.63 -74.54)"/>
        <path id="Path_2658" data-name="Path 2658" class="cls-10" d="M421.17 129.21c0 .14-9.26.26-20.67.26s-20.67-.12-20.67-.26 9.25-.26 20.67-.26 20.67.12 20.67.26z" transform="translate(-279.63 -74.54)"/>
        <path id="Path_2659" data-name="Path 2659" class="cls-10" d="M396.89 98.37a102.61 102.61 0 0 1-14.6 0 102.609 102.609 0 0 1 14.6 0z" transform="translate(-279.63 -74.54)"/>
        <path id="Path_2660" data-name="Path 2660" class="cls-10" d="M396.52 109.2a102.61 102.61 0 0 1-14.6 0 102.61 102.61 0 0 1 14.6 0z" transform="translate(-279.63 -74.54)"/>
        <path id="Path_2661" data-name="Path 2661" class="cls-10" d="M408.86 124.68a102.611 102.611 0 0 1-14.6 0 102.61 102.61 0 0 1 14.6 0z" transform="translate(-279.63 -74.54)"/>
        <path id="Path_2662" data-name="Path 2662" class="cls-8" d="M450 98.37c0 .14-8.35.26-18.65.26s-18.65-.12-18.65-.26 8.34-.26 18.65-.26 18.65.11 18.65.26z" transform="translate(-279.63 -74.54)"/>
        <path id="Path_2663" data-name="Path 2663" class="cls-8" d="M438.49 109.83c0 .14-8.35.26-18.65.26s-18.65-.12-18.65-.26 8.35-.26 18.65-.26 18.65.11 18.65.26z" transform="translate(-279.63 -74.54)"/>
        <path id="Path_2664" data-name="Path 2664" class="cls-8" d="M451.33 124.68c0 .14-8.35.26-18.65.26s-18.65-.12-18.65-.26 8.35-.26 18.65-.26 18.65.11 18.65.26z" transform="translate(-279.63 -74.54)"/>
        <path id="Path_2665" data-name="Path 2665" class="cls-8" d="M417.27 138c0 .14-8.35.26-18.65.26S380 138.09 380 138s8.35-.26 18.65-.26 18.62.06 18.62.26z" transform="translate(-279.63 -74.54)"/>
        <path id="Path_2666" data-name="Path 2666" class="cls-8" d="M458.52 138c0 .14-8.35.26-18.65.26s-18.65-.12-18.65-.26 8.35-.26 18.65-.26 18.65.06 18.65.26z" transform="translate(-279.63 -74.54)"/>
        <path id="Path_2667" data-name="Path 2667" class="cls-8" d="M417.27 142.26c0 .15-8.35.26-18.65.26s-18.65-.11-18.65-.26 8.35-.26 18.65-.26 18.65.12 18.65.26z" transform="translate(-279.63 -74.54)"/>
        <path id="Path_2668" data-name="Path 2668" class="cls-8" d="M419.08 101.48c0 .14-8.35.26-18.65.26s-18.65-.12-18.65-.26 8.35-.26 18.65-.26 18.65.11 18.65.26z" transform="translate(-279.63 -74.54)"/>
        <path id="Path_2669" data-name="Path 2669" class="cls-9" d="M409.14 98.41a44.53 44.53 0 0 1-9.61 0 44.53 44.53 0 0 1 9.61 0z" transform="translate(-279.63 -74.54)"/>
        <path id="Path_2670" data-name="Path 2670" class="cls-9" d="M389.87 120.7a44.53 44.53 0 0 1-9.61 0 44.529 44.529 0 0 1 9.61 0z" transform="translate(-279.63 -74.54)"/>
        <path id="Path_2671" data-name="Path 2671" class="cls-9" d="M389.65 124.68a44.53 44.53 0 0 1-9.61 0 44.53 44.53 0 0 1 9.61 0z" transform="translate(-279.63 -74.54)"/>
        <path id="Path_2672" data-name="Path 2672" class="cls-8" d="M472.88 84.45c0 .15-23.24.27-51.91.27S369 84.6 369 84.45s23.24-.26 51.93-.26 51.95.12 51.95.26z" transform="translate(-279.63 -74.54)"/>
        <circle id="Ellipse_23" data-name="Ellipse 23" class="cls-3" cx="1.23" cy="1.23" r="1.23" transform="translate(95.19 5.17)"/>
        <circle id="Ellipse_24" data-name="Ellipse 24" class="cls-3" cx="1.23" cy="1.23" r="1.23" transform="translate(100.47 5.17)"/>
        <circle id="Ellipse_25" data-name="Ellipse 25" class="cls-3" cx="1.23" cy="1.23" r="1.23" transform="translate(105.75 5.17)"/>
    </g>
    <g id="freepik--Character--inject-104" transform="translate(808 441.259)">
        <path id="Rectangle_61" data-name="Rectangle 61" class="cls-8" transform="translate(82.89 278.11)" d="M0 0h8.68v11.84H0z"/>
        <path id="Rectangle_62" data-name="Rectangle 62" class="cls-8" transform="rotate(180 107.555 69.975)" d="M0 0h77.01v3.75H0z"/>
        <path id="Path_2673" data-name="Path 2673" class="cls-8" d="m422.05 315.53 14.45-54.13h-60.14l-13.08 54.13z" transform="translate(-195.01 -175.58)"/>
        <path id="Path_2674" data-name="Path 2674" class="cls-1" d="M366.89 311.44h53.72l12.5-47.54h-54z" transform="translate(-195.01 -175.58)"/>
        <path id="Path_2675" data-name="Path 2675" class="cls-2" d="m380.45 273.11-3.33 13.46h35.62l3.8-13.46z" transform="translate(-195.01 -175.58)"/>
        <path id="Path_2676" data-name="Path 2676" class="cls-9" d="M409 271.33c0 .15-6.24.26-13.95.26s-13.95-.11-13.95-.26 6.24-.26 13.95-.26 13.95.12 13.95.26z" transform="translate(-195.01 -175.58)"/>
        <path id="Path_2677" data-name="Path 2677" class="cls-8" d="M392.79 275.68a61 61 0 0 1-11.25 0 61 61 0 0 1 11.25 0z" transform="translate(-195.01 -175.58)"/>
        <path id="Path_2678" data-name="Path 2678" class="cls-8" d="M401.81 275.47a25.89 25.89 0 0 1-7.32 0 25.889 25.889 0 0 1 7.32 0z" transform="translate(-195.01 -175.58)"/>
        <path id="Path_2679" data-name="Path 2679" class="cls-9" d="M412 278.12c0 .15-6.89.27-15.39.27s-15.39-.12-15.39-.27 6.89-.26 15.39-.26 15.39.14 15.39.26z" transform="translate(-195.01 -175.58)"/>
        <path id="Path_2680" data-name="Path 2680" class="cls-10" d="M390.56 280.35a47.92 47.92 0 0 1-10 0 47.922 47.922 0 0 1 10 0z" transform="translate(-195.01 -175.58)"/>
        <path id="Path_2681" data-name="Path 2681" class="cls-9" d="M409.24 283.54c0 .14-6.39.26-14.27.26s-14.28-.12-14.28-.26 6.39-.26 14.28-.26 14.27.11 14.27.26z" transform="translate(-195.01 -175.58)"/>
        <path id="Path_2682" data-name="Path 2682" class="cls-9" d="M388.23 290.43a58.728 58.728 0 0 1-11 0 58.731 58.731 0 0 1 11 0z" transform="translate(-195.01 -175.58)"/>
        <path id="Path_2683" data-name="Path 2683" class="cls-8" d="M397.67 290.48a14.381 14.381 0 0 1-3.77.23 13.45 13.45 0 0 1-3.76-.3 14.38 14.38 0 0 1 3.77-.23 13.449 13.449 0 0 1 3.76.3z" transform="translate(-195.01 -175.58)"/>
        <path id="Path_2684" data-name="Path 2684" class="cls-8" d="M403 290.22c0 .15-.72.26-1.6.26s-1.59-.11-1.59-.26.72-.26 1.59-.26 1.6.12 1.6.26z" transform="translate(-195.01 -175.58)"/>
        <path id="Path_2685" data-name="Path 2685" class="cls-10" d="M380.91 293.19c0 .15-.79.26-1.76.26s-1.75-.11-1.75-.26.79-.26 1.75-.26 1.76.12 1.76.26z" transform="translate(-195.01 -175.58)"/>
        <path id="Path_2686" data-name="Path 2686" class="cls-8" d="M391.41 293.19a33.889 33.889 0 0 1-8.38 0 33.889 33.889 0 0 1 8.38 0z" transform="translate(-195.01 -175.58)"/>
        <path id="Path_2687" data-name="Path 2687" class="cls-9" d="M416.45 292.87c0 .15-5 .26-11.19.26s-11.2-.11-11.2-.26 5-.26 11.2-.26 11.19.12 11.19.26z" transform="translate(-195.01 -175.58)"/>
        <path id="Path_2688" data-name="Path 2688" class="cls-8" d="M380.37 296.06c0 .14-.8.26-1.8.26s-1.8-.12-1.8-.26.8-.26 1.8-.26 1.8.11 1.8.26z" transform="translate(-195.01 -175.58)"/>
        <path id="Path_2689" data-name="Path 2689" class="cls-8" d="M385.89 296a4.65 4.65 0 0 1-2.17.26 4.71 4.71 0 0 1-2.18-.26 4.871 4.871 0 0 1 2.18-.26 4.81 4.81 0 0 1 2.17.26z" transform="translate(-195.01 -175.58)"/>
        <path id="Path_2690" data-name="Path 2690" class="cls-9" d="M402.34 295.74a95.852 95.852 0 0 1-14.11 0 95.84 95.84 0 0 1 14.11 0z" transform="translate(-195.01 -175.58)"/>
        <path id="Path_2691" data-name="Path 2691" class="cls-9" d="M393.64 300.73a71.331 71.331 0 0 1-8.54.26 71.192 71.192 0 0 1-8.54-.26 68.778 68.778 0 0 1 8.54-.26 68.914 68.914 0 0 1 8.54.26z" transform="translate(-195.01 -175.58)"/>
        <path id="Path_2692" data-name="Path 2692" class="cls-10" d="M403.61 300.51a28.931 28.931 0 0 1-7.74 0 28.932 28.932 0 0 1 7.74 0z" transform="translate(-195.01 -175.58)"/>
        <path id="Path_2693" data-name="Path 2693" class="cls-8" d="M418.42 300.51a79.389 79.389 0 0 1-12.84 0 79.392 79.392 0 0 1 12.84 0z" transform="translate(-195.01 -175.58)"/>
        <path id="Path_2694" data-name="Path 2694" class="cls-8" d="M415 271.12c0 .15-.6.26-1.33.26s-1.33-.11-1.33-.26.6-.26 1.33-.26 1.33.14 1.33.26z" transform="translate(-195.01 -175.58)"/>
        <path id="Path_2695" data-name="Path 2695" class="cls-10" d="M387.91 269.32a16.529 16.529 0 0 1-5.84 0 16.53 16.53 0 0 1 5.84 0z" transform="translate(-195.01 -175.58)"/>
        <path id="Path_2696" data-name="Path 2696" class="cls-11" d="M432.21 267.32h-54l.91-3.42h54z" transform="translate(-195.01 -175.58)"/>
        <circle id="Ellipse_26" data-name="Ellipse 26" class="cls-6" cx=".59" cy=".59" r=".59" transform="translate(185.79 89.46)"/>
        <circle id="Ellipse_27" data-name="Ellipse 27" class="cls-6" cx=".59" cy=".59" r=".59" transform="translate(187.82 89.46)"/>
        <circle id="Ellipse_28" data-name="Ellipse 28" class="cls-6" cx=".59" cy=".59" r=".59" transform="translate(189.85 89.46)"/>
        <path id="Rectangle_63" data-name="Rectangle 63" class="cls-8" transform="translate(174.97 144.99)" d="M0 0h128.04v74.71H0z"/>
        <path id="Rectangle_64" data-name="Rectangle 64" class="cls-9" transform="translate(174.97 144.99)" d="M0 0h58.33v74.71H0z"/>
        <path id="Path_2697" data-name="Path 2697" class="cls-8" d="M422.37 345.94a1.589 1.589 0 0 1 0-.38v-1.09c0-1 0-2.37-.05-4.15 0-3.61-.06-8.77-.1-15.13l.19.19-46.92.07.26-.26v20.73l-.24-.24 33.61.11 9.76.07h.11l-9.71.06-33.77.12h-.25v-20.83l.26-.26 46.92.07h.19v.19c-.05 6.41-.08 11.61-.11 15.24v5.17a2 2 0 0 0-.15.32z" transform="translate(-195.01 -175.58)"/>
        <path id="Path_2698" data-name="Path 2698" class="cls-8" d="M400.9 335.57a2.6 2.6 0 0 0-.9-1.44 1.82 1.82 0 0 0-1.69-.21 1.78 1.78 0 0 0-1.14 1.65 1.8 1.8 0 0 0 1.14 1.65A1.85 1.85 0 0 0 400 337a2.66 2.66 0 0 0 .9-1.44.763.763 0 0 1 0 .51 2 2 0 0 1-.71 1.22 2.17 2.17 0 0 1-2.08.37 2.22 2.22 0 0 1 0-4.2 2.17 2.17 0 0 1 2.08.36 2 2 0 0 1 .71 1.22c.1.35.03.53 0 .53z" transform="translate(-195.01 -175.58)"/>
        <path id="Path_2699" data-name="Path 2699" class="cls-8" d="M422.37 368.79a1.811 1.811 0 0 1 0-.39v-1.09c0-1 0-2.37-.05-4.15 0-3.6-.06-8.76-.1-15.13l.19.19-46.92.08.26-.26v20.74l-.24-.25 33.61.12 9.76.07h.11l-9.71.07-33.77.12h-.25v-20.86c-.06 0 .49-.5.26-.27l46.92.08h.19v.14c-.05 6.42-.08 11.62-.11 15.25v5.16a1.374 1.374 0 0 0-.15.38z" transform="translate(-195.01 -175.58)"/>
        <path id="Path_2700" data-name="Path 2700" class="cls-8" d="M400.9 358.41a2.66 2.66 0 0 0-.9-1.41 1.777 1.777 0 1 0-1.69 3.09 1.82 1.82 0 0 0 1.69-.21 2.63 2.63 0 0 0 .9-1.44.764.764 0 0 1 0 .51 2 2 0 0 1-.71 1.22 2.17 2.17 0 0 1-2.08.37 2.22 2.22 0 0 1 0-4.2 2.17 2.17 0 0 1 2.08.37 2 2 0 0 1 .71 1.22c.1.3.03.48 0 .48z" transform="translate(-195.01 -175.58)"/>
        <path id="Path_2701" data-name="Path 2701" class="cls-8" d="M422.37 391.63a1.589 1.589 0 0 1 0-.38v-1.09c0-1 0-2.37-.05-4.15 0-3.61-.06-8.77-.1-15.13l.19.19-46.92.07.26-.26v20.73l-.24-.24 33.61.11 9.76.07h.11l-9.71.06-33.77.12h-.25V370.9l.26-.26 46.92.07h.19v.19c-.05 6.41-.08 11.61-.11 15.24v5.17a.883.883 0 0 0-.15.32z" transform="translate(-195.01 -175.58)"/>
        <path id="Path_2702" data-name="Path 2702" class="cls-8" d="M400.9 381.26a2.6 2.6 0 0 0-.9-1.44 1.82 1.82 0 0 0-1.69-.21 1.775 1.775 0 1 0 1.69 3.09 2.66 2.66 0 0 0 .9-1.44.763.763 0 0 1 0 .51 2 2 0 0 1-.71 1.22 2.17 2.17 0 0 1-2.08.37 2.22 2.22 0 0 1 0-4.2 2.17 2.17 0 0 1 2.08.36 2 2 0 0 1 .71 1.22c.1.34.03.52 0 .52z" transform="translate(-195.01 -175.58)"/>
        <path id="Path_2703" data-name="Path 2703" class="cls-8" d="m284.71 456.09-85.57-.07V320.57h85.57z" transform="translate(-195.01 -175.58)"/>
        <path id="Rectangle_65" data-name="Rectangle 65" class="cls-8" transform="translate(0 139.78)" d="M0 0h307.66v7.1H0z"/>
        <path id="Rectangle_66" data-name="Rectangle 66" class="cls-8" transform="translate(4.13 146.88)" d="M0 0h9.54v143.7H0z"/>
        <path id="Rectangle_67" data-name="Rectangle 67" class="cls-8" transform="translate(293.47 146.88)" d="M0 0h9.54v143.74H0z"/>
        <path id="Rectangle_68" data-name="Rectangle 68" class="cls-8" transform="translate(233.3 146.88)" d="M0 0h9.54v143.74H0z"/>
        <path id="Path_2704" data-name="Path 2704" class="cls-9" d="M238.27 315.36c0 .14-9.17.26-20.48.26s-20.48-.12-20.48-.26 9.17-.26 20.48-.26 20.48.11 20.48.26z" transform="translate(-195.01 -175.58)"/>
        <path id="Path_2705" data-name="Path 2705" class="cls-10" d="m328.23 459.16.24-10.27-19.25-.58-.51 15 1.19.11c5.3.46 27 1.94 30.57 1 4-1.08-12.24-5.26-12.24-5.26z" transform="translate(-195.01 -175.58)"/>
        <g id="Group_26" data-name="Group 26" class="cls-12" transform="translate(113.7 285.91)">
            <path id="Path_2706" data-name="Path 2706" class="cls-3" d="M336.15 461.49s5.69 1.82 4.94 2.75-22.72.24-32.38-.9v-.43l25.63 1s.66-2.41 1.81-2.42z" transform="translate(-308.71 -461.49)"/>
        </g>
        <path id="Path_2707" data-name="Path 2707" class="cls-8" d="M308.45 462.89h.33l1 .09 3.49.26c2.95.2 7 .41 11.54.56s8.6.18 11.56.17c-2.95 0-7-.1-11.55-.24s-8.59-.33-11.54-.49l-3.5-.18h-1z" transform="translate(-195.01 -175.58)"/>
        <path id="Path_2708" data-name="Path 2708" class="cls-8" d="M334.36 464.21a7.658 7.658 0 0 1 .71-1.65 8.327 8.327 0 0 1 1.23-1.3 3.12 3.12 0 0 0-1.94 2.95z" transform="translate(-195.01 -175.58)"/>
        <path id="Path_2709" data-name="Path 2709" class="cls-8" d="M328.77 461.16a2.577 2.577 0 0 0 .63-.72 2.2 2.2 0 0 0 .44-.85c-.05-.03-.34.28-.63.72s-.49.81-.44.85z" transform="translate(-195.01 -175.58)"/>
        <path id="Path_2710" data-name="Path 2710" class="cls-8" d="M327.24 460.29a3.038 3.038 0 0 0 .69-.44c.34-.29.58-.56.54-.61s-.35.15-.69.44-.58.56-.54.61z" transform="translate(-195.01 -175.58)"/>
        <path id="Path_2711" data-name="Path 2711" class="cls-8" d="M326.31 458.44a2.45 2.45 0 0 0 1 .16 2.19 2.19 0 0 0 1-.08 2.5 2.5 0 0 0-1-.16c-.55-.02-1 .01-1 .08z" transform="translate(-195.01 -175.58)"/>
        <path id="Path_2712" data-name="Path 2712" class="cls-8" d="M326 457.15a2.05 2.05 0 0 0 1.11.36 2 2 0 0 0 1.16-.12 5.389 5.389 0 0 0-1.14-.11 5.093 5.093 0 0 0-1.13-.13z" transform="translate(-195.01 -175.58)"/>
        <path id="Path_2713" data-name="Path 2713" class="cls-8" d="M329.48 459.5a3.661 3.661 0 0 0 1.23 0 7.819 7.819 0 0 0 1.33-.25 3.792 3.792 0 0 0 .76-.29.66.66 0 0 0 .32-.37.48.48 0 0 0-.17-.5 2.28 2.28 0 0 0-2.83.57 2.32 2.32 0 0 0-.43.82.831.831 0 0 0 0 .33 3.53 3.53 0 0 1 .6-1 2.19 2.19 0 0 1 1.07-.65 2 2 0 0 1 1.48.14c.19.15.1.38-.12.51a4.224 4.224 0 0 1-.7.27 9.279 9.279 0 0 1-1.29.3c-.73.09-1.25.08-1.25.12z" transform="translate(-195.01 -175.58)"/>
        <path id="Path_2714" data-name="Path 2714" class="cls-8" d="M329.79 459.57a1.21 1.21 0 0 0 .17-.85 2 2 0 0 0-.31-.92 1.24 1.24 0 0 0-1-.66.49.49 0 0 0-.4.56 1.38 1.38 0 0 0 .2.56 3.4 3.4 0 0 0 .56.76 1.91 1.91 0 0 0 .69.53 7.354 7.354 0 0 1-.57-.64 4.24 4.24 0 0 1-.49-.75c-.16-.27-.27-.74.05-.79s.61.3.79.55a2 2 0 0 1 .33.82 4 4 0 0 1-.02.83z" transform="translate(-195.01 -175.58)"/>
        <path id="Path_2715" data-name="Path 2715" class="cls-8" d="M309 457.63c0 .05.56 0 1.42.1a6 6 0 0 1 4.92 4.17 14.237 14.237 0 0 1 .32 1.39 1 1 0 0 0 0-.39 6.558 6.558 0 0 0-.18-1 5.85 5.85 0 0 0-5.06-4.29 5.274 5.274 0 0 0-1.06 0 1.488 1.488 0 0 0-.36.02z" transform="translate(-195.01 -175.58)"/>
        <path id="Path_2716" data-name="Path 2716" class="cls-8" d="M311.24 449.68a36.283 36.283 0 0 0-.29 3.95 35.4 35.4 0 0 0-.05 4 36 36 0 0 0 .29-3.95 32.785 32.785 0 0 0 .05-4z" transform="translate(-195.01 -175.58)"/>
        <path id="Path_2717" data-name="Path 2717" class="cls-8" d="M318.17 461.59a10.77 10.77 0 0 0 2.8.37 11.182 11.182 0 0 0 2.82-.14c0-.07-1.26 0-2.81-.09s-2.8-.2-2.81-.14z" transform="translate(-195.01 -175.58)"/>
        <path id="Path_2718" data-name="Path 2718" class="cls-8" d="M314.4 461.47s.09.27.21.56.18.56.25.55.11-.3 0-.63-.42-.52-.46-.48z" transform="translate(-195.01 -175.58)"/>
        <path id="Path_2719" data-name="Path 2719" class="cls-8" d="M313 459.66a1.284 1.284 0 0 0 .26.46c.19.21.39.34.44.29s-.07-.24-.27-.45-.35-.34-.43-.3z" transform="translate(-195.01 -175.58)"/>
        <path id="Path_2720" data-name="Path 2720" class="cls-8" d="M311 458.79c0 .07.27.07.55.18s.48.26.53.22-.1-.31-.45-.44-.63-.02-.63.04z" transform="translate(-195.01 -175.58)"/>
        <path id="Path_2721" data-name="Path 2721" class="cls-8" d="M309.58 458.36c0 .06.09.16.24.23s.31.07.33 0-.08-.17-.24-.23-.3-.06-.33 0z" transform="translate(-195.01 -175.58)"/>
        <g id="Group_27" data-name="Group 27" class="cls-13" transform="translate(113.92 279.49)">
            <path id="Path_2722" data-name="Path 2722" d="m309.04 457.12 19.24.27.04-2.32-19.39.82z" transform="translate(-308.93 -455.07)"/>
        </g>
        <path id="Path_2723" data-name="Path 2723" class="cls-10" d="M358.59 460.76v-10.28l-19.26-.07-.11 15 1.19.08c5.31.31 27 1.22 30.59.16 3.94-1.15-12.41-4.89-12.41-4.89z" transform="translate(-195.01 -175.58)"/>
        <g id="Group_28" data-name="Group 28" class="cls-12" transform="translate(144.17 287.29)">
            <path id="Path_2724" data-name="Path 2724" class="cls-3" d="M366.57 462.87s5.73 1.68 5 2.62-22.7.85-32.39 0v-.43l25.64.33s.63-2.47 1.75-2.52z" transform="translate(-339.18 -462.87)"/>
        </g>
        <path id="Path_2725" data-name="Path 2725" class="cls-8" d="M338.92 465h.33l.95.06 3.5.17c2.95.12 7 .23 11.55.25s8.6 0 11.56-.13l3.5-.13.95-.06h-.95l-3.5.05c-3 0-7.05.09-11.56.07s-8.59-.11-11.55-.18l-3.5-.1z" transform="translate(-195.01 -175.58)"/>
        <path id="Path_2726" data-name="Path 2726" class="cls-8" d="M364.86 465.65a7.261 7.261 0 0 1 .66-1.67 7.77 7.77 0 0 1 1.2-1.34 2.58 2.58 0 0 0-1.4 1.22 2.54 2.54 0 0 0-.46 1.79z" transform="translate(-195.01 -175.58)"/>
        <path id="Path_2727" data-name="Path 2727" class="cls-8" d="M359.19 462.74a2.782 2.782 0 0 0 .61-.74c.29-.44.46-.82.41-.86s-.33.3-.61.74-.47.82-.41.86z" transform="translate(-195.01 -175.58)"/>
        <path id="Path_2728" data-name="Path 2728" class="cls-8" d="M357.63 461.91a3.131 3.131 0 0 0 .68-.45c.33-.29.57-.58.53-.63s-.35.16-.68.45-.57.58-.53.63z" transform="translate(-195.01 -175.58)"/>
        <path id="Path_2729" data-name="Path 2729" class="cls-8" d="M356.65 460.09a2.42 2.42 0 0 0 1 .13 2.3 2.3 0 0 0 1-.1c0-.07-.44-.13-1-.13s-1 .01-1 .1z" transform="translate(-195.01 -175.58)"/>
        <path id="Path_2730" data-name="Path 2730" class="cls-8" d="M356.32 458.8a2 2 0 0 0 1.12.33 1.83 1.83 0 0 0 1.16-.15 7 7 0 0 0-1.14-.08 6.44 6.44 0 0 0-1.14-.1z" transform="translate(-195.01 -175.58)"/>
        <path id="Path_2731" data-name="Path 2731" class="cls-8" d="M359.85 461.06a3.31 3.31 0 0 0 1.23 0 6.351 6.351 0 0 0 1.32-.29 3.318 3.318 0 0 0 .76-.3.69.69 0 0 0 .31-.39.49.49 0 0 0-.19-.49 2.27 2.27 0 0 0-2.81.65 2.469 2.469 0 0 0-.41.82.741.741 0 0 0 0 .34 3.469 3.469 0 0 1 .57-1 2.279 2.279 0 0 1 1.06-.69 1.93 1.93 0 0 1 1.47.11c.2.15.12.38-.1.51a3.479 3.479 0 0 1-.69.29 9.327 9.327 0 0 1-1.28.33 5.236 5.236 0 0 0-1.24.11z" transform="translate(-195.01 -175.58)"/>
        <path id="Path_2732" data-name="Path 2732" class="cls-8" d="M360.17 461.13a1.29 1.29 0 0 0 .14-.86 2 2 0 0 0-.33-.91 1.26 1.26 0 0 0-1-.63.48.48 0 0 0-.38.57 1.349 1.349 0 0 0 .21.55 3.681 3.681 0 0 0 .58.75c.38.38.69.53.7.5s-.24-.22-.58-.61a4.858 4.858 0 0 1-.52-.75c-.17-.26-.28-.73 0-.78s.62.28.81.52a2 2 0 0 1 .35.81 5 5 0 0 1 .02.84z" transform="translate(-195.01 -175.58)"/>
        <path id="Path_2733" data-name="Path 2733" class="cls-8" d="M339.33 459.74a7.268 7.268 0 0 1 1.42.06 6.09 6.09 0 0 1 3.1 1.29 6.16 6.16 0 0 1 1.93 2.75c.29.82.32 1.38.36 1.37a1.309 1.309 0 0 0 0-.39 5.81 5.81 0 0 0-.2-1 5.87 5.87 0 0 0-5.17-4.16 5.769 5.769 0 0 0-1.06 0c-.25.03-.38.06-.38.08z" transform="translate(-195.01 -175.58)"/>
        <path id="Path_2734" data-name="Path 2734" class="cls-8" d="M341.36 451.73a33.575 33.575 0 0 0-.18 4 31.58 31.58 0 0 0 .05 4 36.376 36.376 0 0 0 .18-4 31.671 31.671 0 0 0-.05-4z" transform="translate(-195.01 -175.58)"/>
        <path id="Path_2735" data-name="Path 2735" class="cls-8" d="M348.6 463.46a10.94 10.94 0 0 0 2.81.29 11.079 11.079 0 0 0 2.82-.22c0-.06-1.27 0-2.82 0s-2.8-.14-2.81-.07z" transform="translate(-195.01 -175.58)"/>
        <path id="Path_2736" data-name="Path 2736" class="cls-8" d="M344.82 463.43a5.487 5.487 0 0 0 .23.56c.12.29.2.55.27.54s.1-.3-.05-.63-.4-.51-.45-.47z" transform="translate(-195.01 -175.58)"/>
        <path id="Path_2737" data-name="Path 2737" class="cls-8" d="M343.41 461.66c-.05 0 .08.24.28.45s.39.33.44.28-.08-.24-.28-.45-.39-.33-.44-.28z" transform="translate(-195.01 -175.58)"/>
        <path id="Path_2738" data-name="Path 2738" class="cls-8" d="M341.38 460.84c0 .07.27.07.55.17s.49.25.54.21-.11-.31-.46-.43-.65-.01-.63.05z" transform="translate(-195.01 -175.58)"/>
        <path id="Path_2739" data-name="Path 2739" class="cls-8" d="M339.93 460.45c0 .06.09.16.25.23s.31.06.33 0-.09-.16-.25-.22-.26-.07-.33-.01z" transform="translate(-195.01 -175.58)"/>
        <g id="Group_29" data-name="Group 29" class="cls-13" transform="translate(144.2 281.09)">
            <path id="Path_2740" data-name="Path 2740" d="m339.36 459.22 19.24-.23-.02-2.32-19.37 1.33z" transform="translate(-339.21 -456.67)"/>
        </g>
        <path id="Path_2741" data-name="Path 2741" class="cls-14" d="m316.07 284.79 7.71 23.21c2.08 6.27 7.56 7.35 14.17 7.35h42.89v-9.63l-39.18-5.59-9.34-23.86z" transform="translate(-195.01 -175.58)"/>
        <path id="Path_2742" data-name="Path 2742" class="cls-14" d="m385.56 303.73 3.4-1.61s3.67-7.09 4.51-6.8 1.09 2.37-.38 5.62l4.52-1.29s9.8 4.53 9.37 5.14a2.288 2.288 0 0 1-3.37 1c-2.13-1.06-4.94-2.38-4.94-2.38l-5.28 1.51 6.81.87 6.41 5.82s-2.11 1.58-3.92-.09l-16.64 3.57-5.21.3v-9.63z" transform="translate(-195.01 -175.58)"/>
        <path id="Path_2743" data-name="Path 2743" class="cls-15" d="M402.69 311.49c-.07 0-.38-.45-1-1.1a5.08 5.08 0 0 0-1.21-.94 4.9 4.9 0 0 0-1.8-.47 25.292 25.292 0 0 1-5-.85 25.15 25.15 0 0 1 5.06.34 4.84 4.84 0 0 1 2 .57 4.6 4.6 0 0 1 1.25 1.11 2.89 2.89 0 0 1 .7 1.34z" transform="translate(-195.01 -175.58)"/>
        <path id="Path_2744" data-name="Path 2744" class="cls-15" d="M400.09 312.15c-.07 0-.12-.34-.58-.44s-1.24-.18-2-.26a17.689 17.689 0 0 1-2.92-.29 5.869 5.869 0 0 1 3-.23 9.2 9.2 0 0 1 2.09.43.82.82 0 0 1 .5.53c0 .18-.06.27-.09.26z" transform="translate(-195.01 -175.58)"/>
        <path id="Path_2745" data-name="Path 2745" class="cls-14" d="m279.86 189.32-2.33 47.18 20.2 1.9 1.12-11.4s7.12 1.76 9.28-4.83c1.39-4.21 2.62-37.19 2.62-37.19z" transform="translate(-195.01 -175.58)"/>
        <path id="Path_2746" data-name="Path 2746" class="cls-8" d="M312.49 190.44c.56 4.42-5.61 7-5.61 7l-1.08 10.45a20.346 20.346 0 0 0-2.9 0c.52-4.9-5.8-3.94-6.44-.6s3 5.36 3 5.36c-2.52 3.87-3.55 5.92-7.13 9.55-3.88 3.93-6 4.25-10 4.13l-4.41-.2s-1.58-3.77-2.73-12.68c-.55-4.28-3.9-9.9-2.94-16.86 2.7-19.79 21.66-17.7 21.66-17.7 9.91.21 17.28 1.31 18.58 11.55z" transform="translate(-195.01 -175.58)"/>
        <path id="Path_2747" data-name="Path 2747" class="cls-8" d="M298 179.4c4.28.11 8.72.45 12.48 2.5s6.66 6.28 5.89 10.49l-2.14.39-.88-1.58v2.52l-3.76 1.05a27.55 27.55 0 0 0-3.34-9.11" transform="translate(-195.01 -175.58)"/>
        <path id="Path_2748" data-name="Path 2748" class="cls-9" d="M280.66 201.11a2.55 2.55 0 0 1-.33-.74 12.7 12.7 0 0 1-.54-2.15 15.72 15.72 0 0 1 4.21-13.53 12.219 12.219 0 0 1 1.65-1.47 2.46 2.46 0 0 1 .7-.43c.05.07-.87.76-2.08 2.14a17.25 17.25 0 0 0-3.47 6.18 17.43 17.43 0 0 0-.62 7.06c.19 1.83.57 2.91.48 2.94z" transform="translate(-195.01 -175.58)"/>
        <path id="Path_2749" data-name="Path 2749" class="cls-9" d="M284.64 199.46a8.2 8.2 0 0 1-.79-2.42 20.13 20.13 0 0 1-.39-6.14 20.45 20.45 0 0 1 1.44-6 8.1 8.1 0 0 1 1.21-2.25 32 32 0 0 0-2.13 8.27 32.152 32.152 0 0 0 .66 8.54z" transform="translate(-195.01 -175.58)"/>
        <path id="Path_2750" data-name="Path 2750" class="cls-9" d="M310.43 192.14c-.1 0-.27-1.22-1.09-3a13.8 13.8 0 0 0-12.07-8.14c-2-.09-3.19.21-3.21.12a2.641 2.641 0 0 1 .84-.26 11.569 11.569 0 0 1 2.38-.22 13.33 13.33 0 0 1 12.4 8.39 11.523 11.523 0 0 1 .67 2.29 2.5 2.5 0 0 1 .08.82z" transform="translate(-195.01 -175.58)"/>
        <path id="Path_2751" data-name="Path 2751" class="cls-8" d="M281.29 175.58a5.25 5.25 0 0 1 2.9 1.72 5.15 5.15 0 0 1 1.7 2.91c-.14.06-.79-1.28-2.07-2.55s-2.6-1.93-2.53-2.08z" transform="translate(-195.01 -175.58)"/>
        <path id="Path_2752" data-name="Path 2752" class="cls-9" d="M286 175.6c.15.05-.16 1.11-.1 2.42s.42 2.33.28 2.4a3.38 3.38 0 0 1-.8-2.38 3.34 3.34 0 0 1 .62-2.44z" transform="translate(-195.01 -175.58)"/>
        <path id="Path_2753" data-name="Path 2753" class="cls-10" d="m312.44 279.73 3.29 11.17 20.94-9.47c-.75-2.34-4.22-12.76-10.84-29.3a28.43 28.43 0 0 0-21.71-17.49 124.443 124.443 0 0 0-20-2c-11.74.13-29 7.47-31.34 19-1.78 8.78-.07 24.29-.07 43.13l1.53 36 60.16 2z" transform="translate(-195.01 -175.58)"/>
        <g id="Group_30" data-name="Group 30" class="cls-13" transform="translate(57.73 110.204)">
            <path id="Path_2754" data-name="Path 2754" d="M252.74 286.45c7.32 1.5 14.83 0 22.29-.45 4.52-.27 9.54-.76 13.12 2 2.84 2.2 4 5.91 4.8 9.41 3.12 13.33 3.68 22.27 4.38 35.94l-36.21 2.2z" transform="translate(-252.74 -285.784)"/>
        </g>
        <path id="Path_2755" data-name="Path 2755" class="cls-6" d="M324.07 248.68c0 .15-15.8.26-35.28.26s-35.27-.11-35.27-.26 15.79-.26 35.27-.26 35.28.12 35.28.26z" transform="translate(-195.01 -175.58)"/>
        <path id="Path_2756" data-name="Path 2756" class="cls-6" d="M328.46 258.79c0 .14-17.18.26-38.35.26s-38.35-.12-38.35-.26 17.16-.26 38.35-.26 38.35.12 38.35.26z" transform="translate(-195.01 -175.58)"/>
        <path id="Path_2757" data-name="Path 2757" class="cls-6" d="M334 271.47c0 .15-18.32.26-40.92.26s-40.92-.11-40.92-.26 18.32-.26 40.92-.26 40.92.12 40.92.26z" transform="translate(-195.01 -175.58)"/>
        <path id="Path_2758" data-name="Path 2758" class="cls-6" d="M312 285.15c0 .14-5.73.26-12.78.26s-12.79-.12-12.79-.26 5.72-.26 12.79-.26 12.78.11 12.78.26z" transform="translate(-195.01 -175.58)"/>
        <path id="Path_2759" data-name="Path 2759" class="cls-6" d="M313.17 300c0 .14-6 .21-13.38.15s-13.38-.22-13.38-.37 6-.21 13.38-.15 13.38.2 13.38.37z" transform="translate(-195.01 -175.58)"/>
        <path id="Path_2760" data-name="Path 2760" class="cls-6" d="M313.75 312.05a4 4 0 0 1-1.05.05l-2.87-.06c-2.42-.05-5.76-.12-9.45-.12s-7 .06-9.45.11l-2.87.06a4.1 4.1 0 0 1-1.06 0 4 4 0 0 1 1.05-.16c.67-.07 1.65-.14 2.86-.21 2.42-.15 5.77-.27 9.47-.27s7.05.13 9.46.28c1.21.07 2.19.15 2.87.22a4.329 4.329 0 0 1 1.04.1z" transform="translate(-195.01 -175.58)"/>
        <path id="Path_2761" data-name="Path 2761" class="cls-6" d="M313.56 321.81c0 .14-5.9.26-13.18.26s-13.17-.12-13.17-.26 5.89-.26 13.17-.26 13.18.11 13.18.26z" transform="translate(-195.01 -175.58)"/>
        <path id="Path_2762" data-name="Path 2762" class="cls-6" d="M315.35 238.77c0 .15-11.58.26-25.86.26s-25.87-.11-25.87-.26 11.58-.26 25.87-.26 25.86.12 25.86.26z" transform="translate(-195.01 -175.58)"/>
        <path id="Path_2763" data-name="Path 2763" class="cls-8" d="M314 240.65c0 .06-.6.09-1.6.48a8.45 8.45 0 0 0-3.47 2.81 11.74 11.74 0 0 0-2.07 6.27 39.389 39.389 0 0 0 .64 8.24 134 134 0 0 0 3.36 14.75c.49 1.81.9 3.3 1.21 4.43a11.94 11.94 0 0 1 .39 1.64 9.481 9.481 0 0 1-.58-1.58c-.34-1-.82-2.53-1.38-4.39a115.993 115.993 0 0 1-3.5-14.77 38.791 38.791 0 0 1-.6-8.36 11.86 11.86 0 0 1 2.26-6.45 8.17 8.17 0 0 1 3.69-2.78 6.078 6.078 0 0 1 1.23-.28 1.47 1.47 0 0 1 .42-.01z" transform="translate(-195.01 -175.58)"/>
        <path id="Path_2764" data-name="Path 2764" class="cls-8" d="M336 278.57a19.651 19.651 0 0 1-2.95 1.7c-1.86 1-4.47 2.25-7.39 3.57s-5.6 2.42-7.56 3.17a20.888 20.888 0 0 1-3.22 1.09 23 23 0 0 1 3.08-1.43c1.92-.84 4.58-2 7.49-3.3s5.53-2.55 7.43-3.43a25.076 25.076 0 0 1 3.12-1.37z" transform="translate(-195.01 -175.58)"/>
        <path id="Path_2765" data-name="Path 2765" class="cls-8" d="m272.81 331.36 71.88 2.54a21.45 21.45 0 0 1 20.68 21.76l-3 102.66-27.77-.92 2.07-96.12-63.87-1.68z" transform="translate(-195.01 -175.58)"/>
        <path id="Path_2766" data-name="Path 2766" class="cls-8" d="M243.11 331.36 315 333.9a21.45 21.45 0 0 1 20.68 21.76l-3 102.66-28.14-2.23 2.46-94.81-63.87-1.68z" transform="translate(-195.01 -175.58)"/>
        <path id="Rectangle_69" data-name="Rectangle 69" class="cls-9" transform="translate(94.83 193.07)" d="M0 0h7.07v84.71H0z"/>
        <path id="Path_2767" data-name="Path 2767" class="cls-9" d="M230.51 286.43v62.36a14.81 14.81 0 0 0 14.81 14.81h41.53v-77.17a6.6 6.6 0 0 0-6.6-6.6h-43.14a6.6 6.6 0 0 0-6.6 6.6z" transform="translate(-195.01 -175.58)"/>
        <path id="Path_2768" data-name="Path 2768" class="cls-9" d="M342.73 368.65H241.61a11 11 0 0 1 11-11h79.17a11 11 0 0 1 11 11z" transform="translate(-195.01 -175.58)"/>
        <path id="Path_2769" data-name="Path 2769" class="cls-8" d="M286.85 356.22a3.059 3.059 0 0 1 0 .48 6.421 6.421 0 0 1-.17 1.36 7.47 7.47 0 0 1-5.92 5.63 28.9 28.9 0 0 1-4 .15h-9.09c-6.45 0-12.29 0-16.51-.06l-5-.07-1.36-.05a2.7 2.7 0 0 1-.48-.05 1.579 1.579 0 0 1 .48-.06l1.36-.05 5-.09c4.22-.05 10.06-.08 16.51-.09h9.08a31.2 31.2 0 0 0 3.93-.09 7.2 7.2 0 0 0 3.06-1.3 7.33 7.33 0 0 0 2.73-4 14.491 14.491 0 0 0 .38-1.71z" transform="translate(-195.01 -175.58)"/>
        <path id="Path_2770" data-name="Path 2770" class="cls-8" d="M299.58 368.87a36.5 36.5 0 0 1-6.21.26 36.422 36.422 0 0 1-6.2-.26 37.7 37.7 0 0 1 6.2-.26 37.777 37.777 0 0 1 6.21.26z" transform="translate(-195.01 -175.58)"/>
        <path id="Path_2771" data-name="Path 2771" class="cls-9" d="M330.34 364.14a16.921 16.921 0 0 1-.62-3c-.34-1.92-.79-4.71-1.33-8.15s-.91-7.61-2.81-11.74a28.459 28.459 0 0 0-3.75-6 27.271 27.271 0 0 0-5.64-5.08 25 25 0 0 0-6.84-3.29 25.85 25.85 0 0 0-7-1.21c-4.57-.1-8.75-.08-12.23-.15s-6.31-.1-8.26-.16a16.193 16.193 0 0 1-3-.21 16.927 16.927 0 0 1 3-.2c1.95-.06 4.77-.12 8.26-.16s7.62-.13 12.26-.07a26.73 26.73 0 0 1 14.36 4.59 27.23 27.23 0 0 1 5.84 5.29 28.73 28.73 0 0 1 3.85 6.26c.23.53.42 1.08.63 1.61l.3.8c.07.27.15.54.22.81.15.53.3 1.06.44 1.58s.19 1.05.29 1.56c.35 2.05.54 3.93.78 5.67.44 3.45.79 6.26 1 8.19a17 17 0 0 1 .25 3.06z" transform="translate(-195.01 -175.58)"/>
        <path id="Path_2772" data-name="Path 2772" class="cls-9" d="M324.3 461h-1a30.088 30.088 0 1 0-60.175 0h-.995a31.087 31.087 0 1 1 62.175 0z" transform="translate(-195.01 -175.58)"/>
        <path id="Path_2773" data-name="Path 2773" class="cls-8" d="M267.29 462.58a4.65 4.65 0 1 1-1.362-3.3 4.66 4.66 0 0 1 1.362 3.3z" transform="translate(-195.01 -175.58)"/>
        <path id="Path_2774" data-name="Path 2774" class="cls-8" d="M328.69 461.94a4.66 4.66 0 1 1-4.66-4.66 4.66 4.66 0 0 1 4.66 4.66z" transform="translate(-195.01 -175.58)"/>
        <path id="Path_2775" data-name="Path 2775" class="cls-9" d="M324 453.36c0 .15-13.53.27-30.21.27s-30.21-.12-30.21-.27 13.52-.26 30.21-.26 30.21.12 30.21.26z" transform="translate(-195.01 -175.58)"/>
    </g>
    <g id="freepik--Plants--inject-104" transform="translate(601 610.36)">
        <path id="Path_2776" data-name="Path 2776" d="M220.8 258.77a6.53 6.53 0 0 1 2.9 4.17 11.53 11.53 0 0 1-.16 5.19 19.7 19.7 0 0 1-5.4 8.84c-2.51-2.77-2.66-7.11-2.6-9.32.1-3.49 2.41-9.74 5.26-8.88" transform="translate(-203.55 -194.682)" style="fill:#8fd182"/>
        <path id="Path_2777" data-name="Path 2777" class="cls-7" d="M220.76 282.85a5.54 5.54 0 0 1 2.39-5 7.38 7.38 0 0 1 5.59-1.06 3.1 3.1 0 0 1 2.24 1.34 2.37 2.37 0 0 1-.24 2.39 4.73 4.73 0 0 1-2 1.53c-2.61 1.24-5.36 2-8 .82" transform="translate(-203.55 -194.682)"/>
        <path id="Path_2778" data-name="Path 2778" class="cls-8" d="M216.54 290.17a10.781 10.781 0 0 1 .64-2.14 9.931 9.931 0 0 1 1.11-2.17 21.221 21.221 0 0 1 1.74-2.41 11.09 11.09 0 0 1 4.36-3.18 8.258 8.258 0 0 1 1.59-.41 1.829 1.829 0 0 1 .6 0c0 .07-.84.16-2.09.69a11.86 11.86 0 0 0-4.17 3.18 24.009 24.009 0 0 0-1.74 2.35 11.449 11.449 0 0 0-1.16 2.08 15.38 15.38 0 0 1-.88 2.01z" transform="translate(-203.55 -194.682)"/>
        <path id="Path_2779" data-name="Path 2779" class="cls-8" d="M219.46 263.68a5.721 5.721 0 0 1 0 1.13c0 .72-.1 1.77-.19 3.06-.19 2.59-.5 6.16-.92 10.1s-.92 7.48-1.33 10c-.21 1.28-.38 2.31-.52 3a6.56 6.56 0 0 1-.25 1.1 5.848 5.848 0 0 1 .1-1.13c.11-.78.24-1.81.4-3 .34-2.57.79-6.12 1.22-10.06s.76-7.43 1-10.07c.13-1.24.24-2.27.32-3.06a7.443 7.443 0 0 1 .17-1.07z" transform="translate(-203.55 -194.682)"/>
        <path id="Path_2780" data-name="Path 2780" class="cls-10" d="M216.38 283.64a13 13 0 0 0-7.28-9.35c-1-.43-2.19-.7-2.95 0s-.56 2-.16 2.95a11.06 11.06 0 0 0 10.33 6.65" transform="translate(-203.55 -194.682)"/>
        <path id="Path_2781" data-name="Path 2781" class="cls-8" d="M209.83 277.27a1.89 1.89 0 0 1 .53.26 16.94 16.94 0 0 1 5.17 4.6 9.18 9.18 0 0 1 1.21 2.7 9 9 0 0 1 .27 2.4 8.861 8.861 0 0 1-.19 1.61 2.171 2.171 0 0 1-.16.58c-.08 0 .1-.85.08-2.19a10 10 0 0 0-.33-2.31 9.48 9.48 0 0 0-1.2-2.58 16.419 16.419 0 0 0-3.65-3.73 17.7 17.7 0 0 1-1.73-1.34z" transform="translate(-203.55 -194.682)"/>
        <path id="Path_2782" data-name="Path 2782" class="cls-8" d="M216.05 315.36a12.51 12.51 0 0 1-12.5-12.51v-12.5h25v12.5a12.51 12.51 0 0 1-12.5 12.51z" transform="translate(-203.55 -194.682)"/>
        <path id="Path_2783" data-name="Path 2783" class="cls-2" d="M228.56 296.5a2.351 2.351 0 0 1-.34.35l-1 .93-3.81 3.22-.09.07-.11-.06-7.21-4.33h.21l-6.79 4.32-.1.07-.1-.08-4.15-3.25-1.14-.92a2.1 2.1 0 0 1-.38-.36 1.721 1.721 0 0 1 .45.27c.32.23.72.52 1.2.85l4.23 3.14h-.2l6.71-4.42.11-.07.11.06 7.21 4.42h-.2l3.87-3.13 1.09-.86a3.056 3.056 0 0 1 .43-.22z" transform="translate(-203.55 -194.682)"/>
        <path id="Path_2784" data-name="Path 2784" class="cls-2" d="M228.56 294a2.351 2.351 0 0 1-.34.35l-1 .93-3.77 3.25-.09.07-.11-.06-7.25-4.36h.21l-6.75 4.37-.1.07-.1-.08-4.15-3.25-1.14-.92a2.1 2.1 0 0 1-.38-.36 1.719 1.719 0 0 1 .45.27l1.2.85 4.23 3.14h-.2l6.71-4.42.11-.07.11.06 7.21 4.42h-.2l3.87-3.13 1.09-.86a2.316 2.316 0 0 1 .39-.27z" transform="translate(-203.55 -194.682)"/>
        <path id="Path_2785" data-name="Path 2785" class="cls-2" d="M228.56 299a3.888 3.888 0 0 1-.34.36l-1 .92-3.77 3.25-.09.08-.11-.07-7.25-4.31h.21l-6.75 4.37-.1.07-.1-.07c-1.67-1.32-3.08-2.42-4.15-3.25l-1.14-.93c-.26-.22-.39-.34-.38-.36a2.182 2.182 0 0 1 .45.27c.32.24.72.52 1.2.86l4.23 3.13h-.2l6.71-4.42.11-.07.11.07 7.21 4.41h-.2l3.87-3.14 1.09-.85a1.931 1.931 0 0 1 .39-.32z" transform="translate(-203.55 -194.682)"/>
        <path id="Path_2786" data-name="Path 2786" class="cls-7" d="M552.56 344.72c-5.18.84-7.5 7.2-7 12.43s2.61 10.35 2 15.56c-.73 6.63-5.74 12.23-6.32 18.87-.69 7.83 4.85 14.78 6.5 22.46.81 3.74.7 7.7 2.09 11.26a14.07 14.07 0 0 0 27.17-4.86c.11-6-3.6-11.67-3.15-17.67.33-4.43 2.93-8.63 2.38-13-.67-5.25-5.53-9-7.25-14s-.06-10.52-.66-15.78c-1.06-9.43-6.29-16-15.75-15.25" transform="translate(146.45 -344.682)"/>
        <path id="Path_2787" data-name="Path 2787" d="M526.1 390.39c-.89 8.74 3 19 7.47 26.57a41.66 41.66 0 0 0 19.57 17c.91.38 2.05.7 2.82.08a2.79 2.79 0 0 0 .71-2.24 42.89 42.89 0 0 0-30.57-41.39" transform="translate(146.45 -344.682)" style="fill:#f6d546"/>
        <g id="Group_31" data-name="Group 31" transform="translate(672.422 45.708)" style="opacity:.2">
            <path id="Path_2788" data-name="Path 2788" d="M526.1 390.39c-.89 8.74 3 19 7.47 26.57a41.66 41.66 0 0 0 19.57 17c.91.38 2.05.7 2.82.08a2.79 2.79 0 0 0 .71-2.24 42.89 42.89 0 0 0-30.57-41.39" transform="translate(-525.972 -390.39)"/>
        </g>
        <path id="Path_2789" data-name="Path 2789" class="cls-8" d="M564.17 452.21a2 2 0 0 1-.25-.48l-.63-1.44c-.52-1.24-1.31-3-2.31-5.25a186.158 186.158 0 0 0-8.67-16.79 188.8 188.8 0 0 0-10.38-15.81c-1.43-1.95-2.61-3.52-3.44-4.59-.38-.5-.7-.92-.94-1.25a2.763 2.763 0 0 1-.31-.45 3.194 3.194 0 0 1 .38.39l1 1.19c.88 1 2.1 2.57 3.57 4.5a158.18 158.18 0 0 1 19.11 32.67c1 2.23 1.7 4.05 2.17 5.32l.54 1.47a3.046 3.046 0 0 1 .16.52z" transform="translate(146.45 -344.682)"/>
        <path id="Path_2790" data-name="Path 2790" class="cls-8" d="M558.54 368.9a5.177 5.177 0 0 1 .1.84c0 .59.1 1.39.17 2.41.14 2.13.33 5.15.57 8.85.47 7.48 1.13 17.81 1.94 29.21s1.59 21.73 2.17 29.2c.28 3.7.51 6.71.68 8.85.07 1 .12 1.81.16 2.4a5 5 0 0 1 0 .85s-.05-.29-.12-.84-.15-1.39-.26-2.4c-.2-2.13-.48-5.14-.83-8.83-.67-7.47-1.52-17.78-2.32-29.19s-1.39-21.74-1.8-29.25c-.17-3.71-.31-6.72-.41-8.86 0-1-.06-1.82-.08-2.42a4.469 4.469 0 0 1 .03-.82z" transform="translate(146.45 -344.682)"/>
        <path id="Path_2791" data-name="Path 2791" class="cls-8" d="M550.5 439.75h21.89v16.07a10.51 10.51 0 0 1-10.51 10.5 10.5 10.5 0 0 1-10.49-9.94z" transform="translate(146.45 -344.682)"/>
    </g>
    <g id="freepik--Lamp--inject-104" transform="translate(1022.691 440.485)">
        <path id="Path_2792" data-name="Path 2792" class="cls-19" d="m439.64 227.89 52.2 28.91-1.96 3.68-51.74-29.45 1.5-3.14" transform="translate(-416.45 -175.49)"/>
        <path id="Path_2793" data-name="Path 2793" class="cls-19" d="m437.07 225.16 2.4-3.67 1.4.86-2.15 3.7z" transform="translate(-416.45 -175.49)"/>
        <path id="Path_2794" data-name="Path 2794" class="cls-19" d="m485.91 252.23 2.68 1.54-8.74 55.78-4.14.05z" transform="translate(-416.45 -175.49)"/>
        <path id="Path_2795" data-name="Path 2795" class="cls-19" d="M463.68 315.36s6.37-6.44 14.89-6a18.48 18.48 0 0 1 12.9 5.93z" transform="translate(-416.45 -175.49)"/>
        <path id="Path_2796" data-name="Path 2796" class="cls-19" d="m437.12 250.45-20.67-11.94 6-10.33a11.93 11.93 0 0 1 16.3-4.37 11.94 11.94 0 0 1 4.37 16.3z" transform="translate(-416.45 -175.49)"/>
    </g>
</svg>
