<svg xmlns="http://www.w3.org/2000/svg" width="85" height="85" viewBox="0 0 85 85">
    <defs>
        <style>
            .cls-2{fill:#ffc4c0}.cls-4{fill:#fff}.cls-6{fill:#ff725e}.cls-7{fill:#263238}
        </style>
    </defs>
    <g id="logo" transform="translate(39.21 122.34)">
        <g id="freepik--character-2--inject-29" transform="translate(-244.74 -265.18)">
            <circle id="Ellipse_16" data-name="Ellipse 16" cx="42.5" cy="42.5" r="42.5" transform="translate(205.53 142.84)" style="fill:#f6f9f8"/>
            <path id="Path_2490" data-name="Path 2490" class="cls-2" d="M272.69 220c-.88.63-1.78 1.22-2.7 1.79a42.569 42.569 0 0 1-7 3.37c-.57.22-1.15.42-1.73.62-1.31.43-2.66.8-4 1.1-1.2.26-2.42.48-3.66.64-1.63-2.43-3-4.54-3.89-6.17-.62-1.08-1.44-2.59-2.27-4.29-2.57-5.21-5.28-12.22-2.77-14.13l.14-.1.2-.11.13-.06a2.3 2.3 0 0 1 .73-.19 4.12 4.12 0 0 1 1.06 0 15.47 15.47 0 0 1 5.19 1.82c.47.23.95.49 1.47.78l.2.11c4.26 2.38 11.57 8.46 18.9 14.82z"/>
            <path id="Path_2491" data-name="Path 2491" d="M274.19 218.83c-.49.39-1 .76-1.5 1.12-.88.63-1.78 1.22-2.7 1.79a42.57 42.57 0 0 1-7 3.37c-.57.22-1.15.42-1.73.62-1.31.43-2.66.8-4 1.1-1.2.26-2.42.48-3.66.64l-.74.09c-2.61-4.1-4.81-7.8-6.34-10.69l-.26-.49q-.81-1.57-1.41-3a20.622 20.622 0 0 1-.78-2q-.21-.63-.39-1.23c-.1-.35-.18-.68-.26-1a9.877 9.877 0 0 1-.18-1 8.8 8.8 0 0 1-.12-2.24 4.9 4.9 0 0 1 .35-1.58 3.449 3.449 0 0 1 .35-.66l.21-.28a3.074 3.074 0 0 1 .25-.26 2 2 0 0 1 .27-.22l.12-.08.14-.1.2-.11.13-.06a4 4 0 0 1 .64-.23 9.26 9.26 0 0 1 5.22.67 23.144 23.144 0 0 1 2.77 1.15 42.549 42.549 0 0 1 5.08 3 190.964 190.964 0 0 1 15.34 11.68z" style="fill:#ff715e"/>
            <path id="Path_2492" data-name="Path 2492" class="cls-4" d="M255.54 209.78c-.24-.23-.48-.45-.74-.67l-.27-.22-.2-.15a2.539 2.539 0 0 0-.34-.23l-.34-.22-.2-.11-.13-.06-.42-.19a6.5 6.5 0 0 0 .34.7 10.159 10.159 0 0 0 1.52 2l.67.61.55.43a6.839 6.839 0 0 0 1.4.79 8.6 8.6 0 0 0-1.84-2.68zm0 0c-.24-.23-.48-.45-.74-.67l-.27-.22-.2-.15a2.539 2.539 0 0 0-.34-.23l-.34-.22-.2-.11-.13-.06-.42-.19a6.5 6.5 0 0 0 .34.7 10.159 10.159 0 0 0 1.52 2l.67.61.55.43a6.839 6.839 0 0 0 1.4.79 8.6 8.6 0 0 0-1.84-2.68z"/>
            <path id="Path_2493" data-name="Path 2493" d="M270 221.74a42.569 42.569 0 0 1-7 3.37c-.57.22-1.15.42-1.73.62-1.31.43-2.66.8-4 1.1-1.2.26-2.42.48-3.66.64l-.74.09c-2.61-4.1-4.81-7.8-6.34-10.69l-.26-.49q-.81-1.57-1.41-3a20.622 20.622 0 0 1-.78-2q-.21-.63-.39-1.23c-.1-.35-.18-.68-.26-1a13.094 13.094 0 0 1-.3-3.24 4.9 4.9 0 0 1 .35-1.58 3.448 3.448 0 0 1 .35-.66l.21-.28a3.073 3.073 0 0 1 .25-.26 2 2 0 0 1 .27-.22l.12-.08.14-.1.2-.11.13-.06a4.129 4.129 0 0 1 .65-.22 4.741 4.741 0 0 1 .89-.14l.22.18 3.54 3 2.87 2.4 1.37 1.15z" style="opacity:.1"/>
            <path id="Path_2494" data-name="Path 2494" class="cls-6" d="M261.3 225.73c-1.31.43-2.66.8-4 1.1-1.2.26-2.42.48-3.66.64l-.74.09a42.78 42.78 0 0 1-18.55-2h-.21l-.48-.17a42.62 42.62 0 0 1-11.66-6.48c1.19-2.09 2.29-3.93 3.32-5.54.74-1.16 1.43-2.2 2.09-3.13 3.49-5 5.9-7 7.78-8l.35-.17a3 3 0 0 1 .41-.19c.25-.11.49-.19.72-.27a20.83 20.83 0 0 1 7.93-.77A12 12 0 0 1 251 203a5.32 5.32 0 0 1 1.14 1.28q.52.83 1 1.71l.36.64c.42.76.83 1.54 1.23 2.36a.51.51 0 0 1 .07.15c.2.41.4.82.6 1.25s.4.84.59 1.28a132.772 132.772 0 0 1 5.19 13.74 1.952 1.952 0 0 1 .12.32z"/>
            <path id="Path_2495" data-name="Path 2495" class="cls-4" d="M246.79 224a8.56 8.56 0 0 0-3.19.56 8.37 8.37 0 0 0 3.19.56 8.54 8.54 0 0 0 3.2-.56 8.54 8.54 0 0 0-3.2-.56zm-18.16-14.56c-.15.07-.29.16-.43.24a3.617 3.617 0 0 0-.41.27.831.831 0 0 0-.18.13l-.21.15c-.32.25-.61.52-.9.79a8.8 8.8 0 0 0-1.87 2.66 6 6 0 0 0 .72-.35 9.611 9.611 0 0 0 1.94-1.51 8.48 8.48 0 0 0 1.86-2.66zm26.77.94c-.2-.42-.4-.84-.61-1.25l-.27-.22-.2-.15a2.543 2.543 0 0 0-.34-.23l-.34-.22-.2-.11-.13-.07-.42-.19a6.5 6.5 0 0 0 .34.7 10.16 10.16 0 0 0 1.52 2l.67.61.55.43a13.425 13.425 0 0 0-.57-1.32zm0 0c-.2-.42-.4-.84-.61-1.25l-.27-.22-.2-.15a2.543 2.543 0 0 0-.34-.23l-.34-.22-.2-.11-.13-.07-.42-.19a6.5 6.5 0 0 0 .34.7 10.16 10.16 0 0 0 1.52 2l.67.61.55.43a13.425 13.425 0 0 0-.57-1.32z"/>
            <path id="Path_2496" data-name="Path 2496" class="cls-2" d="M238.21 209.27a49.051 49.051 0 0 1-2.06 8.68c-.86 2.68-1.71 5.13-2.54 7.38a42.62 42.62 0 0 1-11.61-6.42c-.84-.65-1.66-1.34-2.44-2 1.42-1.89 2.85-3.72 4.27-5.47 4.72-5.81 8.76-9 11.38-9.19h.3c2.2-.07 3.28 2.23 2.7 7.02z"/>
            <path id="Path_2497" data-name="Path 2497" class="cls-6" d="M238.77 210.11a42.62 42.62 0 0 1-1 5.36 67.072 67.072 0 0 1-2.56 7.47l-1.06 2.59h-.1l-.48-.17a42.62 42.62 0 0 1-11.57-6.45c-.84-.65-1.66-1.34-2.44-2l-.81-.75a72.737 72.737 0 0 1 8.6-9.43c3.86-3.4 6.49-4.76 8.26-4.84h.36c3.03.11 3.21 4.47 2.8 8.22z"/>
            <path id="Path_2498" data-name="Path 2498" class="cls-4" d="M228.63 209.42c-.15.07-.29.16-.43.24a3.618 3.618 0 0 0-.41.27.829.829 0 0 0-.18.13l-.23.18c-.32.25-.61.52-.9.79a8.8 8.8 0 0 0-1.87 2.66 6 6 0 0 0 .72-.35 9.61 9.61 0 0 0 1.94-1.51 8.48 8.48 0 0 0 1.86-2.66z"/>
            <path id="Path_2499" data-name="Path 2499" class="cls-7" d="M235.25 222.94c-.31.87-.63 1.74-.95 2.6h-.21c.37-.85.74-1.7 1.09-2.56z"/>
            <path id="Path_2500" data-name="Path 2500" class="cls-2" d="M247.76 217c-4.51.16-10.61-7.88-12.48-13.79-.12-.41 1.2-4.15 2.59-8.78.83-2.81 1.69-6 2.27-8.9.12-.6 17.51 8.1 17.51 8.1a47.571 47.571 0 0 0-4 10.9 6.688 6.688 0 0 0-.11 1.23v.2c-.09 2.39-1.42 10.9-5.78 11.04z"/>
            <path id="Path_2501" data-name="Path 2501" class="cls-7" d="M241.26 185.86c-.13 5.13.59 17.71 10.36 19.87a10.517 10.517 0 0 0 1.9.26 1.679 1.679 0 0 0 0-.2 7.547 7.547 0 0 1 .1-1.23 47.54 47.54 0 0 1 4-10.91s-12.52-6.27-16.36-7.79z"/>
            <path id="Path_2502" data-name="Path 2502" class="cls-2" d="M237 166.28c-1.88 6.68 2 25.8 6.85 30 7 6.06 18.2 6.41 23.3-1.93 4.94-8.09-.6-32.92-6-36.69-7.85-5.59-21.35-1.26-24.15 8.62z"/>
            <path id="Path_2503" data-name="Path 2503" class="cls-7" d="M253.75 178.35s-.09.09-.07.14c.34 1.27.52 2.78-.53 3.48v.07c1.39-.54 1.13-2.54.6-3.69z"/>
            <path id="Path_2504" data-name="Path 2504" class="cls-7" d="M252.29 177.29c-2.1.34-1.27 4.5.67 4.19s1.04-4.48-.67-4.19z"/>
            <path id="Path_2505" data-name="Path 2505" class="cls-7" d="M261.14 176.87c0-.05.11 0 .12.09.22 1.3.68 2.75 1.93 2.95 0 0 .05.07 0 .07-1.46.08-2.06-1.85-2.05-3.11z"/>
            <path id="Path_2506" data-name="Path 2506" class="cls-7" d="M262 175.29c2-.56 3 3.56 1.14 4.09s-2.83-3.61-1.14-4.09z"/>
            <path id="Path_2507" data-name="Path 2507" class="cls-7" d="M250.33 175.25c.54-.26 1-.58 1.51-.88a2.886 2.886 0 0 0 1.36-1.19.89.89 0 0 0-.35-1 2.19 2.19 0 0 0-2.24.2 3.3 3.3 0 0 0-1.59 1.74 1 1 0 0 0 1.31 1.13z"/>
            <path id="Path_2508" data-name="Path 2508" class="cls-7" d="M263.56 173.6a16.909 16.909 0 0 1-1.74 0 2.9 2.9 0 0 1-1.79-.31.9.9 0 0 1-.24-1.07 2.22 2.22 0 0 1 2-1 3.29 3.29 0 0 1 2.26.67 1 1 0 0 1-.49 1.71z"/>
            <path id="Path_2509" data-name="Path 2509" class="cls-7" d="M254.54 189.65c.27.35.51.82 1 .93a3.36 3.36 0 0 0 1.44-.11l.05.08a1.81 1.81 0 0 1-1.76.45 1.41 1.41 0 0 1-.84-1.31c-.03-.08.07-.09.11-.04z"/>
            <path id="Path_2510" data-name="Path 2510" class="cls-7" d="M255.65 185.88a4.43 4.43 0 0 0 3.32 1.37 5.779 5.779 0 0 0 1.59-.24 1.4 1.4 0 0 0 .29-.09l.28-.1a.33.33 0 0 0 .2-.34.5.5 0 0 0 0-.13v-.11c-.17-1-.56-2.49-.56-2.49.39.11 2.41.57 2.28.06a67.521 67.521 0 0 0-4.34-12.95.122.122 0 1 0-.23.08c.9 4.12 2.52 8.05 3.5 12.18a7.889 7.889 0 0 0-2.2-.22c-.13.07.82 2.87.86 3.32v.05a6.21 6.21 0 0 1-4.82-.51c-.18-.07-.27.03-.17.12z"/>
            <path id="Path_2511" data-name="Path 2511" class="cls-7" d="M236.26 181.24c5.07.25 7.59-5.85 6.3-10.69 0 0 13.51 1.51 13.93-9.32a10.63 10.63 0 0 0 8.86 4.67l1.59 3.95c1.37-.43 2.76-4.39-.69-7.4 0 0-.34-5.38-4.39-8.53a7.33 7.33 0 0 0-7.94-.94 11.14 11.14 0 0 0-8.17-1.84 9.54 9.54 0 0 0-6.9 5.31s-6.64 1.42-7.68 6.19a9.82 9.82 0 0 0 1.48 7.89s-1.63 1.89-.7 5.92c.6 2.55 2.78 4.71 4.31 4.79z"/>
            <path id="Path_2512" data-name="Path 2512" class="cls-7" d="M256.17 160.27a12.3 12.3 0 0 1 .08 2.64 10.551 10.551 0 0 1-.43 2.57 6.83 6.83 0 0 1-3 4 11.11 11.11 0 0 1-4.94 1.35h-2.63c-.88 0-1.76-.16-2.65-.22.86.2 1.74.35 2.62.52a23.805 23.805 0 0 0 2.68.19 10.85 10.85 0 0 0 5.24-1.3 7.11 7.11 0 0 0 3.18-4.35 10.72 10.72 0 0 0-.15-5.4z"/>
            <path id="Path_2513" data-name="Path 2513" class="cls-7" d="M263.24 166.38a14.16 14.16 0 0 1-4.13-2.12 8.19 8.19 0 0 1-1.61-1.61 10.29 10.29 0 0 1-1.18-2 5.94 5.94 0 0 0 .78 2.29 6.23 6.23 0 0 0 1.63 1.84 7.86 7.86 0 0 0 2.15 1.16 7.38 7.38 0 0 0 2.36.44z"/>
            <path id="Path_2514" data-name="Path 2514" class="cls-2" d="M241.45 181.83s-4.6-6-7.35-4.36.88 10.52 4.24 11.61a3.36 3.36 0 0 0 4.43-2z"/>
            <path id="Path_2515" data-name="Path 2515" class="cls-7" d="M235.21 180v.09c2.36.84 3.67 2.94 4.61 5.13a1.85 1.85 0 0 0-2.79-.39.07.07 0 0 0 .06.12 2.09 2.09 0 0 1 2.31.63 10.24 10.24 0 0 1 1.16 1.8c.12.2.49.07.4-.16v-.06c-.1-2.97-2.57-7.01-5.75-7.16z"/>
            <g id="Group_25" data-name="Group 25" style="opacity:.2">
                <path id="Path_2516" data-name="Path 2516" d="M247.53 183.62a.32.32 0 0 1-.32.3.33.33 0 0 1-.3-.32.31.31 0 0 1 .62 0z"/>
                <path id="Path_2517" data-name="Path 2517" d="M254 183.6a.31.31 0 0 1-.61 0 .3.3 0 0 1 .32-.29.31.31 0 0 1 .29.29z"/>
                <path id="Path_2518" data-name="Path 2518" d="M251.6 185.75a.32.32 0 0 1-.32.3.3.3 0 0 1-.29-.32.31.31 0 0 1 .32-.3.3.3 0 0 1 .29.32z"/>
                <path id="Path_2519" data-name="Path 2519" d="M247.81 181.1a.31.31 0 0 1-.32.29.3.3 0 0 1-.29-.32.31.31 0 1 1 .61 0z"/>
                <path id="Path_2520" data-name="Path 2520" d="M250.76 183a.31.31 0 0 1-.32.3.3.3 0 0 1-.29-.32.32.32 0 0 1 .32-.3.3.3 0 0 1 .29.32z"/>
                <path id="Path_2521" data-name="Path 2521" d="M266.74 179.2a.3.3 0 0 1-.32.29.289.289 0 1 1 .32-.32z"/>
                <path id="Path_2522" data-name="Path 2522" d="M264.28 180.84a.3.3 0 0 1-.32.29.32.32 0 0 1-.3-.32.3.3 0 0 1 .32-.29.32.32 0 0 1 .3.32z"/>
                <path id="Path_2523" data-name="Path 2523" d="M264.8 182.89a.31.31 0 0 1-.32.29.3.3 0 0 1-.29-.32.31.31 0 0 1 .61 0z"/>
                <path id="Path_2524" data-name="Path 2524" d="M267 181.57a.3.3 0 0 1-.32.29.31.31 0 1 1 0-.61.32.32 0 0 1 .32.32z"/>
            </g>
        </g>
    </g>
</svg>
