<svg xmlns="http://www.w3.org/2000/svg" width="600.515" height="600" viewBox="0 0 600.515 600">
    <defs>
        <style>
            .cls-1{fill:#92e3a9}.cls-11,.cls-19,.cls-3,.cls-5{fill:#fff}.cls-18,.cls-4{fill:#263238}.cls-5{opacity:.9}.cls-11,.cls-12,.cls-13,.cls-14,.cls-18,.cls-19,.cls-22,.cls-9{stroke:#263238}.cls-11,.cls-12,.cls-13,.cls-14{stroke-miterlimit:10}.cls-11,.cls-12,.cls-13,.cls-14,.cls-18,.cls-19,.cls-23,.cls-9{stroke-width:1.029px}.cls-12,.cls-22,.cls-23,.cls-9{fill:none}.cls-18,.cls-19,.cls-22,.cls-23,.cls-9{stroke-linecap:round;stroke-linejoin:round}.cls-13{fill:#ff725e}.cls-14{fill:#c4a937}.cls-15{opacity:.3}.cls-22{stroke-width:2.059px}.cls-23{stroke:#fff;opacity:.47}
        </style>
    </defs>
    <g id="Version_control-bro" data-name="Version control-bro" transform="translate(-25.415 -71.643)">
        <g id="freepik--background-simple--inject-40" transform="translate(79.419 71.643)">
            <path id="Path_3003" data-name="Path 3003" class="cls-1" d="M606.145 421.111A623.057 623.057 0 0 0 625.869 272.3c.69-51.942-4.138-108.106-33.1-147.038-28.442-38.068-74.084-51.078-117.022-53.295-17.393-.88-35.159-.293-51.67 6.228-33.338 13.173-56.7 48.11-86.277 70.576C280.706 192.134 203.574 187 148.69 234.18a177.023 177.023 0 0 0-36.19 44.263c-40 67.739-43.132 161.58-12.593 235.889s91.874 128.24 159.75 148.068 141.119 6.733 204.017-29.346c73.284-42.048 118.926-122.537 142.471-211.943z" transform="translate(-79.419 -71.643)"/>
            <path id="Path_3004" data-name="Path 3004" d="M606.145 421.111A623.057 623.057 0 0 0 625.869 272.3c.69-51.942-4.138-108.106-33.1-147.038-28.442-38.068-74.084-51.078-117.022-53.295-17.393-.88-35.159-.293-51.67 6.228-33.338 13.173-56.7 48.11-86.277 70.576C280.706 192.134 203.574 187 148.69 234.18a177.023 177.023 0 0 0-36.19 44.263c-40 67.739-43.132 161.58-12.593 235.889s91.874 128.24 159.75 148.068 141.119 6.733 204.017-29.346c73.284-42.048 118.926-122.537 142.471-211.943z" transform="translate(-79.419 -71.643)" style="opacity:.7;fill:#fff"/>
        </g>
        <g id="freepik--Window--inject-40" transform="translate(87.4 83.08)">
            <path id="Path_3005" data-name="Path 3005" class="cls-3" d="M387.88 94.31v208.46A11.22 11.22 0 0 1 376.65 314h-278a11.21 11.21 0 0 1-11.25-11.23V94.31a11.22 11.22 0 0 1 11.22-11.23h278a11.22 11.22 0 0 1 11.26 11.23z" transform="translate(-87.4 -83.08)"/>
            <path id="Path_3006" data-name="Path 3006" class="cls-4" d="M387.88 100.75v202A11.22 11.22 0 0 1 376.65 314h-278a11.1 11.1 0 0 1-3.12-.44z" transform="translate(-87.4 -83.08)"/>
            <path id="Path_3007" data-name="Path 3007" class="cls-5" d="M387.88 100.75v202A11.22 11.22 0 0 1 376.65 314h-278a11.1 11.1 0 0 1-3.12-.44z" transform="translate(-87.4 -83.08)"/>
            <path id="Path_3008" data-name="Path 3008" d="m310.81 213.6 15.19-6.84-3.24-18.11-16.76-1.34a68.669 68.669 0 0 0-8.39-15.75l5.24-8.87 3.35-5.69-13-12.9-14.55 8.74a71.24 71.24 0 0 0-27.84-11.48l-4.19-16.68h-18.36l-4.26 16.8a77.09 77.09 0 0 0-16.48 5.3l-13.19-11.36-15.05 10.25 6.26 16.25a68.07 68.07 0 0 0-10.25 13.72l-17.32-1.75-6.23 17.29 14.26 9.73a70.22 70.22 0 0 0-1 12.29 36 36 0 0 0 0 5.09l-15.14 8.5 4.8 17.71h17.1a72.688 72.688 0 0 0 5.74 10.13q1.68 2.47 3.55 4.81l-7.38 15.25 14.13 11.85 13.63-10.21a71.769 71.769 0 0 0 16.48 6.95l2.73 16.48 18.36 1.63 5.5-15.54a77.67 77.67 0 0 0 17.6-3.85l11.65 11.64 15.95-9.2-4.39-15.88a71.86 71.86 0 0 0 12.28-13.26l16.16 2.9 7.78-16.66-12.7-10.24a73.291 73.291 0 0 0 1.98-17.7zm-41.95 0a31.21 31.21 0 1 1-9.21-22.14c.56.56 1.11 1.14 1.61 1.75a31 31 0 0 1 7.6 20.19z" transform="translate(-87.4 -83.08)" style="stroke-width:1.029px;stroke-miterlimit:10;stroke:#263238;fill:#217d68"/>
            <path id="Path_3009" data-name="Path 3009" d="m308.83 231.25 12.7 10.24-7.78 16.66-16.16-2.9a71.862 71.862 0 0 1-12.28 13.26l4.39 15.88-15.95 9.2L262.1 282a77.668 77.668 0 0 1-17.62 3.9L239 301.39l-18.35-1.63-2.73-16.48a71.77 71.77 0 0 1-16.48-6.95l-13.63 10.21-14.13-11.85 7.32-15.25q-1.87-2.34-3.55-4.81L211.07 230a31.23 31.23 0 0 0 57.79-16.41v-.2a31 31 0 0 0-7.6-20.19l41.63-30.52-5.24 8.87a68.671 68.671 0 0 1 8.35 15.76l16.68 1.34 3.32 18.11-15.15 6.84a73.293 73.293 0 0 1-2.02 17.65z" transform="translate(-87.4 -83.08)" style="opacity:.2"/>
            <path id="Path_3010" data-name="Path 3010" d="m373.92 165.46.76-.35a2.06 2.06 0 0 0 1.2-2.26l-.16-.93a2.06 2.06 0 0 0-1.89-1.72l-.92-.07a2.07 2.07 0 0 1-1.71-1.13c-.25-.53-.51-1-.8-1.53a2.05 2.05 0 0 1 0-2.06l.47-.8a2.1 2.1 0 0 0-.33-2.54l-.66-.66a2 2 0 0 0-2.55-.31l-.81.48a2.05 2.05 0 0 1-2.06 0 16.61 16.61 0 0 0-4.19-1.7 2.06 2.06 0 0 1-1.48-1.51l-.24-1a2.05 2.05 0 0 0-2.06-1.59h-.92a2.05 2.05 0 0 0-2.06 1.58l-.26 1a2.08 2.08 0 0 1-1.45 1.49c-.52.14-1 .3-1.51.48a2.06 2.06 0 0 1-2.06-.38l-.83-.71a2.06 2.06 0 0 0-2.53-.14l-.73.49a2.07 2.07 0 0 0-.77 2.48l.37 1a2.08 2.08 0 0 1-.32 2.06c-.33.39-.64.8-.93 1.22a2 2 0 0 1-1.91.89l-1-.1a2.06 2.06 0 0 0-2.17 1.37l-.33.91a2.06 2.06 0 0 0 .75 2.41l.95.67a2.06 2.06 0 0 1 .86 1.88 14.647 14.647 0 0 0-.08 1.62 2.15 2.15 0 0 1-1 1.75l-1 .53a2.06 2.06 0 0 0-1 2.38l.24.9a2.06 2.06 0 0 0 2.06 1.54h1a2.06 2.06 0 0 1 1.8 1 16.54 16.54 0 0 0 .89 1.43 2.06 2.06 0 0 1 .16 2.06l-.42.87a2.06 2.06 0 0 0 .54 2.51l.71.6a2.06 2.06 0 0 0 2.57.09l.73-.51a2.06 2.06 0 0 1 2.06-.2c.52.25 1.05.48 1.6.68a2.05 2.05 0 0 1 1.31 1.59l.15.89a2.05 2.05 0 0 0 1.9 1.72l.94.09a2.07 2.07 0 0 0 2.14-1.39l.29-.81a2.08 2.08 0 0 1 1.6-1.35 14.8 14.8 0 0 0 1.73-.37 2 2 0 0 1 2 .55l.61.62a2.06 2.06 0 0 0 2.52.34l.82-.47a2.06 2.06 0 0 0 1-2.37l-.23-.81a2.07 2.07 0 0 1 .52-2.06 16.871 16.871 0 0 0 1.22-1.32 2 2 0 0 1 2-.7l.82.15a2 2 0 0 0 2.27-1.17l.39-.85a2.05 2.05 0 0 0-.58-2.51l-.62-.5a2.06 2.06 0 0 1-.76-1.92 16.331 16.331 0 0 0 .19-1.85 2.06 2.06 0 0 1 1.19-1.67zm-7.39.54a10.44 10.44 0 1 1-10.44-10.44 10.41 10.41 0 0 1 10.42 10.37z" transform="translate(-87.4 -83.08)" style="fill:#293f42;stroke-width:1.029px;stroke-miterlimit:10;stroke:#263238"/>
            <path id="Path_3011" data-name="Path 3011" class="cls-4" d="M387.88 94.31v.57H87.4v-.57a11.22 11.22 0 0 1 11.22-11.23h278a11.22 11.22 0 0 1 11.26 11.23z" transform="translate(-87.4 -83.08)"/>
            <path id="Path_3012" data-name="Path 3012" class="cls-9" d="M387.88 94.31v208.46A11.22 11.22 0 0 1 376.65 314h-278a11.22 11.22 0 0 1-11.25-11.23V94.31a11.22 11.22 0 0 1 11.22-11.23h278a11.22 11.22 0 0 1 11.26 11.23z" transform="translate(-87.4 -83.08)"/>
            <path id="Line_20" data-name="Line 20" class="cls-9" transform="translate(0 11.23)" d="M0 0h300.48"/>
            <path id="Path_3013" data-name="Path 3013" class="cls-1" d="M112.45 89a2.28 2.28 0 1 1-2.28-2.28 2.28 2.28 0 0 1 2.28 2.28z" transform="translate(-87.4 -83.08)"/>
            <path id="Path_3014" data-name="Path 3014" class="cls-1" d="M123.24 89a2.28 2.28 0 1 1-2.24-2.3 2.28 2.28 0 0 1 2.24 2.3z" transform="translate(-87.4 -83.08)"/>
            <path id="Path_3015" data-name="Path 3015" class="cls-1" d="M134 89a2.28 2.28 0 1 1-2.28-2.28A2.28 2.28 0 0 1 134 89z" transform="translate(-87.4 -83.08)"/>
            <path id="Path_3016" data-name="Path 3016" d="M285.63 213.6a47.73 47.73 0 1 1-47.73-47.73 47.73 47.73 0 0 1 47.73 47.43z" transform="translate(-87.4 -83.08)" style="stroke-width:4.117px;fill:none;stroke-miterlimit:10;stroke:#263238"/>
        </g>
        <g id="freepik--Graphics--inject-40" transform="translate(25.93 106)">
            <rect id="Rectangle_153" data-name="Rectangle 153" class="cls-11" width="192.32" height="60.15" rx="11.22" transform="translate(406.066)"/>
            <path id="Line_21" data-name="Line 21" class="cls-12" transform="translate(435.636 30.075)" d="M0 0h131.07"/>
            <path id="Path_3017" data-name="Path 3017" class="cls-12" d="m311.27 135.81 20.7-14.59h52.72l21.51 14.59" transform="translate(165.504 -106)"/>
            <path id="Path_3018" data-name="Path 3018" class="cls-13" d="M410.28 135.81a4.09 4.09 0 1 1-4.08-4.09 4.09 4.09 0 0 1 4.08 4.09z" transform="translate(124.366 -106)"/>
            <circle id="Ellipse_32" data-name="Ellipse 32" class="cls-13" cx="4.09" cy="4.09" r="4.09" transform="translate(495.112 11.13)"/>
            <path id="Path_3019" data-name="Path 3019" class="cls-13" d="M388.77 121.22a4.09 4.09 0 1 1-4.08-4.08 4.09 4.09 0 0 1 4.08 4.08z" transform="translate(165.24 -106)"/>
            <path id="Path_3020" data-name="Path 3020" class="cls-12" d="m311.27 135.81 20.7 14.59h97.16l17.3-14.59" transform="translate(124.366 -106)"/>
            <path id="Path_3021" data-name="Path 3021" class="cls-13" d="M367.71 150.4a4.09 4.09 0 1 1-4.09-4.09 4.09 4.09 0 0 1 4.09 4.09z" transform="translate(88.045 -106)"/>
            <path id="Path_3022" data-name="Path 3022" class="cls-13" d="M336.06 150.4a4.09 4.09 0 1 1-4.09-4.09 4.09 4.09 0 0 1 4.09 4.09z" transform="translate(147.232 -106)"/>
            <path id="Path_3023" data-name="Path 3023" class="cls-13" d="M433.22 150.4a4.09 4.09 0 1 1-4.09-4.09 4.09 4.09 0 0 1 4.09 4.09z" transform="translate(124.366 -106)"/>
            <circle id="Ellipse_33" data-name="Ellipse 33" class="cls-13" cx="4.09" cy="4.09" r="4.09" transform="translate(566.706 25.72)"/>
            <path id="Path_3024" data-name="Path 3024" class="cls-13" d="M315.36 135.81a4.09 4.09 0 1 1-4.08-4.09 4.09 4.09 0 0 1 4.08 4.09z" transform="translate(140.16 -106)"/>
            <rect id="Rectangle_154" data-name="Rectangle 154" class="cls-11" width="120.31" height="120.31" rx="11.22" transform="translate(87.05 256.7)"/>
            <path id="Path_3025" data-name="Path 3025" class="cls-9" d="m128.09 301.39-15.58 30.29h70.62" transform="translate(-1.457 24)"/>
            <path id="Path_3026" data-name="Path 3026" class="cls-9" d="m183.13 255.63-32.96 21.91 32.96 9.92" transform="translate(-10.949 24)"/>
            <path id="Rectangle_155" data-name="Rectangle 155" class="cls-14" transform="translate(171.33 271.84)" d="M0 0h15.58v15.58H0z"/>
            <path id="Rectangle_156" data-name="Rectangle 156" class="cls-14" transform="translate(171.33 303.67)" d="M0 0h15.58v15.58H0z"/>
            <path id="Rectangle_157" data-name="Rectangle 157" class="cls-14" transform="translate(126.916 293.75)" d="M0 0h15.58v15.58H0z"/>
            <path id="Rectangle_158" data-name="Rectangle 158" class="cls-14" transform="translate(117.163 317.6)" d="M0 0h15.58v15.58H0z"/>
            <path id="Rectangle_159" data-name="Rectangle 159" class="cls-14" transform="translate(96.169 347.88)" d="M0 0h15.58v15.58H0z"/>
            <path id="Rectangle_160" data-name="Rectangle 160" class="cls-14" transform="translate(181.33 347.88)" d="M0 0h15.58v15.58H0z"/>
            <rect id="Rectangle_161" data-name="Rectangle 161" class="cls-11" width="120.31" height="120.31" rx="11.22" transform="translate(0 79.55)"/>
            <path id="Rectangle_162" data-name="Rectangle 162" class="cls-1" transform="translate(12.73 91.19)" d="M0 0h80.03v6.2H0z"/>
            <path id="Rectangle_163" data-name="Rectangle 163" class="cls-1" transform="translate(12.73 101.4)" d="M0 0h46.24v6.2H0z"/>
            <path id="Rectangle_164" data-name="Rectangle 164" class="cls-1" transform="translate(12.73 111.61)" d="M0 0h26.93v6.2H0z"/>
            <path id="Rectangle_165" data-name="Rectangle 165" class="cls-1" transform="translate(12.73 121.81)" d="M0 0h44.32v6.2H0z"/>
            <path id="Rectangle_166" data-name="Rectangle 166" class="cls-1" transform="translate(12.73 132.02)" d="M0 0h69.09v6.2H0z"/>
            <path id="Rectangle_167" data-name="Rectangle 167" class="cls-1" transform="translate(12.73 142.22)" d="M0 0h46.24v6.2H0z"/>
            <path id="Rectangle_168" data-name="Rectangle 168" class="cls-1" transform="translate(12.73 152.43)" d="M0 0h32.26v6.2H0z"/>
            <path id="Rectangle_169" data-name="Rectangle 169" class="cls-1" transform="translate(12.73 162.64)" d="M0 0h52.23v6.2H0z"/>
            <path id="Rectangle_170" data-name="Rectangle 170" class="cls-1" transform="translate(12.73 172.84)" d="M0 0h63.32v6.2H0z"/>
            <path id="Rectangle_171" data-name="Rectangle 171" class="cls-1" transform="translate(12.73 183.05)" d="M0 0h80.03v6.2H0z"/>
            <path id="Rectangle_172" data-name="Rectangle 172" class="cls-15" transform="translate(12.73 91.19)" d="M0 0h80.03v6.2H0z"/>
            <path id="Rectangle_173" data-name="Rectangle 173" class="cls-15" transform="translate(12.73 101.4)" d="M0 0h46.24v6.2H0z"/>
            <path id="Rectangle_174" data-name="Rectangle 174" class="cls-15" transform="translate(12.73 111.61)" d="M0 0h26.93v6.2H0z"/>
            <path id="Rectangle_175" data-name="Rectangle 175" class="cls-15" transform="translate(12.73 121.81)" d="M0 0h44.32v6.2H0z"/>
            <path id="Rectangle_176" data-name="Rectangle 176" class="cls-15" transform="translate(12.73 132.02)" d="M0 0h69.09v6.2H0z"/>
            <path id="Rectangle_177" data-name="Rectangle 177" class="cls-15" transform="translate(12.73 142.22)" d="M0 0h46.24v6.2H0z"/>
            <path id="Rectangle_178" data-name="Rectangle 178" class="cls-15" transform="translate(12.73 152.43)" d="M0 0h32.26v6.2H0z"/>
            <path id="Rectangle_179" data-name="Rectangle 179" class="cls-15" transform="translate(12.73 162.64)" d="M0 0h52.23v6.2H0z"/>
            <path id="Rectangle_180" data-name="Rectangle 180" class="cls-15" transform="translate(12.73 172.84)" d="M0 0h63.32v6.2H0z"/>
            <path id="Rectangle_181" data-name="Rectangle 181" class="cls-15" transform="translate(12.73 183.05)" d="M0 0h80.03v6.2H0z"/>
            <path id="Path_3027" data-name="Path 3027" class="cls-11" d="M90.19 175h29.12a5.3 5.3 0 0 1 5.3 5.3v5.27H84.89v-5.27a5.3 5.3 0 0 1 5.3-5.3z" transform="translate(-25.93 -106)"/>
            <path id="Path_3028" data-name="Path 3028" d="M70.5 175h28.78a5.48 5.48 0 0 1 5.48 5.48v5.1H65v-5.1a5.48 5.48 0 0 1 5.5-5.48z" transform="translate(-25.93 -106)" style="stroke-width:1.029px;stroke-miterlimit:10;stroke:#263238;fill:#92e3a9"/>
            <path id="Path_3029" data-name="Path 3029" class="cls-11" d="M48.37 175h29.48a5.13 5.13 0 0 1 5.15 5.1v5.45H43.25v-5.45a5.13 5.13 0 0 1 5.12-5.1z" transform="translate(-25.93 -106)"/>
        </g>
        <g id="freepik--Table--inject-40" transform="translate(78.67 556.302)">
            <path id="Line_22" data-name="Line 22" class="cls-9" transform="translate(494.806 71.21)" d="M0 0h21.87"/>
            <path id="Line_23" data-name="Line 23" class="cls-9" transform="translate(0 71.21)" d="M0 0h483.296"/>
            <g id="freepik--Coffee--inject-189--inject-40" transform="translate(465.786 46.61)">
                <path id="Path_3030" data-name="Path 3030" d="M417.18 382.73s3.87-3.17 5.72.29c1.59 3-2.22 6.35-6.57 6.35v2.53s9.32.25 10-7.6-9.19-5.68-9.19-5.68z" transform="translate(-394.16 -370.94)" style="stroke-linecap:round;stroke-linejoin:round;stroke-width:1.029px;stroke:#263238;fill:#92e3a9"/>
                <path id="Path_3031" data-name="Path 3031" class="cls-18" d="M416.86 395.49H398.2l-2.8-23.43h24.26z" transform="translate(-394.16 -370.94)"/>
                <rect id="Rectangle_182" data-name="Rectangle 182" class="cls-19" width="26.74" height="2.68" rx="1.28"/>
            </g>
            <path id="Path_3032" data-name="Path 3032" class="cls-9" d="M404.36 368.39s8.58-5.15 5.78-11.06-12.27-9.8-12.27-19c0-7.92 8.42-10.85 13.92-14" transform="translate(71.626 -324.33)"/>
            <path id="Path_3033" data-name="Path 3033" class="cls-9" d="M407.18 329.92a10.27 10.27 0 0 0-2.72 14.3" transform="translate(71.626 -324.33)"/>
            <path id="Path_3034" data-name="Path 3034" class="cls-9" d="M411.85 353.27a15.51 15.51 0 0 1 1.34 10.73" transform="translate(71.626 -324.33)"/>
            <path id="Path_3035" data-name="Path 3035" class="cls-19" d="M182 393.6s-.39-6.72-6.32-9.09-9.1-1.39-22.33 2.17a126.493 126.493 0 0 1-25.5 3.95v3z" transform="translate(-78.67 -324.33)"/>
            <path id="Path_3036" data-name="Path 3036" class="cls-19" d="M181.81 393.6s.39-6.72 6.32-9.09 9.09-1.39 22.33 2.17a126.281 126.281 0 0 0 25.54 3.95v3z" transform="translate(-29.016 -324.33)"/>
            <path id="Rectangle_183" data-name="Rectangle 183" class="cls-18" transform="translate(47.82 68.08)" d="M0 0h111.66v2.17H0z"/>
            <path id="Path_3037" data-name="Path 3037" class="cls-9" d="M184.69 393.48a11.89 11.89 0 0 1 6.57-7.14" transform="translate(-34.384 -324.33)"/>
            <path id="Path_3038" data-name="Path 3038" class="cls-9" d="M188.07 393a11 11 0 0 1 7.43-5.28c3.69-.68 7.45.59 10.93 2S216 393 219.72 393" transform="translate(-29.549 -324.33)"/>
            <path id="Path_3039" data-name="Path 3039" class="cls-9" d="M149.4 392.39a40.341 40.341 0 0 0 10.77-2.7 47.145 47.145 0 0 1 6.42-2.46 8.87 8.87 0 0 1 6.66.67 9.1 9.1 0 0 1 2.29 2.13 16 16 0 0 1 2.17 3.65" transform="translate(-47.226 -324.33)"/>
            <path id="Path_3040" data-name="Path 3040" class="cls-9" d="M169.82 389.37A5.29 5.29 0 0 1 173 391a16.1 16.1 0 0 1 2.11 2.94" transform="translate(-40.731 -324.33)"/>
        </g>
        <g id="freepik--Character--inject-40" transform="translate(338.041 430.472)">
            <path id="Path_3041" data-name="Path 3041" d="M266.6 392.52a33.09 33.09 0 0 1-13 3c-6.92 0-21-14.3-21-14.3s-.51-1.54.59-7.3 11.44-58.61 11.44-58.61 1.22-12.3 8.21-19.85 20.71-10.24 20.71-10.24 30.34-13.21 47.36-9.13c17 6.75 35.57 13.61 41.77 18.93s21.44 48 26.72 69.92c0 0-11.63 24.71-22.48 31.65s-37 4.68-37 4.68z" transform="translate(-232.073 -198.5)" style="fill:#ff725e"/>
            <path id="Path_3042" data-name="Path 3042" class="cls-15" d="m262.75 349.57-4.39-58.25a19.12 19.12 0 0 0-11.49 13.59c-2.27 10.42-16 74.55-14.3 76.33s10.65 9.45 10.65 9.45 9.65 8.25 19.53 3.32 0-44.44 0-44.44z" transform="translate(-232.073 -198.5)"/>
            <path id="Path_3043" data-name="Path 3043" class="cls-15" d="M306.31 296.72c-.51 1.74-2.7 2.3-4.52 2.32a21.54 21.54 0 0 1-14.27-5.2c-.72-.63-13.59 7.32-15.07 8.11-2.34 1.26-4.63 2.64-7 3.81-2.22 1.09-4.32 1.63-5.77 3.83a19.761 19.761 0 0 0-2.15 5.2c-3.12 10.22-6.41 20.41-9.25 30.7-2.46 8.91-5.77 18.77-5.63 28.12a14.831 14.831 0 0 0 .14 2c2 11.95 23.82 16.91 23.82 16.91s-7.72 4.73-13 3-17.62-8.79-21.51-15.39l10.71-56s-.13-27 19.33-35 27.1-9.23 27.1-9.23z" transform="translate(-232.073 -198.5)"/>
            <path id="Path_3044" data-name="Path 3044" class="cls-15" d="M378.12 384.81s8.5-9.39 11.25-19.85c0 0-13-42.94-16.38-51s-8.85-17.21-12.68-21.13l-6.22 88.38-1.31 18.6s7 .29 11.85-2 13.49-13 13.49-13z" transform="translate(-232.073 -198.5)"/>
            <path id="Path_3045" data-name="Path 3045" class="cls-9" d="m352.78 399.84 7.53-107s-36.46-17-46-18.62-55.87 16.64-55.87 16.64l6.74 102.62" transform="translate(-232.073 -198.5)"/>
            <path id="Path_3046" data-name="Path 3046" class="cls-3" d="m287.06 222-3.74 17.95s-4.8-3.39-5.82.44 2.1 9.1 8.13 9.39c0 0 1.64 8.13 7 13.65a99.721 99.721 0 0 0 8 7.64s2.11 13.63 9 14.15 8.23-5.68 9.62-14.3c0 0 5.95-10.32 7.69-15.9 0 0 7.3-5.09 2.43-12.52 0 0 2.41-17.77-1.78-20.77s-33.22-1.47-40.53.27z" transform="translate(-232.073 -198.5)"/>
            <path id="Path_3047" data-name="Path 3047" class="cls-3" d="M309.29 286.64s-2.31 11.64-3.75 11.93-7.14-5.15-12.12-11.93-4.21-6.79-4.21-6.79 2.31-8.9 4.21-10.2 8.75-1.14 8.75-1.14l15-.57s5-.71 8.09 1.28 4.59 10.63 4.59 10.63-9 16.59-16.34 18.72a109.1 109.1 0 0 1-4.22-11.93z" transform="translate(-232.073 -198.5)"/>
            <path id="Line_24" data-name="Line 24" class="cls-12" transform="translate(28.047 147.62)" d="M0 27.92 1.99 0"/>
            <path id="Path_3048" data-name="Path 3048" class="cls-1" d="M329.85 227.14s-8.52 3.3-16.05 2.67c0 0-7.95 8-18.13 3.25 0 0-9.18 24.86 11.87 41.12a36 36 0 0 1-21.91-24.41s-6 .93-8.13-8c0 0-1.73-3.45 6.16-3.47l-.34-17.3 20.27 4.07 14.55-2.13z" transform="translate(-232.073 -198.5)"/>
            <path id="Path_3049" data-name="Path 3049" d="M329.85 227.14s-8.52 3.3-16.05 2.67c0 0-7.95 8-18.13 3.25 0 0-7.42 26.62 11 40.67 0 0-16.71-5.79-21.05-24 0 0-5.94-.63-8.13-8 0 0-1.73-3.45 6.16-3.47l-.34-17.3 20.27 4.07 14.55-2.13z" transform="translate(-232.073 -198.5)" style="opacity:.4;fill:#fff"/>
            <path id="Path_3050" data-name="Path 3050" class="cls-9" d="M306.68 261.6a21.609 21.609 0 0 0 2.07 1.48c.47.3 1.18.54 1.51.1a1.11 1.11 0 0 0 .17-.6c.3-4.91-.85-9.87-.15-14.74" transform="translate(-232.073 -198.5)"/>
            <path id="Path_3051" data-name="Path 3051" class="cls-22" d="M313.51 245.05s2.44-5.38 8.73-.55" transform="translate(-232.073 -198.5)"/>
            <path id="Path_3052" data-name="Path 3052" class="cls-22" d="M305.6 246s-4.6-5.72-10.3.18" transform="translate(-232.073 -198.5)"/>
            <path id="Path_3053" data-name="Path 3053" class="cls-9" d="M299.39 270.21s2.45 14.67 11.09 15.12c7 .36 8.38-11.77 8.65-16.11" transform="translate(-232.073 -198.5)"/>
            <path id="Path_3054" data-name="Path 3054" class="cls-9" d="M284.5 241.58s-3.81-4.55-6.39-2.33 1.29 12 7.52 10.52" transform="translate(-232.073 -198.5)"/>
            <path id="Path_3055" data-name="Path 3055" class="cls-9" d="M301 263.42a13.46 13.46 0 0 0 7.32 4.52" transform="translate(-232.073 -198.5)"/>
            <ellipse id="Ellipse_34" data-name="Ellipse 34" class="cls-4" cx=".99" cy="2.1" rx=".99" ry="2.1" transform="translate(67.517 52.21)"/>
            <path id="Path_3056" data-name="Path 3056" class="cls-4" d="M317.62 252.81c0 1.16-.45 2.1-1 2.1s-1-.94-1-2.1.44-2.11 1-2.11 1 .95 1 2.11z" transform="translate(-232.073 -198.5)"/>
            <path id="Path_3057" data-name="Path 3057" class="cls-9" d="M309.57 285.21s-2.4 13.07-4 13.36-13.91-10.87-16.33-18.72c0 0 2.6-10.26 5-10.63 1.13-.18 2.43-.35 3.46-.48" transform="translate(-232.073 -198.5)"/>
            <path id="Path_3058" data-name="Path 3058" class="cls-9" d="M309.57 285.21s2.32 13.07 3.94 13.36 13.92-10.87 16.34-18.72c0 0-2.94-10.19-5.17-11.05a27.518 27.518 0 0 0-4.38-1.24" transform="translate(-232.073 -198.5)"/>
            <path id="Path_3059" data-name="Path 3059" class="cls-4" d="M286.81 253.06c1.58 2.74 3.54-6.91 2.71-10-.56-2-1.65-3.94-1.75-6-.1-2.34 1-4.53 1.86-6.72s1.31-4.8 0-6.76a30.57 30.57 0 0 0 15.42 5.53 9.69 9.69 0 0 0 4.22-.34 4.14 4.14 0 0 0 2.74-3c5.2.66 10.35 1.34 15.53.63 4.35-.59 11.11-1.69 13.34-6.13 3.27-6.48-5.15-13.21-10.12-15.48-12-5.49-28.22-6.42-39.06 2.2a39.61 39.61 0 0 1-3.49 2.7c-2.39 1.5-7.83 2.66-9.74 4.75-2.56 2.81.65 24.51.65 24.51s4.18-1.94 5.9 4.53c1.2 4.36.19 6.82 1.79 9.58z" transform="translate(-232.073 -198.5)"/>
            <path id="Path_3060" data-name="Path 3060" class="cls-4" d="M326.13 225a4.85 4.85 0 0 0-.14.82 22.47 22.47 0 0 0 .87 7.29c.27 1.06.66 2.09.83 3.17.4 2.57.4 5.05 2.3 7.14 0 0 3.64-12.73 2.17-21.83-.17-1-.5-3.7-2.11-3.21-1.18.36-2 2.38-2.52 3.36a16.859 16.859 0 0 0-1.4 3.26z" transform="translate(-232.073 -198.5)"/>
            <path id="Path_3061" data-name="Path 3061" class="cls-9" d="M275.89 213a12.36 12.36 0 0 1 11.17-1.5 39.1 39.1 0 0 1 11.83-13" transform="translate(-232.073 -198.5)"/>
            <path id="Path_3062" data-name="Path 3062" class="cls-23" d="M291.53 209.94s19.6 13.94 31.47 10.49 8.55-13.66 8.55-13.66" transform="translate(-232.073 -198.5)"/>
            <path id="Path_3063" data-name="Path 3063" class="cls-23" d="M293.42 207.6s24.61 11.31 28.75-4.7" transform="translate(-232.073 -198.5)"/>
            <path id="Path_3064" data-name="Path 3064" class="cls-4" d="M299.39 270.21s4.68 9.09 8.35 8.94 10.4-9.93 10.4-9.93-3.63 4.68-9.14 5.16c-3.63.32-9.61-4.17-9.61-4.17z" transform="translate(-232.073 -198.5)"/>
            <path id="Path_3065" data-name="Path 3065" class="cls-4" d="m327.71 336.58.76-.35a2.06 2.06 0 0 0 1.19-2.27l-.15-.92a2.05 2.05 0 0 0-1.89-1.72l-.92-.08a2.05 2.05 0 0 1-1.71-1.17c-.25-.52-.51-1-.8-1.52a2.05 2.05 0 0 1 0-2.06l.47-.8a2.13 2.13 0 0 0-.33-2.55l-.66-.65a2 2 0 0 0-2.55-.31l-.81.48a2.05 2.05 0 0 1-2.06 0 16.637 16.637 0 0 0-4.19-1.71 2.06 2.06 0 0 1-1.48-1.5l-.24-1a2 2 0 0 0-2.06-1.58h-.92a2 2 0 0 0-2.06 1.57l-.26 1a2 2 0 0 1-1.45 1.48c-.52.15-1 .3-1.52.49a2.07 2.07 0 0 1-2.05-.38l-.83-.71a2 2 0 0 0-2.53-.15l-.73.5a2 2 0 0 0-.77 2.48l.37 1a2.07 2.07 0 0 1-.32 2.06 14.161 14.161 0 0 0-.93 1.23 2.05 2.05 0 0 1-1.91.88l-1-.09a2 2 0 0 0-2.17 1.37l-.33.9a2.06 2.06 0 0 0 .75 2.41l1 .67a2.09 2.09 0 0 1 .86 1.89 12.307 12.307 0 0 0-.08 1.61 2.13 2.13 0 0 1-1 1.75l-1 .54a2.06 2.06 0 0 0-1 2.37l.24.9a2.05 2.05 0 0 0 2.06 1.54h1a2.08 2.08 0 0 1 1.8 1 13.349 13.349 0 0 0 .89 1.43 2.06 2.06 0 0 1 .16 2.06l-.42.88a2.06 2.06 0 0 0 .54 2.51l.71.6a2.06 2.06 0 0 0 2.56.09l.74-.52a2 2 0 0 1 2-.19c.53.25 1.06.47 1.61.68a2.05 2.05 0 0 1 1.31 1.58l.15.9a2.07 2.07 0 0 0 1.9 1.72l.94.08a2.05 2.05 0 0 0 2.14-1.39l.29-.8a2.07 2.07 0 0 1 1.6-1.35 17.173 17.173 0 0 0 1.73-.37 2.07 2.07 0 0 1 2 .54l.61.62a2.06 2.06 0 0 0 2.52.34l.82-.46a2.06 2.06 0 0 0 1-2.38l-.23-.8a2.07 2.07 0 0 1 .52-2.06 17 17 0 0 0 1.22-1.33 2.06 2.06 0 0 1 2-.7l.83.16a2.06 2.06 0 0 0 2.27-1.18l.39-.84a2.05 2.05 0 0 0-.58-2.51l-.62-.51a2 2 0 0 1-.76-1.91 16.576 16.576 0 0 0 .19-1.85 2.06 2.06 0 0 1 1.18-1.64zm-12.39.53a5.44 5.44 0 1 1-5.44-5.43 5.42 5.42 0 0 1 5.43 5.4z" transform="translate(-232.073 -198.5)"/>
            <path id="Path_3066" data-name="Path 3066" class="cls-9" d="M260.33 370.28a20.837 20.837 0 0 1-2.67 2.47 22.4 22.4 0 0 0-5.69 9.08 7.41 7.41 0 0 0 0 4.92c1.21 3 5.05 6 8.12 4.08" transform="translate(-232.073 -198.5)"/>
            <path id="Path_3067" data-name="Path 3067" class="cls-9" d="M260.09 365c-2.93-.46-5.81 1.24-7.81 3.41s-3.39 4.85-5.21 7.18" transform="translate(-232.073 -198.5)"/>
            <path id="Path_3068" data-name="Path 3068" class="cls-9" d="M259.86 395.07a19.81 19.81 0 0 1-11.59-1.24 32.779 32.779 0 0 1-6.42-4.52l-7.6-6.28c-1.22-1-2.57-2.45-2.07-3.95 0 0 12.7-66.93 14.69-74.17 2.31-8.35 11.61-14 11.61-14" transform="translate(-232.073 -198.5)"/>
            <path id="Path_3069" data-name="Path 3069" class="cls-9" d="M355.15 371a21.511 21.511 0 0 1 7.21 9.63 53.211 53.211 0 0 1 2.27 10.93c-2 1.1-6 4-9.48 4" transform="translate(-232.073 -198.5)"/>
            <path id="Path_3070" data-name="Path 3070" class="cls-9" d="M355.58 365.43c3.08-.82 6.13 1.28 8.46 3.46s4.72 4.71 7.89 5.05" transform="translate(-232.073 -198.5)"/>
            <path id="Path_3071" data-name="Path 3071" class="cls-9" d="M356.17 400.21c6-.63 11.4-3.9 15.72-8.07s7.64-9.23 10.93-14.24c2.67-4.06 5.38-8.23 6.55-12.94 0 0-10.53-34.81-16.38-51-6.1-16.83-12.68-21.13-12.68-21.13" transform="translate(-232.073 -198.5)"/>
            <path id="Path_3072" data-name="Path 3072" class="cls-9" d="M355.58 365.43c5.43-4.56 13.76-.87 19.6 2.19" transform="translate(-232.073 -198.5)"/>
            <path id="Rectangle_184" data-name="Rectangle 184" class="cls-3" transform="translate(28.257 148.3)" d="M0 0h94.81v54.49H0z"/>
            <path id="Rectangle_185" data-name="Rectangle 185" class="cls-4" transform="translate(27.787 202.79)" d="M0 0h95.72v2.85H0z"/>
            <path id="Path_3073" data-name="Path 3073" class="cls-4" d="m259.86 401.29 95.29-54.49.43 54.49z" transform="translate(-232.073 -198.5)"/>
            <path id="Path_3074" data-name="Path 3074" class="cls-5" d="m259.86 401.29 95.29-54.49.43 54.49z" transform="translate(-232.073 -198.5)"/>
            <circle id="Ellipse_35" data-name="Ellipse 35" class="cls-4" cx="8.08" cy="8.08" r="8.08" transform="rotate(-45 243.584 8.242)"/>
            <path id="Rectangle_186" data-name="Rectangle 186" class="cls-9" transform="translate(28.257 148.3)" d="M0 0h94.81v54.49H0z"/>
            <path id="Path_3075" data-name="Path 3075" class="cls-9" d="M284.06 236.06s2.08 19 4.72 22.43 11.12 15.84 20.36 15.65 15.27-12.07 16.78-17.16a88.219 88.219 0 0 0 3.39-19.79" transform="translate(-232.073 -198.5)"/>
            <path id="Path_3076" data-name="Path 3076" class="cls-9" d="M326.88 255s6.85-3.54 2.43-12.52" transform="translate(-232.073 -198.5)"/>
        </g>
    </g>
</svg>
